<?xml version="1.0" standalone="no"?>
<!DOCTYPE svg PUBLIC "-//W3C//DTD SVG 20010904//EN"
 "http://www.w3.org/TR/2001/REC-SVG-20010904/DTD/svg10.dtd">
<svg version="1.0" xmlns="http://www.w3.org/2000/svg"
 width="512.000000pt" height="512.000000pt" viewBox="0 0 512.000000 512.000000"
 preserveAspectRatio="xMidYMid meet">

<g transform="translate(0.000000,512.000000) scale(0.100000,-0.100000)"
fill="#000000" stroke="none">
<path d="M1705 5105 c-60 -22 -110 -68 -139 -127 l-26 -52 0 -1777 0 -1777
-67 -7 c-78 -8 -154 -29 -200 -56 -17 -11 -93 -69 -170 -131 -174 -139 -199
-151 -323 -152 l-95 -1 0 135 0 135 80 6 c126 9 222 48 302 122 84 77 123 190
123 355 0 164 -19 182 -189 182 -158 0 -295 -46 -369 -122 l-32 -34 -42 39
c-85 81 -222 121 -392 115 -98 -3 -107 -5 -132 -29 -23 -23 -27 -37 -31 -111
-11 -166 42 -328 130 -403 81 -70 204 -115 315 -115 l62 0 0 -140 0 -140 -35
0 c-49 0 -150 -35 -199 -70 -53 -36 -98 -85 -177 -190 -104 -138 -99 -120 -99
-386 0 -247 4 -270 48 -318 57 -60 -124 -56 2512 -56 2033 0 2426 2 2453 14
39 16 82 61 96 99 7 19 11 187 11 486 0 454 0 457 -22 501 -13 25 -38 55 -57
67 -31 21 -45 23 -171 23 -110 0 -148 -4 -194 -20 -68 -23 -81 -32 -257 -172
-75 -59 -154 -115 -175 -124 -23 -10 -79 -19 -136 -22 l-98 -5 0 142 0 141 63
0 c117 0 241 46 321 120 89 82 130 206 124 377 -3 97 -5 104 -31 130 -25 26
-34 28 -123 31 -172 7 -301 -30 -388 -109 l-52 -47 -39 39 c-80 81 -220 123
-392 117 -97 -3 -104 -5 -130 -31 -26 -26 -28 -34 -31 -127 -4 -106 5 -164 38
-253 53 -140 220 -244 404 -250 l66 -2 0 -139 0 -139 -87 5 c-112 7 -147 22
-231 101 -75 70 -122 103 -192 132 -41 18 -81 20 -415 25 -429 6 -398 -1 -524
116 -108 99 -155 121 -293 139 l-48 6 0 765 0 764 1163 0 c1320 0 1233 -5
1317 80 83 82 80 51 80 860 0 809 3 778 -80 860 -84 85 3 80 -1317 80 l-1163
0 0 53 c0 116 -54 213 -144 259 -52 27 -148 33 -201 13z m142 -179 l28 -24 0
-1939 0 -1938 -82 -3 -83 -3 0 1939 c0 1535 3 1941 13 1954 34 43 84 48 124
14z m2565 -344 l23 -23 0 -719 0 -719 -23 -23 -23 -23 -1169 -3 -1170 -2 0
770 0 770 1170 -2 1169 -3 23 -23z m-4024 -2833 c57 -30 70 -41 94 -88 23 -44
28 -66 28 -123 l0 -71 -73 5 c-55 4 -88 12 -133 35 -53 27 -62 37 -92 94 -23
45 -35 85 -39 129 l-6 63 77 -5 c62 -4 90 -12 144 -39z m635 28 c10 -25 -15
-132 -41 -181 -31 -57 -73 -90 -145 -111 -57 -17 -153 -20 -162 -5 -10 17 15
131 41 181 27 54 63 83 137 109 61 22 162 27 170 7z m2672 -186 c65 -29 99
-62 125 -123 18 -42 20 -61 15 -109 l-7 -59 -47 0 c-60 0 -132 21 -181 54 -51
34 -91 115 -98 202 l-5 67 74 -5 c45 -3 93 -13 124 -27z m655 -21 c0 -54 -30
-144 -61 -184 -40 -50 -207 -105 -271 -88 -51 13 16 221 86 267 44 29 131 54
189 55 l57 0 0 -50z m-2812 -462 l-3 -83 -60 -3 c-73 -4 -105 -28 -105 -79 0
-47 14 -69 51 -82 48 -17 716 -15 749 2 52 26 62 95 20 137 -16 16 -34 20 -80
20 l-60 0 0 85 0 85 45 0 c66 0 106 -20 183 -93 79 -75 129 -109 192 -134 39
-15 95 -18 415 -23 430 -6 403 0 532 -122 78 -74 146 -112 233 -128 69 -13
501 -13 570 0 89 17 148 51 313 182 93 74 173 130 196 137 21 6 79 11 130 11
l91 0 0 -425 0 -425 -2390 0 -2390 0 0 198 0 199 66 89 c93 124 112 143 169
170 47 22 61 24 241 24 300 0 331 11 548 183 170 136 207 156 289 157 l58 0
-3 -82z"/>
<path d="M2444 4430 c-55 -22 -54 -10 -54 -592 l0 -537 24 -27 c33 -39 89 -39
122 0 23 26 24 32 24 214 l0 187 207 0 c236 0 254 5 326 84 58 64 70 122 65
319 -3 150 -5 172 -26 214 -26 53 -78 103 -131 126 -51 23 -350 30 -418 10
-39 -12 -52 -12 -73 -1 -29 15 -37 15 -66 3z m495 -175 c45 -23 53 -56 49
-220 -3 -147 -3 -147 -31 -171 -27 -23 -34 -24 -183 -24 l-156 0 -29 29 -29
29 0 154 c0 217 -1 216 213 217 102 1 145 -3 166 -14z"/>
<path d="M3362 4415 l-32 -27 0 -548 0 -548 32 -27 c38 -32 81 -29 116 11 21
24 22 31 22 250 l0 224 215 0 215 0 0 -226 c0 -125 4 -233 10 -243 16 -31 65
-46 101 -30 59 24 59 27 59 589 0 562 0 565 -59 589 -36 16 -85 1 -101 -30 -6
-10 -10 -118 -10 -243 l0 -226 -215 0 -215 0 0 224 c0 219 -1 226 -22 250 -35
40 -78 43 -116 11z"/>
<path d="M1397 660 c-20 -16 -27 -30 -27 -55 0 -88 19 -95 277 -95 l208 0 176
-86 c188 -92 207 -96 249 -54 23 23 26 76 6 105 -8 11 -96 61 -196 110 l-183
90 -241 3 c-234 3 -242 3 -269 -18z"/>
<path d="M2968 666 c-41 -15 -110 -66 -133 -99 -23 -33 -19 -90 8 -115 37 -35
82 -29 138 18 l48 40 113 0 c125 0 155 10 176 54 17 33 9 69 -20 96 -20 18
-35 20 -157 20 -86 -1 -150 -6 -173 -14z"/>
<path d="M4570 587 c-53 -27 -62 -96 -18 -137 19 -18 35 -20 139 -20 103 0
119 2 143 21 19 15 26 30 26 54 0 47 -8 64 -41 80 -36 19 -213 20 -249 2z"/>
<path d="M535 478 c-32 -38 -29 -81 11 -115 24 -22 32 -23 215 -23 235 0 259
8 259 91 0 18 -10 39 -25 54 -24 25 -25 25 -229 25 l-204 0 -27 -32z"/>
<path d="M3695 485 c-35 -34 -33 -78 4 -116 l29 -29 146 0 c79 0 156 4 171 10
34 13 59 69 46 104 -20 50 -42 56 -214 56 -154 0 -158 -1 -182 -25z"/>
</g>
</svg>
