<?xml version="1.0" encoding="UTF-8" standalone="no"?>
<!-- Created with Inkscape (http://www.inkscape.org/) -->

<svg
   width="206.375mm"
   height="238.125mm"
   viewBox="0 0 206.375 238.125"
   version="1.1"
   id="svg5"
   sodipodi:docname="PPPPPP-1.svg"
   inkscape:version="1.2.2 (732a01da63, 2022-12-09)"
   inkscape:export-filename="_base.png"
   inkscape:export-xdpi="96"
   inkscape:export-ydpi="96"
   xmlns:inkscape="http://www.inkscape.org/namespaces/inkscape"
   xmlns:sodipodi="http://sodipodi.sourceforge.net/DTD/sodipodi-0.dtd"
   xmlns="http://www.w3.org/2000/svg"
   xmlns:svg="http://www.w3.org/2000/svg">
  <sodipodi:namedview
     id="namedview7"
     pagecolor="#505050"
     bordercolor="#ffffff"
     borderopacity="1"
     inkscape:showpageshadow="0"
     inkscape:pageopacity="0"
     inkscape:pagecheckerboard="1"
     inkscape:deskcolor="#505050"
     inkscape:document-units="mm"
     showgrid="false"
     showguides="false"
     inkscape:zoom="0.3524041"
     inkscape:cx="549.08555"
     inkscape:cy="297.9534"
     inkscape:window-width="1920"
     inkscape:window-height="1057"
     inkscape:window-x="1912"
     inkscape:window-y="-8"
     inkscape:window-maximized="1"
     inkscape:current-layer="g2076" />
  <defs
     id="defs2">
    <inkscape:path-effect
       effect="simplify"
       id="path-effect2045"
       is_visible="true"
       lpeversion="1"
       steps="1"
       threshold="0.000625"
       smooth_angles="360"
       helper_size="0"
       simplify_individual_paths="false"
       simplify_just_coalesce="false" />
  </defs>
  <g
     inkscape:label="Base Hexagon"
     inkscape:groupmode="layer"
     id="layer1"
     transform="translate(-6.9865354e-5,6.8945696e-5)"
     sodipodi:insensitive="true"
     style="display:inline">
    <path
       sodipodi:type="star"
       style="fill:#8b9768;fill-opacity:1;stroke:#000000;stroke-width:0;stroke-linecap:round;stroke-linejoin:miter;stroke-miterlimit:4;stroke-dasharray:none;paint-order:stroke fill markers"
       id="path7148"
       inkscape:flatsided="true"
       sodipodi:sides="6"
       sodipodi:cx="28.234375"
       sodipodi:cy="13.25"
       sodipodi:r1="3.3630068"
       sodipodi:r2="2.9124494"
       sodipodi:arg1="0.52359878"
       sodipodi:arg2="1.0471976"
       inkscape:rounded="0"
       inkscape:randomized="0"
       d="m 31.146824,14.931503 -2.912449,1.681504 -2.912449,-1.681504 0,-3.363006 2.912449,-1.6815038 2.912449,1.6815038 z"
       transform="matrix(-17.721454,30.666072,-30.671746,-17.691963,1009.9425,-512.35645)"
       inkscape:label="Base Hexagon"
       sodipodi:insensitive="true" />
  </g>
  <g
     inkscape:groupmode="layer"
     id="layer2"
     inkscape:label="Markers"
     style="display:none"
     sodipodi:insensitive="true">
    <g
       id="g1785"
       inkscape:label="River Markers"
       style="display:inline"
       sodipodi:insensitive="true">
      <rect
         style="display:none;fill:#80b3ff;stroke:#000000;stroke-width:0;stroke-linecap:round;paint-order:stroke fill markers"
         id="rect1640-7"
         width="291.04166"
         height="8.4666643"
         x="-42.333332"
         y="114.82917"
         inkscape:label="L-R River Marker"
         sodipodi:insensitive="true" />
      <rect
         style="display:none;fill:#80b3ff;stroke:#000000;stroke-width:0;stroke-linecap:round;paint-order:stroke fill markers"
         id="rect1640-7-1"
         width="291.04166"
         height="8.4666643"
         x="9.1840715"
         y="-34.065075"
         inkscape:label="TL-BR River Marker"
         sodipodi:insensitive="true"
         transform="rotate(60)" />
      <rect
         style="display:none;fill:#80b3ff;stroke:#000000;stroke-width:0;stroke-linecap:round;paint-order:stroke fill markers"
         id="rect1640-7-8"
         width="291.04166"
         height="8.4666643"
         x="-197.03824"
         y="144.66092"
         inkscape:label="BL-TR River Marker"
         sodipodi:insensitive="true"
         transform="rotate(-60)" />
      <rect
         style="display:inline;fill:#80b3ff;fill-opacity:1;stroke-width:0;paint-order:stroke fill markers"
         id="rect20853"
         width="8.4045773"
         height="8.4045773"
         x="-4.1891494"
         y="114.86176"
         inkscape:label="L Marker"
         sodipodi:insensitive="true" />
      <rect
         style="display:inline;fill:#80b3ff;fill-opacity:1;stroke-width:0;paint-order:stroke fill markers"
         id="rect20855"
         width="5.7989492"
         height="5.7989492"
         x="1.1801877"
         y="211.76744"
         transform="matrix(-0.96592583,0.25881905,0.25881905,0.96592583,0,0)"
         inkscape:label="BL Marker"
         sodipodi:insensitive="true" />
      <rect
         style="display:inline;fill:#80b3ff;fill-opacity:1;stroke-width:0;paint-order:stroke fill markers"
         id="rect20857"
         width="6.1054602"
         height="6.1054602"
         x="200.33043"
         y="158.12204"
         transform="rotate(15)"
         inkscape:label="BR Marker"
         sodipodi:insensitive="true" />
      <rect
         style="display:inline;fill:#80b3ff;fill-opacity:1;stroke-width:0;paint-order:stroke fill markers"
         id="rect20859"
         width="8.4984264"
         height="8.4984264"
         x="202.0654"
         y="114.79823"
         inkscape:label="R Marker"
         sodipodi:insensitive="true" />
      <rect
         style="display:inline;fill:#80b3ff;fill-opacity:1;stroke-width:0;paint-order:stroke fill markers"
         id="rect20861"
         width="5.875577"
         height="5.875577"
         x="-144.7541"
         y="65.838341"
         transform="matrix(-0.96592583,0.25881905,0.25881905,0.96592583,0,0)"
         inkscape:label="TR Marker"
         sodipodi:insensitive="true" />
      <rect
         style="display:inline;fill:#80b3ff;fill-opacity:1;stroke-width:0;paint-order:stroke fill markers"
         id="rect20863"
         width="6.0288324"
         height="6.0288324"
         x="54.585835"
         y="12.421707"
         transform="rotate(15)"
         inkscape:label="TL Marker"
         sodipodi:insensitive="true" />
    </g>
    <g
       id="g1713"
       inkscape:label="Road Markers"
       style="display:inline"
       sodipodi:insensitive="true">
      <rect
         style="display:none;fill:#e9ddaf;stroke:#000000;stroke-width:0;stroke-linecap:round;paint-order:stroke fill markers"
         id="rect1640"
         width="291.04166"
         height="2.1166666"
         x="-42.333332"
         y="118.00417"
         inkscape:label="L-R Road Marker"
         sodipodi:insensitive="true" />
      <rect
         style="display:none;fill:#e9ddaf;stroke:#000000;stroke-width:0;stroke-linecap:round;paint-order:stroke fill markers"
         id="rect1640-2"
         width="291.04166"
         height="2.1166666"
         x="-197.03824"
         y="147.83591"
         inkscape:label="BL-TR Road Marker"
         transform="rotate(-60)"
         sodipodi:insensitive="true" />
      <rect
         style="display:none;fill:#e9ddaf;fill-opacity:1;stroke:#000000;stroke-width:0;stroke-linecap:round;paint-order:stroke fill markers"
         id="rect1640-5"
         width="291.04166"
         height="2.1166666"
         x="9.1840754"
         y="-30.890074"
         inkscape:label="TL-BR Road Marker"
         transform="rotate(60)"
         sodipodi:insensitive="true" />
      <rect
         style="display:inline;fill:#e9ddaf;fill-opacity:1;stroke-width:0;paint-order:stroke fill markers"
         id="rect20783"
         width="2.1166666"
         height="2.1166666"
         x="-1.0451944"
         y="118.00571"
         inkscape:label="L Marker"
         sodipodi:insensitive="true" />
      <rect
         style="display:inline;fill:#e9ddaf;fill-opacity:1;stroke-width:0;paint-order:stroke fill markers"
         id="rect20781"
         width="1.507797"
         height="1.507797"
         x="3.3257639"
         y="213.91301"
         transform="matrix(-0.96592583,0.25881905,0.25881905,0.96592583,0,0)"
         inkscape:label="BL Marker"
         sodipodi:insensitive="true" />
      <rect
         style="display:inline;fill:#e9ddaf;fill-opacity:1;stroke-width:0;paint-order:stroke fill markers"
         id="rect20777"
         width="1.507797"
         height="1.507797"
         x="202.62926"
         y="160.42087"
         transform="rotate(15)"
         inkscape:label="BR Marker"
         sodipodi:insensitive="true" />
      <rect
         style="fill:#e9ddaf;fill-opacity:1;stroke-width:0;paint-order:stroke fill markers"
         id="rect20794"
         width="2.1166666"
         height="2.1166666"
         x="205.25629"
         y="117.98911"
         inkscape:label="R Marker"
         sodipodi:insensitive="true" />
      <rect
         style="display:inline;fill:#e9ddaf;fill-opacity:1;stroke-width:0;paint-order:stroke fill markers"
         id="rect20779"
         width="1.507797"
         height="1.507797"
         x="-142.57022"
         y="68.022232"
         transform="matrix(-0.96592583,0.25881905,0.25881905,0.96592583,0,0)"
         inkscape:label="TR Marker"
         sodipodi:insensitive="true" />
      <rect
         style="display:inline;fill:#e9ddaf;fill-opacity:1;stroke-width:0;paint-order:stroke fill markers"
         id="rect20765"
         width="1.507797"
         height="1.507797"
         x="56.846352"
         y="14.682225"
         transform="rotate(15)"
         inkscape:label="TL Marker"
         sodipodi:insensitive="true" />
    </g>
  </g>
  <g
     inkscape:groupmode="layer"
     id="layer3"
     inkscape:label="Ridges"
     style="display:inline;fill:#000000;fill-opacity:1">
    <path
       style="fill:#000000;fill-opacity:1;stroke-width:0;paint-order:stroke fill markers"
       id="path3858"
       d="m 63.682604,67.92415 c -1.830356,0.423796 -0.204565,-0.183872 -1.724602,1.343845 -0.409601,0.411671 -0.881512,0.772472 -1.395148,1.04344 -0.66826,0.352542 -1.480372,0.402876 -2.117182,0.809485 -1.782511,1.13815 -1.858444,2.053884 -2.699568,3.904062 -1.45026,0.891971 -3.194071,1.715606 -4.131408,3.25868 -0.274253,0.451485 -1.174096,4.101562 -1.392854,4.650152 -1.539541,3.860792 -0.701918,-0.09919 -1.321847,3.922795 -3.621646,3.290646 -1.159791,0.01074 -1.331085,3.948041 -0.03382,0.777285 -0.761465,1.420116 -0.785958,2.19775 -0.06488,2.059882 1.266645,2.650308 1.994826,4.379574 0.300014,0.712465 0.339006,1.508488 0.508508,2.26273 0.62814,1.507816 -0.718925,3.325036 -0.140165,4.827096 0.366538,0.95129 1.653153,1.37992 1.95173,2.35467 0.266169,0.86896 -0.269732,1.79749 -0.404595,2.69623 0.02159,0.32309 0.478507,0.29257 0.456919,-0.0305 v 0 c -0.538961,-0.82626 -1.384953,-1.51992 -1.616887,-2.47876 -0.209809,-0.86739 0.476126,-1.76387 0.37615,-2.65066 -0.179414,-1.59137 -1.789758,-2.84418 -1.316524,-4.620448 -0.138856,-1.170813 -0.373068,-3.396377 -0.628229,-4.556766 -0.226796,-1.031385 -1.109136,-3.263437 -0.900909,-4.398237 0.137943,-0.751782 0.952108,-1.279335 1.052838,-2.037001 0.09859,-0.741571 -0.327255,-1.459965 -0.490882,-2.189948 0.281848,-0.65999 0.553329,-1.324504 0.845545,-1.979967 0.300612,-0.674296 0.667589,-1.319816 0.932728,-2.008833 0.286782,-0.745263 0.292171,-1.610453 0.719569,-2.284984 0.458176,-0.723109 1.278347,-1.143466 1.854141,-1.776926 3.493516,-3.843388 -0.484388,-0.252637 3.547065,-3.663873 0.601509,-0.553905 1.27531,-1.038376 1.80453,-1.661716 0.497657,-0.586166 0.655529,-1.451901 1.251479,-1.937803 0.585155,-0.477099 1.569397,-0.287086 2.11604,-0.807868 0.460713,-0.438915 0.188029,-1.341308 0.625197,-1.803675 0.531818,-0.562472 1.778765,-0.02297 2.098476,-0.994603 -0.200842,0.185333 0.06126,0.469371 0.262102,0.284038 z" />
    <path
       style="fill:#000000;fill-opacity:1;stroke-width:0;paint-order:stroke fill markers"
       id="path3860"
       d="m 68.8322,93.141733 c -0.09752,1.444696 -0.140708,-0.133866 0.563396,1.483272 0.199287,0.457711 0.172717,0.99295 0.371761,1.450769 0.254492,0.585354 0.783881,1.038929 0.975389,1.647806 1.240676,3.94458 -1.260616,0.521804 1.750676,3.83531 -0.599972,4.30499 -0.762767,0.53903 1.59771,3.58827 1.168398,1.50933 -0.231529,1.58764 0.279305,3.08936 0.952241,2.79932 1.160473,-0.56678 0.786143,2.06384 0.869323,1.42406 0.416058,0.13934 -0.09018,1.4843 -0.290684,0.77229 0.954611,1.10789 0.431049,1.95068 -0.203505,0.32759 -0.580412,0.50798 -0.870617,0.76196 0.344381,0.34458 0.944486,0.5547 1.033147,1.03374 0.0723,0.39062 -0.462457,0.64786 -0.657891,0.99372 -0.193548,0.34251 -0.507969,0.67281 -0.506132,1.06622 0.0019,0.42226 0.428498,0.74371 0.516522,1.15669 0.246441,1.15624 -0.157909,1.48452 -0.669843,2.50023 -1.028674,2.56147 -0.231227,0.0728 -0.50918,2.80338 -0.05084,0.49948 -0.260845,0.97259 -0.326758,1.4703 -0.06747,0.50943 0.14002,1.07181 -0.0719,1.53996 -1.361276,3.00715 -1.350039,-0.58117 -1.033013,2.63272 -0.658672,0.7013 0.387321,1.70653 0.005,2.41495 -0.465251,0.86219 -1.349139,0.284 -1.619086,1.26772 -0.07101,0.25876 0.129178,0.52157 0.170897,0.78663 0.04045,0.25703 0.05013,0.51796 0.0752,0.77693 -1.059228,0.61566 -0.681911,0.19113 -1.17969,1.22953 -0.02275,0.0651 0.06931,0.0973 0.09206,0.0322 v 0 c 1.237359,-0.60114 0.802241,-0.17737 1.428721,-1.13091 0.04009,-0.24227 0.07989,-0.4846 0.120264,-0.72682 0.03913,-0.23478 0.179292,-0.47414 0.118258,-0.70419 -0.09631,-0.36305 -0.551884,-0.60015 -0.563888,-0.97556 -0.01005,-0.31409 0.341736,-0.52754 0.50728,-0.79466 0.197753,-0.31908 0.388356,-0.64255 0.582534,-0.96382 0.230147,-0.3678 0.460295,-0.7356 0.690443,-1.1034 -0.130437,-3.93003 -0.134686,1.12991 0.43937,-2.77633 0.07554,-0.51404 -0.188034,-1.05508 -0.05633,-1.55768 0.136539,-0.52105 0.760556,-0.85323 0.828122,-1.38762 0.06658,-0.52661 -0.548367,-1.00117 -0.45992,-1.52455 0.08869,-0.52485 0.624115,-0.86244 0.936176,-1.29365 1.620305,-3.82592 -0.0917,1.25539 -0.327361,-2.54673 -0.02737,-0.44159 0.600331,-0.6827 0.73819,-1.10312 0.650327,-1.98326 -2.129748,-1.57837 0.271838,-3.065 -0.01069,-0.28108 0.02854,-0.56857 -0.0321,-0.84324 -0.05884,-0.26654 -0.364911,-0.48427 -0.320418,-0.75358 0.04337,-0.26254 0.482123,-0.32698 0.541779,-0.5863 0.04802,-0.20877 -0.310412,-0.37082 -0.273076,-0.58177 0.246517,-1.39291 1.391835,-0.0467 -0.447628,-1.41824 0.268531,-0.37745 0.687703,-0.68437 0.805598,-1.13234 0.09052,-0.34397 -0.458658,-2.38826 -0.634399,-2.57736 -0.499888,-0.53786 -1.556629,-0.48965 -1.879349,-1.14923 -0.584361,-1.1943 1.528358,-2.91581 -0.411268,-3.96755 -0.277995,-0.64745 -0.457377,-1.34683 -0.833983,-1.942353 -0.148172,-0.234302 -2.543556,-2.84289 -2.709468,-3.225874 -0.206044,-0.475626 -0.06044,-1.03491 -0.09065,-1.552366 0.04623,-0.369816 0.265446,-0.758973 0.138692,-1.109451 -0.08606,-0.237958 -0.446273,-0.238662 -0.669409,-0.357992 0.147616,0.316773 0.595601,0.108011 0.447982,-0.208761 z" />
    <path
       style="fill:#000000;fill-opacity:1;stroke-width:0;paint-order:stroke fill markers"
       id="path3862"
       d="m 30.356071,118.3013 c -1.623475,-0.0844 -0.737634,1.47313 -1.809691,2.13558 -0.48736,0.30115 -1.23733,0.0528 -1.662187,0.43709 -0.182933,0.16548 -0.609357,2.86507 -0.626749,2.96531 -1.049215,2.56491 -0.09899,0.72768 -1.959603,3.08982 -0.453343,0.57555 -0.865887,1.18235 -1.281244,1.78588 -0.444505,0.64589 -1.088175,1.20621 -1.297881,1.96171 -1.787352,6.43919 2.455274,-1.33112 -1.38868,4.86587 -1.259076,2.51329 -0.464299,5.13183 -0.65716,7.76709 -0.05332,0.72862 -0.211632,1.44752 -0.378329,2.15883 -0.154384,0.65876 -0.756671,1.29023 -0.583241,1.94424 0.183984,0.69381 1.004511,1.02559 1.506766,1.53838 -0.102782,0.50701 -0.461072,1.02677 -0.308346,1.52104 0.123917,0.40103 1.669804,1.25183 1.868943,1.74072 0.137169,0.33676 -0.162842,0.75088 -0.03261,1.09037 1.243468,3.24142 0.29058,-2.31506 0.803962,1.54177 0.01501,-0.002 2.081433,-0.34045 2.254523,-0.2178 0.237905,0.16857 0.05137,0.58751 0.150727,0.86163 0.450817,1.24378 1.089396,0.79633 1.972015,0.4043 0.07804,0.26212 0.07629,0.56302 0.234135,0.78636 0.658276,0.93144 1.310839,-0.75284 1.982938,-0.20731 0.244655,0.19858 0.03711,0.8803 0.352201,0.87725 0.454218,-0.004 0.687588,-0.59377 1.031382,-0.89065 -0.353713,-0.13249 -0.541083,0.36773 -0.18737,0.50023 v 0 c -0.567541,-0.27939 -1.239017,-0.67907 -1.892903,-0.34005 -0.353848,0.18346 -0.561125,0.82779 -0.947407,0.72953 -0.51885,-0.13198 0.239845,-1.40388 -0.541498,-1.51209 -0.140735,0.0378 -1.31986,0.45361 -1.537845,0.15498 -0.199175,-0.27286 0.229992,-0.83149 -0.0556,-1.01194 -0.731162,-0.46197 -1.89735,1.44601 -2.586381,-0.3474 -0.40808,-0.76869 -0.95096,-1.58592 -1.714903,-2.06064 -0.439501,-0.2731 -1.180622,-0.18869 -1.408095,-0.65346 -0.421353,-0.86089 1.402482,-2.04945 -0.09134,-2.87398 0.105281,-2.31929 0.193345,-1.12476 -0.336375,-3.57754 0.01497,-0.73598 0.513721,-1.41638 0.494728,-2.15226 -0.02237,-0.86663 -0.696761,-1.66378 -0.615502,-2.52688 0.168409,-1.78877 2.206244,-3.12376 1.563185,-5.15839 0.214419,-0.84843 0.452666,-1.6912 0.643256,-2.54531 0.176426,-0.79063 0.136634,-1.64291 0.457327,-2.3868 0.313387,-0.72695 1.026775,-1.22042 1.39895,-1.91911 0.337411,-0.63341 0.298243,-1.44364 0.706674,-2.03376 0.40533,-0.58565 1.279051,-0.7527 1.644826,-1.36383 0.311195,-0.51994 0.166137,-1.20047 0.249207,-1.8007 0.327923,-0.39634 0.600428,-0.84599 0.983769,-1.18902 0.370062,-0.33114 1.160719,-0.32163 1.25027,-0.81008 0.127082,-0.69314 -0.972071,-1.31599 -0.738574,-1.98088 0.175064,-0.4985 1.051412,-0.15617 1.550231,-0.33031 0.338505,-0.11819 0.619942,-0.36044 0.932339,-0.53641 0.227367,-0.12806 0.457906,-0.25042 0.686861,-0.37563 0.03942,-0.0564 -0.04028,-0.11211 -0.0797,-0.0558 z" />
    <path
       style="fill:#000000;fill-opacity:1;stroke-width:0;paint-order:stroke fill markers"
       id="path3864"
       d="m 83.496067,174.35273 c 0.214458,-0.10549 1.639742,-0.79821 1.653021,-0.85127 0.133739,-0.53428 -0.51459,-1.03682 -0.465465,-1.58539 0.08989,-1.00382 1.57925,-1.9675 1.833536,-2.80294 0.203692,-0.66922 -0.01122,-1.39902 -0.01683,-2.09853 0.869892,-0.38778 2.28994,-0.26622 2.60967,-1.16335 0.313177,-0.87874 -1.25898,-1.53949 -1.314524,-2.47071 -0.03606,-0.60453 0.743077,-0.95772 1.080016,-1.46093 0.815716,-1.21826 1.138169,-2.22087 1.491353,-3.61181 0.703715,-1.16286 1.489581,-1.63444 -0.03683,-2.52776 -0.306464,-0.17935 -0.758719,-0.12023 -0.99218,-0.38778 -0.118163,-0.13542 0.179822,-0.31561 0.227113,-0.489 0.03454,-0.12664 0.0091,-0.26237 0.0136,-0.39356 -0.02336,-0.55416 -0.433713,-0.64 -0.584375,-1.17775 -0.05245,-0.18722 0.09252,-0.6005 -0.100187,-0.57463 -0.489593,0.0657 -0.848577,0.50597 -1.272865,0.75895 0.196876,0.18291 0.455554,-0.0955 0.25868,-0.27842 v 0 c 0.264623,-0.081 0.563311,-0.39594 0.793869,-0.2429 0.591889,0.3929 -0.89182,1.28686 -0.397917,1.57481 0.338561,0.19739 0.717029,-0.35147 1.10609,-0.39853 0.173387,-0.021 0.32103,0.13766 0.481545,0.20649 0.05706,0.0455 0.796703,0.54486 0.621194,0.77269 -0.280115,0.36361 -0.892919,0.37166 -1.156481,0.74745 -0.333782,0.47591 1.643714,1.75207 0.746813,2.36962 -0.418446,2.57412 0.209833,-0.51772 -0.818795,2.23519 -0.171514,0.45902 -0.194342,0.96135 -0.324133,1.43387 -0.152345,0.5546 -0.352965,1.09483 -0.521521,1.64473 -0.780335,2.54575 -0.117858,1.26786 -1.78695,3.4808 -2.007246,3.73007 -0.204539,-0.43204 -0.63054,3.80073 -0.14026,1.39366 -0.879041,1.41688 -1.727065,2.22064 -0.226454,0.21464 -0.512767,0.42785 -0.583789,0.73167 -0.05878,0.25147 0.160403,0.49096 0.240606,0.73645 0.140592,-0.3017 -0.286075,-0.50053 -0.426667,-0.19883 z" />
    <path
       style="fill:#000000;fill-opacity:1;stroke-width:0;paint-order:stroke fill markers"
       id="path3866"
       d="m 133.70572,45.871762 c 0.69838,0.560276 1.04934,0.433139 0.42893,1.094457 -0.19918,0.21232 -0.60247,0.278243 -0.66877,0.561718 -0.0705,0.301411 0.25178,0.567984 0.33477,0.866196 0.24041,0.863872 0.15562,0.963477 0.0891,1.846574 -1.88834,2.628138 0.17311,-0.895604 0.23402,2.061541 0.009,0.448773 -0.73698,0.593579 -0.88043,1.018905 -0.11011,0.326451 0.22259,0.671737 0.19441,1.0151 -0.1465,1.785443 -0.99019,0.397907 0.45677,1.906051 0.38298,0.192582 1.06136,0.158115 1.14893,0.577744 0.0919,0.440362 -0.74953,0.638704 -0.80184,1.085498 -0.0324,0.276252 0.55446,0.298704 0.60781,0.57168 0.0737,0.377044 -0.61257,0.930876 -0.27741,1.118653 2.48156,1.390325 1.52005,-1.881997 2.00718,0.824468 0.43209,0.140219 0.91597,0.172196 1.29627,0.420661 0.38351,0.250566 0.59902,0.693806 0.91589,1.024644 0.35543,0.371091 0.70122,0.755909 1.09995,1.080032 0.43091,0.35029 0.91925,0.623332 1.37888,0.934998 0.61721,0.211584 1.32572,0.248568 1.85163,0.634748 0.47538,0.349076 0.66685,0.972961 1.00028,1.459439 3.64117,4.824868 -1.70253,-1.831901 2.49783,2.077662 0.34924,0.325067 0.27398,0.99301 0.66379,1.268132 0.40256,0.284126 1.0433,-0.03201 1.46007,0.230857 2.16183,1.36353 -1.48631,0.945216 1.6126,1.011835 1.63104,0.321157 0.2029,-0.06298 1.61114,0.601113 0.27773,0.130966 0.63146,0.119737 0.86347,0.320868 0.30288,0.262562 0.26421,0.96797 0.66353,1.00289 0.52761,0.04614 0.86816,-0.622798 1.35717,-0.826188 0.36602,-0.152236 0.77864,-0.149379 1.16795,-0.224065 0.35143,0.01328 0.70285,0.02658 1.05428,0.03987 0.27959,0.09011 0.40703,-0.305287 0.12744,-0.395399 v 0 c -0.30029,-0.169039 -0.60058,-0.338079 -0.90087,-0.507118 -0.50499,0.429651 -0.85844,1.196183 -1.51495,1.288957 -0.39888,0.05637 -0.33301,-0.848299 -0.71584,-0.973717 -0.38125,-0.124907 -0.74831,0.403873 -1.14745,0.363273 -0.30428,-0.03095 -0.42933,-0.504838 -0.73114,-0.554371 -1.65512,-0.271629 -0.69864,1.120624 -1.465,-0.624509 -3.12958,-0.07512 0.88154,0.377624 -1.23171,-1.292352 -0.4109,-0.32471 -1.05802,0.0245 -1.56838,-0.09298 -1.69697,-0.390594 -2.41795,-1.788533 -3.70813,-2.804345 -0.54747,-0.28671 -1.15756,-0.476917 -1.6424,-0.860131 -0.87761,-0.693653 -1.24077,-1.925132 -2.15006,-2.576711 -0.46285,-0.331671 -1.0788,-0.373587 -1.59028,-0.62384 -1.3902,-0.680188 -1.11032,-0.572072 -1.82366,-1.779101 -0.38823,-0.09437 -0.77116,-0.214151 -1.1647,-0.283099 -0.42995,-0.07533 -1.00001,0.167228 -1.30101,-0.148894 -0.24523,-0.257561 0.1948,-0.702439 0.15404,-1.055732 -0.0298,-0.258501 -0.38267,-0.435893 -0.35602,-0.694741 0.17188,-1.669671 1.47373,-0.471521 -0.56446,-1.600962 -0.09,-0.30722 -0.2701,-0.601524 -0.27005,-0.921662 2.7e-4,-1.826824 0.59948,-0.19294 0.29843,-2.009093 -0.0608,-0.366792 -0.29388,-0.68862 -0.36787,-1.05298 -0.25921,-1.276493 -0.0929,-1.031365 0.7392,-2.013924 -0.29595,-0.344075 -0.81185,-0.584793 -0.88785,-1.03223 -0.0562,-0.331049 0.43375,-0.523303 0.57162,-0.82949 0.10873,-0.241466 0.10193,-0.519731 0.1529,-0.779597 -0.0684,-0.240673 -0.30674,-0.493379 -0.20514,-0.722021 0.46966,-1.056934 1.24435,0.235542 0.27782,-0.938194 0.0644,-0.270582 -0.31822,-0.361702 -0.38265,-0.09112 z" />
    <path
       style="fill:#000000;fill-opacity:1;stroke-width:0;paint-order:stroke fill markers"
       id="path3872"
       d="m 105.28607,202.31822 c 1.25889,0.88167 2.75111,0.0781 4.14647,0.3868 0.64131,0.14188 1.16243,0.66975 1.81021,0.7783 8.43517,1.41351 -3.72901,-1.84045 4.70957,0.59675 3.16887,1.26681 1.80799,1.31565 5.35427,-0.002 0.80247,-0.29811 1.51645,-0.86396 2.35908,-1.01495 0.86741,-0.15543 1.76281,0.19211 2.64101,0.11901 0.79616,-0.0663 1.55148,-0.38574 2.33665,-0.53332 0.83189,-0.15636 1.67407,-0.25189 2.51111,-0.37784 0.82853,-0.36862 3.41351,-1.49952 4.24013,-1.9414 0.62629,-0.33478 1.27874,-0.64672 1.82215,-1.1039 0.48111,-0.40476 0.81857,-0.9549 1.20991,-1.44699 0.34277,-0.43102 0.56707,-0.97068 0.99166,-1.32139 0.405,-0.33454 0.94958,-0.44952 1.42437,-0.67428 0.092,-0.47071 -0.0204,-1.03501 0.27589,-1.41215 0.45357,-0.57731 2.11621,-0.54289 2.64414,-0.41651 0.57598,0.13789 1.08307,0.90339 1.63639,0.69218 3.61526,-1.38001 -2.58837,-2.78305 2.74081,-0.96487 0.468,-0.45325 0.93601,-0.90651 1.40401,-1.35976 -0.67405,0.19061 -0.40449,1.14386 0.26956,0.95325 v 0 c -0.56611,0.10827 -1.13222,0.21653 -1.69834,0.3248 -0.91577,-0.31752 -2.52286,-1.04444 -3.60547,-0.83567 -0.42369,0.0817 -0.69972,0.51574 -1.09251,0.69436 -0.37898,0.17235 -0.87859,0.0828 -1.19951,0.34797 -0.30527,0.25226 -0.34424,0.71329 -0.51636,1.06993 -0.33881,0.25771 -0.67763,0.51542 -1.01644,0.77314 -3.52166,0.95217 -0.21791,-0.5017 -1.87233,2.49002 -0.30993,0.56045 -1.00236,0.80449 -1.55402,1.12983 -0.62472,0.36842 -1.31066,0.62159 -1.96082,0.943 -4.52461,2.2368 0.56416,-0.20179 -4.15532,2.03841 -3.73617,2.28102 -0.28904,0.77196 -4.84137,0.91638 -0.83382,0.0265 -1.61667,0.4529 -2.44827,0.51927 -0.80111,0.0639 -1.60639,-0.19711 -2.40738,-0.13172 -4.66924,0.38115 -1.00197,1.16882 -5.23945,-0.25835 -0.89982,0.14773 -1.79872,0.30119 -2.69946,0.4432 -0.83268,0.13127 -1.67276,0.53513 -2.50069,0.37662 -0.66813,-0.12792 -1.02675,-0.94976 -1.66869,-1.17486 -0.5665,-0.19865 -1.30388,0.2957 -1.80048,-0.0416 -0.49745,-0.3379 -0.13311,-1.47559 -0.70534,-1.66048 -0.55895,-0.1806 -0.98783,0.63588 -1.48175,0.95382 -0.0882,-0.0448 -0.15159,0.0799 -0.0634,0.12473 z" />
    <path
       style="fill:#000000;fill-opacity:1;stroke-width:0;paint-order:stroke fill markers"
       id="path3874"
       d="m 192.69154,71.806474 c -0.52479,1.097372 -2.51346,0.415385 -2.91717,1.6726 -0.1763,0.549016 0.54827,1.138436 0.37562,1.688611 -0.95992,3.05894 -2.30147,-1.515002 -0.46758,2.688854 -0.8663,1.384364 -0.58619,0.808347 -1.21429,2.33294 -0.17642,0.42822 -0.47981,0.828564 -0.51526,1.290344 -0.0358,0.466855 0.49788,0.940464 0.31106,1.369809 -1.23393,2.835865 -2.14402,-0.283337 -0.86251,2.549646 -0.12212,0.418979 -0.57768,0.875102 -0.36636,1.256938 0.30994,0.560027 1.2403,0.510058 1.6267,1.020347 0.76953,1.016278 -0.78551,1.477663 -0.53985,2.39205 0.90488,3.368011 1.6299,-1.497507 0.85715,1.975176 0.0496,0.786185 1.10431,1.097608 1.24239,1.818685 0.0714,0.372742 -0.31394,0.719425 -0.29879,1.098637 0.0136,0.340169 0.34058,0.609687 0.38057,0.947772 0.0386,0.325855 -0.13919,0.644541 -0.15339,0.972362 -0.013,0.299014 0.0483,0.596638 0.0725,0.894956 -0.72995,0.739343 0.48201,1.296821 0.35042,1.940965 -0.0728,0.356604 -1.57957,1.287274 -1.7657,1.522144 -0.21268,0.2684 -0.22811,0.6495 -0.39603,0.94796 -0.16655,0.296 -0.40032,0.54878 -0.60048,0.82318 0.0772,-0.12081 -0.0936,-0.23 -0.17085,-0.1092 v 0 c 1.19144,-2.39081 -0.64218,0.75452 1.84899,-1.35476 0.2644,-0.22386 0.12125,-0.70145 0.30989,-0.99203 0.21603,-0.33278 0.73033,-0.44445 0.86493,-0.817673 0.21458,-0.595008 -0.52435,-1.560105 -0.77128,-1.964494 0.15327,-0.302813 0.44046,-0.569598 0.4598,-0.908434 0.0375,-0.657521 -0.77863,-1.17729 -0.64665,-1.866953 0.0233,-0.395197 0.51041,-0.729982 0.41273,-1.113628 -0.82947,-3.257966 -1.28759,1.438481 -0.73817,-1.934827 -0.061,-0.341172 -0.19293,-0.677066 -0.18314,-1.023519 0.0198,-0.700789 0.56504,-1.526709 0.11276,-2.252036 -0.25674,-0.411728 -0.82432,-0.545253 -1.11961,-0.930264 -0.89448,-1.16622 -0.39475,-1.264632 0.25884,-2.365166 -0.41272,-0.423021 -1.21123,-0.678677 -1.23816,-1.269066 -0.0256,-0.560393 0.89522,-0.740757 1.12308,-1.253371 0.32983,-0.742005 -0.23398,-2.044872 -0.22729,-2.742253 0.004,-0.452329 0.12427,-0.902287 0.27428,-1.329036 0.14606,-0.415489 0.40379,-0.782823 0.60567,-1.174231 -0.17959,-0.551866 -0.79356,-1.134158 -0.53878,-1.655596 0.27696,-0.56683 1.18548,-0.450871 1.72655,-0.775296 0.0723,-0.04338 1.93723,-1.580716 2.01516,-1.793999 0.14079,-0.385342 -0.20814,-0.819788 -0.13456,-1.223394 0.0402,-0.220474 0.29924,-0.3337 0.44886,-0.500552 -0.1031,0.132914 0.0849,0.278715 0.18797,0.145802 z" />
    <path
       style="fill:#000000;fill-opacity:1;stroke-width:0;paint-order:stroke fill markers"
       id="path3876"
       d="m 94.532764,62.851521 c 1.13044,0.574001 1.471512,1.870414 2.38507,2.680428 0.461336,0.409048 1.235525,0.496861 1.530959,1.038037 2.536227,4.645858 -2.784372,-0.407757 1.711247,3.317727 0.32874,0.889344 1.01272,3.130698 1.83535,3.77118 0.67275,0.523785 1.67433,0.448617 2.38927,0.913162 2.43698,1.58347 0.29196,1.149903 1.91658,3.082446 0.35237,0.419163 0.94193,0.558773 1.41289,0.83816 3.41503,1.663978 -0.48826,-0.02222 3.78802,1.025171 0.72226,0.176903 1.42594,0.4495 2.08421,0.795382 0.69249,0.363858 1.20216,1.061641 1.94071,1.319467 3.18481,0.286842 1.70686,-0.08147 4.45756,1.004887 2.3008,0.464511 1.46807,0.186735 3.52304,0.999265 0.49183,0.194474 0.94258,0.540531 1.46783,0.602483 0.62194,0.07336 1.27869,-0.423542 1.8671,-0.209124 0.51473,0.187574 0.69567,0.84651 1.0435,1.269767 0.55116,0.127151 1.10232,0.254304 1.65347,0.381455 0.50847,0.273317 1.01694,0.546637 1.52542,0.819954 0.66676,0.121201 1.39446,0.05989 2.00028,0.363599 0.55098,0.276214 0.85815,0.886216 1.31594,1.29889 0.42967,0.387331 0.89568,0.732335 1.34353,1.098502 0.16492,0.147561 0.3736,-0.08567 0.20868,-0.233233 v 0 c -0.57926,-0.212876 -1.23967,-0.274272 -1.73777,-0.638625 -0.50719,-0.371001 -0.70926,-1.049025 -1.16328,-1.483471 -1.12247,-1.074068 -1.76446,-1.157766 -3.17075,-1.692695 -0.54574,-0.15244 -1.09147,-0.304877 -1.63721,-0.457314 -0.4981,-0.176274 -0.98647,-0.382903 -1.49429,-0.52882 -0.51526,-0.148056 -1.04117,-0.26016 -1.56944,-0.351523 -0.55221,-0.0955 -1.13619,-0.03246 -1.66825,-0.208426 -1.1436,-0.378221 -1.99926,-1.410123 -3.15033,-1.770102 -0.88924,0.207222 -1.75725,0.690552 -2.66771,0.621665 -0.76965,-0.05823 -1.36357,-0.74145 -2.09693,-0.982167 -0.78081,-0.256297 -1.6205,-0.286534 -2.41445,-0.498663 -0.7439,-0.198753 -1.46107,-0.486659 -2.191,-0.731817 -2.52635,-0.848518 -1.41858,-0.296248 -3.45126,-1.6345 -0.9793,-0.645298 -1.91004,-1.118484 -2.57848,-2.144445 -0.35827,-0.549892 -0.42619,-1.25458 -0.77768,-1.808827 -0.37219,-0.58688 -0.87942,-1.078984 -1.36746,-1.573726 -1.64336,-1.665946 -1.62258,-1.462426 -3.691176,-2.647696 -0.416427,-1.715415 -0.301746,-2.125403 -1.431613,-3.49368 -0.369829,-0.447865 -0.95451,-0.698211 -1.287528,-1.174086 -0.283043,-0.40446 -0.371835,-0.916646 -0.507696,-1.391242 -0.115009,-0.401754 0.0164,-0.902081 -0.24267,-1.229966 -0.229987,-0.29106 -0.693807,-0.262816 -1.04071,-0.394221 -0.02598,-0.04453 -0.08895,-0.0078 -0.06297,0.03674 z" />
    <path
       style="fill:#000000;fill-opacity:1;stroke-width:0;paint-order:stroke fill markers"
       id="path3878"
       d="m 23.205001,71.879298 c 0.293069,-0.08426 0.64266,-0.06033 0.879205,-0.252775 0.368655,-0.299924 0.439471,-0.899618 0.843957,-1.149123 0.944001,-0.582303 3.237513,-0.529042 4.124275,-1.001535 0.676711,-0.360571 1.06181,-1.111104 1.651156,-1.601639 0.605573,-0.504039 1.282348,-0.915795 1.923523,-1.373693 0.746795,-0.339058 1.575578,-0.536874 2.240389,-1.017177 0.607189,-0.438672 0.965372,-1.147826 1.492694,-1.679843 0.632653,-0.638286 2.224172,-1.968531 2.961423,-2.562595 0.44876,-0.361606 0.877671,-0.752946 1.363062,-1.063657 0.529307,-0.338823 1.112605,-0.58479 1.668907,-0.877186 1.010317,-0.778963 0.0822,-2.556484 0.915257,-3.369046 0.558462,-0.544724 1.772084,-0.11208 2.215666,-0.753827 0.426574,-0.617143 -0.420643,-1.549609 -0.142034,-2.24618 0.01931,-0.04827 2.900402,-2.223158 2.971335,-2.276906 0.37225,-0.403347 0.7445,-0.806696 1.116753,-1.210043 0.577011,-0.163216 1.266539,-0.110402 1.731036,-0.489646 1.2167,-0.993386 -0.288345,-1.845201 1.655096,-2.259938 7.763275,-1.65671 -3.210504,2.218216 3.871127,-0.479076 0.222694,-0.116006 0.05863,-0.430945 -0.16406,-0.314939 v 0 c -0.626446,0.212747 -1.296469,0.32525 -1.879336,0.638239 -0.433922,0.233008 -0.727472,0.665549 -1.114925,0.969624 -0.354542,0.278243 -0.712316,0.55908 -1.107966,0.774903 -0.434343,0.236932 -0.963279,0.291267 -1.368066,0.57576 -0.40518,0.284771 -0.670885,0.728684 -1.006326,1.093023 -0.472882,0.313521 -0.945764,0.627041 -1.418643,0.940559 -4.284737,2.436882 0.54465,-0.84007 -2.138826,2.801319 -0.3928,0.533019 -1.184748,0.621321 -1.677913,1.063127 -0.450308,0.40341 -0.823159,0.902219 -1.109991,1.434428 -0.280821,0.521057 -0.115953,1.301655 -0.56956,1.681922 -0.551982,0.462738 -1.393502,0.365234 -2.090254,0.547852 0.191588,4.796017 0.676008,-0.08126 -1.899203,2.663213 -0.478075,0.509503 0.0071,1.530903 -0.468069,2.043102 -0.52714,0.568201 -1.520655,0.402074 -2.179354,0.810543 -0.635839,0.394293 -1.083212,1.032322 -1.624819,1.548485 -0.678789,0.415412 -1.35758,0.830823 -2.036371,1.246235 -0.754989,0.328266 -1.57616,0.533897 -2.264969,0.984798 -2.443101,1.599276 -0.768037,1.594133 -3.417837,2.748531 -0.598217,0.260615 -1.333378,0.125963 -1.90902,0.433242 -3.004434,1.603774 0.867634,0.808831 -1.892515,1.219152 0.169163,-0.102391 0.02436,-0.341624 -0.144804,-0.239233 z" />
    <path
       style="fill:#000000;fill-opacity:1;stroke-width:0;paint-order:stroke fill markers"
       id="path3880"
       d="m 35.257517,175.49268 c 0.219369,0.0885 0.482449,0.10719 0.658112,0.26565 0.27601,0.24897 0.429942,0.60649 0.644911,0.90973 0.529841,0.12161 1.110697,0.10746 1.589521,0.36484 0.492834,0.26491 0.713515,0.92042 1.224709,1.14789 3.975481,1.76903 0.387707,-1.42542 3.343754,1.66074 6.751174,-1.00676 -0.950807,-0.67724 3.336419,1.65639 0.666711,0.3629 1.493968,-0.30521 2.252462,-0.33503 0.606004,-0.0238 1.267984,-0.0949 1.810951,0.17529 4.027792,2.00419 -1.905357,0.98132 2.915983,1.49 3.754351,1.48452 -0.725336,-0.0904 3.594153,0.74376 0.64996,0.12551 1.252236,0.42985 1.880346,0.63884 0.684962,0.22791 1.428391,0.32014 2.058797,0.67185 0.656704,0.36638 1.009095,1.24173 1.733415,1.44386 0.939938,0.2623 1.949337,-0.0961 2.924003,-0.14415 2.32101,0.0818 1.43191,3.05071 2.812733,3.8228 0.801701,0.44827 1.875157,-0.37048 2.753646,-0.10229 0.594264,0.18142 0.853196,0.90393 1.296934,1.33886 0.394671,0.38684 0.811562,0.75034 1.21734,1.12551 0.0099,0.0103 0.02445,-0.004 0.01453,-0.014 v 0 c -0.171469,-0.62316 -0.03443,-1.43663 -0.514406,-1.86948 -0.533,-0.48067 -1.446464,-0.18416 -2.097606,-0.48607 -0.626213,-0.29036 -1.00775,-0.99808 -1.649809,-1.25147 -6.507554,-2.56829 1.075579,1.90332 -4.486381,-1.64446 -0.620212,-0.46322 -1.255249,-0.90723 -1.860637,-1.38967 -0.595397,-0.47447 -1.014979,-1.24706 -1.739919,-1.47962 -0.805913,-0.25853 -1.701572,0.24445 -2.536814,0.10766 -0.64448,-0.10553 -1.137701,-0.7064 -1.781694,-0.81486 -5.171305,-0.87098 0.549683,1.31007 -3.69907,-0.52545 -0.825157,-0.59188 -1.793389,-1.46024 -2.884215,-1.56732 -0.682898,-0.067 -1.371209,0.36392 -2.045113,0.23472 -0.578139,-0.11084 -0.933842,-0.79423 -1.509726,-0.91623 -0.733107,-0.15531 -1.593596,0.49146 -2.244892,0.12081 -0.616407,-0.3508 -0.611155,-1.28007 -0.916733,-1.9201 -5.026824,0.75976 -0.739849,0.89015 -3.690046,-1.13171 -0.507201,-0.3476 -1.230699,-0.19922 -1.784958,-0.46544 -0.433536,-0.20824 -0.78544,-0.56745 -1.108065,-0.92414 -0.252108,-0.27874 -0.220377,-0.92125 -0.5944,-0.95811 -0.570364,-0.0562 -1.032446,0.49795 -1.548667,0.74693 0.513715,0.44578 1.144154,-0.28072 0.630436,-0.72651 z" />
    <path
       style="fill:#000000;fill-opacity:1;stroke-width:0;paint-order:stroke fill markers"
       id="path3894"
       d="m 178.19376,85.568519 c -0.11671,0.148802 -0.26344,0.278334 -0.35014,0.4464 -0.12655,0.245319 -0.0751,0.595799 -0.28184,0.778676 -0.13045,0.115375 -0.37072,0.02201 -0.51751,-0.07169 -0.35151,-0.224411 -1.00065,-1.331595 -1.72479,-0.913905 -0.30434,0.175548 -0.38129,0.590238 -0.57194,0.885357 -1.0144,0.496668 -1.94513,-0.308293 -2.99634,0.03097 -0.27045,0.08728 -0.42967,0.406966 -0.70411,0.480708 -1.54489,0.415105 -0.28954,-0.611325 -1.26922,0.353965 0.87354,1.146537 -1.10085,0.362762 -0.99992,0.7357 0.0747,0.275871 0.69869,0.133337 0.75059,0.414375 0.23841,1.290952 -2.05789,-0.06414 0.3427,0.996674 -0.13297,0.355431 -0.37362,0.687647 -0.39891,1.066292 -0.10074,1.50807 0.69788,1.073645 1.86966,1.596486 0.44985,0.200715 1.14666,0.265951 1.27889,0.740468 0.73697,2.644748 -2.47417,1.365118 1.02885,2.151541 0.20215,0.2745 0.4043,0.548997 0.60645,0.823497 0.3655,0.112284 0.82637,0.06625 1.0965,0.336855 0.19914,0.19949 -0.1114,0.634994 0.0801,0.841819 0.18823,0.203285 0.68275,-0.109164 0.82074,0.131072 0.21706,0.377904 -1.07397,1.560806 -1.09129,1.579271 0.42074,-0.14456 0.81979,-0.387037 1.26222,-0.433686 0.0995,-0.01048 0.0906,0.200332 0.0571,0.294582 -0.04,0.112643 -0.18038,0.159377 -0.25233,0.254844 -0.0576,0.07647 -0.0609,0.191024 -0.132,0.255143 -0.10182,0.09181 -0.26959,0.09226 -0.36379,0.191873 -0.0642,0.0679 -0.049,0.180377 -0.0735,0.270563 0.86248,0.579121 -0.67928,0.297321 -0.52548,0.477081 0.29084,0.33992 0.96589,0.14499 1.24884,0.4915 0.13976,0.17114 -0.40807,0.18997 -0.56686,0.34363 -0.15426,0.14927 -0.37737,0.3291 -0.34814,0.54177 0.0319,0.23189 0.32769,0.33434 0.49154,0.5015 -0.10361,0.26552 -0.40313,0.5269 -0.31081,0.79655 0.17344,0.50661 1.53561,0.46243 1.76827,0.52994 0.1838,0.0533 0.31882,0.2118 0.47823,0.31771 -0.26933,-0.39302 -0.82513,-0.0121 -0.5558,0.3809 v 0 c -0.20652,-1.62372 0.24184,0.4398 -0.85264,-0.87774 -0.14529,-0.1749 0.0964,-1.17801 0.12692,-1.33382 0.009,-0.16782 0.14398,-0.38251 0.0273,-0.50348 -0.2133,-0.22115 -0.5951,-0.18318 -0.85206,-0.35163 -0.29549,-0.19371 -0.3185,-0.53685 -0.49364,-0.8025 -0.41936,-0.636104 -0.34177,-0.15087 -0.35256,-0.743273 3.60207,0.23356 0.44223,0.307501 0.83562,-0.311002 0.12259,-0.192739 0.44731,-0.09279 0.67097,-0.139187 -0.10103,-0.09438 -0.31152,-0.14515 -0.30309,-0.283149 0.01,-0.156033 0.44387,-0.205936 0.34012,-0.322876 -0.13463,-0.151768 -0.40552,0.01373 -0.60829,0.02058 0.0378,-0.144089 0.13586,-0.284988 0.11348,-0.432271 -0.14161,-0.932037 -1.52294,0.102841 -1.78129,0.01259 -0.28878,-0.100872 -0.0356,-0.611833 -0.022,-0.917426 0.0732,-1.643505 0.34675,-0.662856 -0.32976,-2.07258 -0.51357,-0.130841 -1.08932,-0.114829 -1.54071,-0.392527 -1.37637,-0.846744 -0.38394,-1.28229 -0.6866,-2.524723 -0.0941,-0.386451 -0.4771,-0.639191 -0.67297,-0.985367 -0.83014,-1.467112 0.12345,-0.44401 -1.08055,-1.523309 -0.0923,-0.188916 -0.18469,-0.377831 -0.27703,-0.566746 0.14997,-0.156972 0.51453,-0.263657 0.44991,-0.47091 -0.07,-0.224415 -0.47621,-0.09077 -0.66759,-0.227254 -1.1054,-0.788342 -0.0675,-0.368734 0.10548,-0.539247 0.13948,-0.137493 0.0998,-0.37878 0.14971,-0.568169 1.12921,-0.949867 -0.44767,0.130389 1.61762,0.294685 0.28426,0.02262 0.40399,-0.425744 0.66723,-0.53539 0.29388,-0.122412 0.62934,-0.175275 0.9453,-0.136279 1.7687,0.218298 0.66409,0.915573 1.86606,-0.294216 0.64339,-0.497308 0.62669,-0.677855 1.45674,-0.622761 0.24252,0.01609 0.46389,0.163677 0.70632,0.181126 0.16044,0.01154 0.35813,-0.208999 0.47287,-0.09626 0.19807,0.19463 0.0405,0.605224 0.2408,0.797526 0.0985,0.09459 0.20375,-0.182015 0.30563,-0.273021 0.76214,0.195686 1.03888,-0.882153 0.27674,-1.077839 z" />
    <path
       style="fill:#000000;fill-opacity:1;stroke-width:0;paint-order:stroke fill markers"
       id="path3896"
       d="m 181.70511,149.94927 c -0.0765,0.45347 -0.35212,0.91713 -0.22966,1.36042 0.23157,0.83822 1.02339,1.45322 1.23964,2.29552 0.82853,3.22716 -0.2246,4.51542 -0.24948,7.87565 -0.0729,9.84963 1.43625,-0.24768 -0.57677,9.91114 0.26368,1.72429 1.0656,3.45027 0.79102,5.17286 -0.26727,1.67675 -1.62538,2.98443 -2.33702,4.52602 -0.61679,1.3361 -1.09587,2.73157 -1.64381,4.09736 -0.27823,0.8631 0.94237,1.25658 1.22061,0.39349 v 0 c 0.55597,-1.40913 1.24633,-2.77239 1.66792,-4.22738 0.45457,-1.56877 0.63324,-3.20463 0.94986,-4.80695 0.55147,-1.67991 1.10295,-3.35983 1.65443,-5.03974 -0.52747,-1.72759 -1.46111,-3.38052 -1.5824,-5.18276 -0.11157,-1.65784 0.82732,-3.24234 0.90368,-4.90218 0.0667,-1.45076 -0.45782,-2.87833 -0.47897,-4.33047 -0.0174,-1.19265 0.60469,-2.3915 0.36403,-3.55974 -0.18527,-0.89937 -1.04296,-1.51162 -1.56445,-2.26744 -0.0683,-0.43547 -0.1366,-0.87093 -0.2049,-1.3064 0.007,0.0539 0.0829,0.0445 0.0763,-0.009 z" />
    <g
       id="g4746"
       sodipodi:insensitive="true">
      <path
         style="display:inline;fill:#768f73;fill-opacity:1;stroke-width:0;paint-order:stroke fill markers"
         d="m 386.77366,394.79899 c -0.15074,-0.16381 -0.45178,-0.55179 -0.66899,-0.86217 -0.23186,-0.33134 -0.44404,-0.57051 -0.51389,-0.57929 -0.0654,-0.008 -0.38528,0.0907 -0.71077,0.21976 l -0.59178,0.23471 -0.16249,-0.31103 c -0.12441,-0.23815 -0.233,-0.34732 -0.4634,-0.46589 -0.26486,-0.1363 -0.40314,-0.15832 -1.15431,-0.1838 -0.8383,-0.0284 -0.85847,-0.0325 -1.13945,-0.22969 -0.15733,-0.11042 -0.59183,-0.38099 -0.96555,-0.60128 -0.37373,-0.22028 -0.83652,-0.54321 -1.02843,-0.71761 -0.43137,-0.39202 -0.43051,-0.39437 0.39232,-1.07098 0.63165,-0.5194 0.84533,-0.7829 0.84533,-1.0424 0,-0.20807 -0.41143,-0.82352 -0.80593,-1.20557 l -0.3198,-0.30971 0.69023,-0.70637 c 0.54545,-0.5582 0.73143,-0.79576 0.8866,-1.13247 0.108,-0.23436 0.20114,-0.43313 0.20699,-0.44173 0.006,-0.009 0.40335,-0.0874 0.88333,-0.17506 1.22384,-0.22359 1.16508,-0.19528 0.8931,-0.43039 -0.12483,-0.10791 -0.54214,-0.37913 -0.92735,-0.60271 -1.45594,-0.84504 -1.7397,-1.05778 -2.04603,-1.53388 -0.43487,-0.67588 -0.43876,-0.82084 -0.0345,-1.28673 l 0.24483,-0.28217 1.08915,-0.0416 c 1.25839,-0.048 2.45434,-0.18736 2.59249,-0.30201 0.29585,-0.24553 -0.0884,-1.0758 -0.93771,-2.02636 -0.70574,-0.78984 -0.73771,-0.90963 -0.30226,-1.13272 0.13647,-0.0699 0.36074,-0.1028 0.70094,-0.1028 0.57113,0 0.67007,0.0575 0.73111,0.42527 0.0681,0.41036 0.10458,0.4323 0.18952,0.11407 0.13297,-0.49818 0.10861,-0.49073 1.25278,-0.383 3.76203,0.35422 5.40941,0.86475 7.15551,2.21755 1.6491,1.27764 2.34525,2.49392 2.7463,4.79824 0.15885,0.9127 0.26794,0.8088 -1.01608,0.96769 -1.72916,0.21397 -2.72395,0.50076 -3.51863,1.01439 -0.59072,0.3818 -0.57712,0.56885 0.10837,1.49044 0.48632,0.65382 0.63562,0.93258 0.63562,1.18682 0,0.34006 -0.12564,0.50875 -0.69421,0.93208 -0.33298,0.24793 -0.58507,0.48748 -0.64426,0.6122 -0.13124,0.27657 -0.22573,0.70612 -0.22759,1.03458 -10e-4,0.24851 -0.0438,0.31895 -0.51884,0.86209 -0.28452,0.3253 -0.64913,0.82429 -0.81025,1.10886 -0.62619,1.10601 -0.54744,1.02124 -1.05515,1.13589 -0.6444,0.14553 -0.67974,0.13853 -0.98687,-0.19524 z"
         id="path2140"
         transform="scale(0.26458333)" />
      <path
         style="display:inline;fill:#768f73;fill-opacity:1;stroke-width:0;paint-order:stroke fill markers"
         id="path4695"
         d="m 101.14767,99.858203 c 0.5559,0.01348 1.11425,0.06243 1.66632,0.150127 0.55261,0.1143 0.97329,0.31329 1.41148,0.7607 0.31457,0.34832 0.4182,0.82514 0.46687,1.33455 0.007,0.0748 0.0893,0.0616 0.0821,-0.0135 v 0 c -0.052,-0.53753 -0.16541,-1.03872 -0.49767,-1.40507 -0.45139,-0.45915 -0.88421,-0.66605 -1.45271,-0.782899 -0.55544,-0.08781 -1.11713,-0.13824 -1.67643,-0.150908 -0.0584,0 -0.0584,0.106618 0,0.106618 z" />
      <path
         style="fill:#000000;fill-opacity:1;stroke-width:0;paint-order:stroke fill markers"
         id="path3884"
         d="m 101.58899,99.761351 c -0.15811,0.223634 -0.70094,-0.382331 -0.66001,-0.15971 0.0757,0.411779 0.59445,0.644549 0.68385,1.053579 0.0317,0.14502 -0.27972,0.10074 -0.42338,0.13811 -0.27021,0.0703 -0.87114,-0.0893 -0.81701,0.1846 0.0875,0.44285 0.68517,0.5879 1.02776,0.88186 -3.843474,0.73239 -1.39667,-0.16518 -0.7214,1.05057 0.12678,0.22826 -0.48303,0.39823 -0.43099,0.6541 0.13053,0.64178 1.02826,0.23025 1.31201,0.46412 0.16526,0.1362 0.11699,0.41201 0.17548,0.61801 0.18369,-0.0265 1.22441,-0.10943 1.40146,-0.36736 0.16114,-0.23474 0.0363,-0.57878 0.14562,-0.84166 0.0702,-0.16877 0.35475,-0.22089 0.37203,-0.40285 0.0234,-0.24592 -0.46945,-0.5477 -0.26814,-0.69086 0.51295,-0.36478 1.22632,-0.28439 1.83948,-0.42658 0.009,-0.228 -0.31338,-0.24081 -0.32244,-0.0128 v 0 c -0.088,0.29027 -0.17286,0.58149 -0.26396,0.8708 -0.0814,0.25851 -0.0333,0.61445 -0.2535,0.77253 -0.254,0.18239 -0.63945,-0.0226 -0.93464,0.0806 -0.19121,0.0669 -0.3134,0.25822 -0.45341,0.40461 -0.16291,0.17034 -0.21742,0.5329 -0.4529,0.54304 -0.24007,0.0103 -0.34539,-0.33416 -0.51809,-0.50123 -0.23492,0.0629 -0.464,0.22287 -0.70476,0.18859 -0.16716,-0.0238 -0.23876,-0.24043 -0.37356,-0.34211 -0.3043,-0.22956 -0.93236,-0.408 -0.79563,-0.98785 0.10595,-0.44931 0.805,-0.62006 0.71154,-1.18811 -0.45942,-0.83939 -0.61566,-0.57165 -0.008,-1.14007 0.10647,-0.0996 0.27086,-0.14761 0.33878,-0.27661 0.0654,-0.12413 -0.0962,-0.354608 0.028,-0.419931 0.62543,-0.329083 0.35979,0.495501 0.48194,0.02151 0.11946,-0.08219 0.003,-0.251137 -0.11624,-0.168944 z" />
    </g>
    <g
       id="g4948"
       sodipodi:insensitive="true">
      <path
         style="display:inline;fill:#768f73;fill-opacity:1;stroke-width:0;paint-order:stroke fill markers"
         d="m 273.07518,190.67998 c -0.41384,-0.0869 -0.96088,-0.19448 -1.21562,-0.23897 l -0.46319,-0.0809 0.18102,-0.51305 c 0.29313,-0.83083 0.224,-1.23472 -0.43187,-2.52293 l -0.61288,-1.20378 0.69073,-0.95779 c 1.40713,-1.9512 1.25142,-3.09545 -0.52122,-3.83016 l -0.66257,-0.27462 0.42048,-0.69829 c 0.68872,-1.14373 0.62609,-1.39454 -0.65623,-2.62764 -1.3999,-1.34617 -2.90412,-2.51455 -4.00229,-3.10872 -0.48282,-0.26123 -0.89329,-0.48542 -0.91216,-0.49819 -0.0189,-0.0128 0.004,-0.12234 0.0502,-0.24347 0.2233,-0.5819 2.01874,0.21783 3.60773,1.60697 0.38218,0.33412 0.75452,0.5876 0.82742,0.5633 0.0729,-0.0243 -0.4473,-0.50643 -1.156,-1.07139 -0.70869,-0.56497 -2.19147,-1.83721 -3.29506,-2.82721 -1.64311,-1.47399 -2.20441,-2.07136 -3.09915,-3.29831 -0.94032,-1.28946 -1.09274,-1.56825 -1.09333,-1.99996 -3.8e-4,-0.27589 0.0822,-0.61117 0.18343,-0.74506 0.20964,-0.27717 0.22985,-0.99965 0.0511,-1.82579 -0.0672,-0.31039 -0.17542,-1.36955 -0.24056,-2.35371 -0.13782,-2.08204 -0.28743,-2.50142 -1.09901,-3.08076 -0.78277,-0.55877 -4.17072,-3.89834 -4.17072,-4.11116 0,-0.0968 0.19959,-0.7398 0.44354,-1.42883 0.40671,-1.14876 0.44068,-1.35213 0.40899,-2.44903 -0.0311,-1.0782 -0.007,-1.23148 0.24626,-1.55323 0.36883,-0.46889 0.58593,-1.21778 0.47786,-1.64837 -0.0476,-0.18965 -0.28273,-0.541 -0.52252,-0.78079 l -0.43597,-0.43597 0.20722,-0.62388 0.20722,-0.62388 -0.94128,-0.95809 c -1.04183,-1.06044 -1.21999,-1.33379 -1.21999,-1.87186 0,-0.56696 0.47127,-1.14052 1.72221,-2.09601 1.42505,-1.08847 1.98006,-1.62173 2.17319,-2.08798 0.22573,-0.54495 -0.13444,-1.34425 -1.04371,-2.31626 l -0.75599,-0.80816 0.28053,-0.29861 c 0.35606,-0.37901 0.85926,-1.75582 0.96238,-2.63315 0.12738,-1.08381 -0.0303,-1.76964 -0.51914,-2.25851 -0.31403,-0.31404 -0.38531,-0.45609 -0.27386,-0.54583 0.0829,-0.0667 0.93672,-0.35985 1.89746,-0.65141 2.59988,-0.78897 2.78846,-0.88477 2.88674,-1.46651 0.14524,-0.85965 0.104,-0.84963 1.96459,-0.47716 0.92332,0.18485 2.49705,0.5234 3.49718,0.75235 2.20025,0.50368 2.33859,0.52735 2.36546,0.40464 0.0116,-0.0532 -0.5352,-0.51574 -1.21521,-1.02798 -1.83765,-1.38429 -3.07999,-2.81701 -3.97263,-4.58143 -0.39256,-0.77593 -0.93985,-2.31461 -0.93985,-2.64232 0,-0.49069 0.51481,-1.85959 0.72378,-1.92456 0.11923,-0.0371 0.82874,-0.15272 1.5767,-0.25701 1.56232,-0.21782 1.99019,-0.41331 3.67612,-1.67957 1.34279,-1.00853 1.45894,-1.2951 0.61144,-1.50851 -0.64271,-0.16183 -1.0701,-0.51713 -1.0701,-0.88959 0,-0.35265 0.39705,-0.42102 2.50815,-0.43192 1.57945,-0.008 1.88433,0.0236 2.32004,0.24142 0.43149,0.21575 0.50146,0.30781 0.50042,0.65839 -6.3e-4,0.22417 0.0518,0.40758 0.11666,0.40758 0.21857,0 1.68146,-1.01731 1.76977,-1.23071 0.32257,-0.77952 0.25113,-1.9648 -0.13787,-2.28764 -0.30619,-0.25412 -0.20403,-0.41493 0.58758,-0.92501 3.32251,-2.14083 5.27344,-4.05638 7.48065,-7.34496 0.48609,-0.72423 1.04415,-1.46793 1.24015,-1.65266 0.91348,-0.860969 2.98719,-1.421463 4.94271,-1.335945 1.18052,0.05163 1.41392,0.227562 1.2943,0.975635 -0.0675,0.4224 -0.0461,0.50808 0.12693,0.50808 0.44377,0 1.05344,-0.3794 1.98963,-1.238155 0.5359,-0.491578 1.02682,-0.893778 1.09093,-0.893778 0.17205,0 0.707,0.741257 0.99812,1.383053 0.3264,0.71955 0.32622,1.59429 -5e-4,2.62999 -0.31764,1.00684 -0.24599,1.79005 0.18987,2.07564 0.85163,0.558 2.37223,0.30459 5.04956,-0.84154 l 1.78113,-0.76248 0.4135,0.24396 c 0.48714,0.2874 0.48842,0.37147 0.0368,2.41961 -0.15971,0.72423 -0.27069,1.33686 -0.24662,1.36141 0.0241,0.0245 0.28703,-0.12664 0.58437,-0.33596 0.69273,-0.48766 1.36862,-0.67747 2.23212,-0.62686 l 0.68825,0.0403 0.72203,1.00326 c 1.36629,1.89846 1.692,2.54258 1.84127,3.6412 0.10871,0.80009 0.19646,1.0524 0.44089,1.26776 0.64415,0.56752 2.64175,0.49351 3.87644,-0.14362 0.33399,-0.17235 0.62369,-0.31337 0.64377,-0.31337 0.0201,0 0.0692,0.12508 0.10918,0.27795 0.0417,0.15936 -0.0855,0.73156 -0.29813,1.3412 -0.27112,0.77743 -0.33103,1.08785 -0.22282,1.15472 0.1095,0.0677 0.0865,0.22772 -0.0883,0.61542 -0.21476,0.47625 -0.21901,0.55418 -0.0466,0.85602 0.17464,0.30578 0.16916,0.3602 -0.0691,0.68727 l -0.25876,0.35519 0.52512,0.45996 c 0.42062,0.36842 1.03314,1.37495 0.88709,1.45772 -0.53935,0.30566 -0.76015,0.55912 -1.05027,1.20559 -0.24163,0.53842 -0.50593,0.88984 -0.8895,1.18272 -0.49446,0.37755 -0.58727,0.40522 -0.98807,0.29456 -0.2433,-0.0672 -0.5494,-0.10452 -0.68024,-0.083 -0.2314,0.0381 -0.23173,0.0528 -0.012,0.5408 l 0.22588,0.50163 -0.38863,0.54773 c -0.21374,0.30125 -0.50149,0.58817 -0.63944,0.63759 -0.22456,0.0804 -1.0756,0.23437 -2.49567,0.45138 -0.30608,0.0468 -0.62916,0.21476 -0.86327,0.44887 -0.34972,0.34972 -0.3697,0.42069 -0.30628,1.08809 0.0373,0.39269 0.10733,0.81273 0.1556,0.93344 0.0724,0.18104 0.0188,0.21946 -0.30592,0.21946 -0.83842,0 -1.2186,0.2888 -1.6912,1.28472 -0.41012,0.86425 -1.46255,2.08344 -1.93418,2.24065 -0.12387,0.0413 -0.1308,0.13575 -0.0295,0.40223 0.20369,0.53574 -0.10854,1.10841 -1.12712,2.06724 -0.98236,0.92472 -1.247,1.32694 -1.247,1.89525 0,0.47787 0.55151,1.12322 1.29858,1.51954 l 0.55479,0.29431 -0.54265,0.54265 c -0.67424,0.67424 -1.37543,1.81283 -1.57429,2.55632 -0.13882,0.51905 -0.11817,0.66212 0.26157,1.81235 0.74313,2.2509 1.38599,3.44344 1.85623,3.44344 0.14014,0 0.16081,0.10456 0.093,0.47028 -0.0877,0.4726 -0.2529,0.72968 -1.33766,2.08114 -0.32359,0.40315 -0.62376,0.87411 -0.66705,1.04658 -0.18238,0.72665 1.19375,2.49066 2.75376,3.52995 l 0.87785,0.58483 -0.0161,0.74513 c -0.0135,0.62386 -0.0645,0.78319 -0.31352,0.97898 -1.31358,1.03289 -1.73958,1.49683 -1.73958,1.8945 0,0.39265 0.0329,0.41834 0.99154,0.77392 1.15052,0.42676 1.04341,0.18156 1.28587,2.94361 0.13808,1.57297 0.18633,1.77472 0.68055,2.8455 0.45757,0.99139 0.62108,1.21655 1.16973,1.61071 0.35079,0.25202 0.63708,0.52347 0.6362,0.60322 -8.8e-4,0.0797 -0.14196,0.5845 -0.31352,1.12168 -0.17155,0.53718 -0.31191,1.1106 -0.31191,1.27428 0,0.3974 0.58241,0.87057 1.40694,1.14304 0.70928,0.23439 1.17496,0.51852 1.28267,0.78261 0.0913,0.22394 -1.54085,0.98683 -2.48334,1.16072 -0.78882,0.14554 -1.41985,0.0879 -2.37768,-0.21703 -0.3321,-0.10575 -0.63373,-0.16234 -0.67029,-0.12578 -0.0366,0.0366 0.19101,0.46451 0.50572,0.951 0.60881,0.94113 1.02673,2.22257 0.89544,2.74566 -0.0587,0.23409 -0.114,0.27598 -0.22179,0.16819 -0.32276,-0.32276 -1.19255,-0.0208 -2.52828,0.87769 -1.05168,0.70744 -1.72989,1.38145 -2.5376,2.52187 -0.37873,0.53473 -0.80746,1.03586 -0.95274,1.11361 -0.25748,0.1378 -0.56185,0.12916 -3.32575,-0.0943 -1.56577,-0.12661 -1.75375,-0.008 -3.23556,2.03642 -2.10882,2.9099 -3.0902,4.60479 -3.29533,5.69115 -0.0744,0.39392 -0.48732,1.14426 -1.36746,2.48473 l -1.2609,1.9204 -0.1482,-0.44904 c -0.37756,-1.14403 -2.29612,-1.20945 -5.25108,-0.17905 -0.86369,0.30117 -1.49157,0.41367 -3.09043,0.55372 -2.36833,0.20745 -3.12549,0.20625 -4.13845,-0.007 z"
         id="path2148"
         transform="scale(0.26458333)" />
      <path
         style="fill:#768f73;fill-opacity:1;stroke-width:0;paint-order:stroke fill markers"
         id="path4691"
         d="m 72.314297,29.529735 c 0.651729,-0.314116 1.221043,-0.718696 1.753282,-1.158173 0.496474,-0.404987 0.825686,-0.911963 1.16798,-1.407467 0.144439,-0.292859 0.388061,-0.461945 0.731302,-0.581125 0.364884,-0.06386 0.755963,-0.120092 1.124535,-0.04937 0.160298,0.0503 0.201408,0.147885 0.242923,0.275116 0.01395,0.04187 0.08526,0.02546 0.0713,-0.01641 v 0 c -0.05069,-0.149014 -0.109537,-0.262644 -0.297858,-0.318631 -0.384356,-0.07115 -0.789907,-0.01795 -1.169549,0.05265 -0.356308,0.124806 -0.616003,0.302994 -0.766825,0.6072 -0.339002,0.490749 -0.664404,0.993244 -1.155977,1.394475 -0.528721,0.436798 -1.094501,0.838602 -1.74215,1.150614 -0.04353,0.0241 -0.0025,0.07522 0.04104,0.05112 z" />
      <path
         style="fill:#768f73;fill-opacity:1;stroke-width:0;paint-order:stroke fill markers"
         id="path4693"
         d="m 71.951945,50.607192 c 0.539975,0.01926 1.076389,-0.03499 1.612784,-0.08013 0.277748,-0.02111 0.141966,-0.01164 0.407323,-0.02865 0.06377,-0.0041 0.05719,-0.08325 -0.0066,-0.07917 v 0 c -0.266848,0.01712 -0.130385,0.0076 -0.409366,0.0288 -0.533532,0.0449 -1.067052,0.09906 -1.604155,0.07977 -0.06394,0 -0.06394,0.07937 0,0.07937 z" />
      <path
         style="fill:#000000;fill-opacity:1;stroke-width:0;paint-order:stroke fill markers"
         id="path3890"
         d="m 72.008047,29.372263 c -0.205018,0.01688 -0.49561,-0.116869 -0.615056,0.05061 -1.004533,1.408539 1.271489,0.290637 -0.588968,1.501421 -0.359143,0.23373 -1.252175,0.0498 -1.194758,0.474437 0.388697,2.874548 4.389917,2.842282 -1.418389,1.813468 0.459473,0.791678 -0.909404,1.250812 -0.76967,1.928791 0.105802,0.513332 0.792578,0.77596 0.90074,1.288799 0.08453,0.400814 -1.064842,0.780775 -1.056698,1.236496 0.0057,0.318042 0.386125,0.505613 0.579186,0.75842 -0.611646,1.801958 -0.05519,-0.301959 -0.03986,1.66615 0.0032,0.408278 -0.391051,0.841851 -0.208404,1.20701 0.241665,0.483153 1.032391,0.500243 1.297721,0.970815 0.160956,0.285461 0.03509,2.782369 0.02713,3.026619 0.765427,3.758766 -0.731157,-1.445215 2.654337,1.936723 0.33569,0.335339 -0.487487,0.866905 -0.476697,1.341269 0.0073,0.320132 0.37501,0.521522 0.525489,0.804177 0.388443,0.729633 0.301294,0.570452 0.05784,1.265407 -0.769475,0.231944 0.598474,0.780338 0.326694,0.75189 -0.758637,-0.0794 -1.026213,-0.375894 -1.497812,-0.7795 -0.347556,0.217086 -0.04055,0.708605 0.307004,0.491519 v 0 c 2.138305,1.525953 0.494395,0.486868 0.414319,-0.0035 -0.0723,-0.442764 2.026574,0.555668 1.202307,-0.604866 -1.345494,-0.302564 -1.43093,0.102375 -0.970159,-1.074029 0.150966,-0.385434 0.669174,-0.74817 0.512302,-1.131239 -0.189129,-0.461835 -1.036888,-0.331917 -1.288078,-0.763151 -2.416803,-4.149079 3.272993,1.547159 -1.147202,-2.450936 -2.562273,-3.592732 0.485786,1.216914 -0.817081,-2.75605 -0.25165,-0.767382 -1.461315,-1.134925 -1.368623,-2.129465 0.03821,-0.409959 0.671303,-0.64216 0.645554,-1.053089 -0.02127,-0.339601 -0.503074,-0.458301 -0.754613,-0.687454 -0.04271,-0.267041 -0.03449,-0.547423 -0.128146,-0.801126 -0.121089,-0.328028 -0.526383,-0.569418 -0.50665,-0.918525 0.04702,-0.83193 1.197345,-0.675228 1.424625,-1.306333 0.710684,-1.973405 -1.718818,-0.636148 1.139415,-1.633947 0.09768,-0.377254 0.207711,-0.751528 0.293047,-1.131766 0.225896,-1.006549 0.09496,-1.322996 0.751639,-2.136201 0.195445,-0.242036 0.407508,-0.559406 0.71614,-0.598466 2.880968,-0.364607 0.849548,0.812625 2.065493,0.02569 0.410163,-0.702948 -0.583959,-1.283005 -0.994121,-0.580057 z" />
      <path
         style="fill:#000000;fill-opacity:1;stroke-width:0;paint-order:stroke fill markers"
         id="path3892"
         d="m 77.18218,26.294467 c 0.0042,0.136017 -0.115332,0.454646 0.01251,0.40805 0.480565,-0.175133 0.75979,-0.776598 1.262184,-0.872595 0.204084,-0.039 0.08296,0.41497 0.05517,0.620878 -0.05401,0.40013 -0.386472,0.780362 -0.297458,1.174187 0.04607,0.203832 0.396123,0.208706 0.602234,0.174217 0.452662,-0.07575 0.857745,-0.326858 1.286618,-0.490286 0.820092,0.515919 0.592839,0.262903 1.164392,1.077169 0.152992,0.217961 0.314865,0.432417 0.434967,0.670092 0.114194,0.225986 0.01532,0.662839 0.263623,0.712385 1.426022,0.284538 1.501796,-1.30053 1.154379,0.408911 -0.05976,0.183978 -0.302458,0.40277 -0.179294,0.551937 0.154273,0.186843 0.523031,-0.03912 0.719648,0.102489 0.133339,0.09604 0.192947,0.352314 0.09445,0.483846 -0.143055,0.191032 -0.473279,0.127034 -0.661649,0.273576 -0.128995,0.100354 -0.132593,0.304287 -0.23976,0.427678 -0.120795,0.139089 -0.287692,0.230182 -0.431541,0.345271 -0.110887,0.14478 -0.221776,0.28956 -0.332663,0.43434 -0.197593,0.05985 -0.45412,0.02658 -0.59278,0.179543 -0.131498,0.145066 0.04424,0.442307 -0.09536,0.579591 -0.154273,0.151715 -0.454382,0.01775 -0.634288,0.137962 -0.147032,0.09825 -0.156221,0.319641 -0.26229,0.461134 -0.119671,0.159639 -0.273441,0.290608 -0.410162,0.435912 0.219707,0.28579 0.619268,0.499099 0.659117,0.857369 0.02588,0.232656 -0.341284,0.320516 -0.510067,0.482724 -0.206134,0.19811 -0.457139,0.359606 -0.614653,0.598202 -0.139632,0.211513 -0.328936,0.474882 -0.25349,0.716836 0.910461,2.919748 0.649597,-1.048382 0.713889,1.384371 0.01908,0.220906 0.01505,0.445037 0.05723,0.662721 0.04246,0.219204 0.152257,0.421648 0.195257,0.640746 0.170733,0.869942 -0.0035,0.542587 0.01021,1.448806 0.0037,0.244432 0.05506,0.48583 0.07881,0.729136 0.0227,0.232682 0.04037,0.465828 0.06055,0.698741 0.09022,0.199353 0.180432,0.398706 0.27065,0.598059 0.187513,0.1638 0.454573,0.267049 0.562538,0.491405 0.07778,0.161615 -0.119827,0.3615 -0.06928,0.533585 0.05806,0.197697 0.546446,0.385956 0.371178,0.494292 -1.244793,0.769424 -1.827911,-0.461222 -1.150744,0.616762 0.364583,1.517367 0.359508,0.309727 -0.840806,0.969341 -0.295878,0.162594 -0.344892,0.640387 -0.655886,0.771776 -0.470718,0.198872 -1.214552,-0.255487 -1.525667,0.149892 -3.816509,4.972849 3.30132,-0.600583 -0.902161,2.443459 -0.327964,0.215162 -0.655928,0.430321 -0.983892,0.645483 -0.501248,0.007 -1.069639,-0.229577 -1.503744,0.02114 -0.306162,0.176816 -0.197535,0.678955 -0.296304,1.018434 0.198736,-0.183526 -0.06081,-0.464582 -0.259546,-0.281056 v 0 c 0.137396,-0.293264 0.108718,-0.766707 0.412187,-0.879793 2.847252,-1.061005 0.754126,1.4078 2.290551,-0.833371 1.169146,-1.687618 0.07125,-0.443902 1.848945,-1.566643 0.328025,-0.207169 0.604118,-0.48695 0.906177,-0.730425 0.214889,-0.260672 0.369771,-0.585652 0.64467,-0.782013 1.545736,-1.104124 0.381053,0.423421 1.182264,-0.769297 0.06797,-0.136655 0.0841,-0.315428 0.203928,-0.409966 0.229171,-0.180811 0.794716,-0.08334 0.791281,-0.37523 -0.0037,-0.311489 -0.616114,-0.230362 -0.801356,-0.480811 -0.102818,-0.139007 0.02005,-0.347668 0.06511,-0.514596 0.315225,-1.167919 0.251595,-0.06807 0.231132,-1.277229 -0.364992,-1.086358 -0.0084,-0.580189 -1.430014,-1.185545 -0.138817,-0.324884 0.6233,-0.508907 0.616518,-0.862142 -0.0057,-0.294661 -0.454699,-0.379748 -0.644691,-0.605049 -0.641956,-0.761259 -0.435166,-0.574373 0.119517,-1.367274 0.03126,-0.231476 0.09675,-0.460867 0.09379,-0.694425 -0.003,-0.233765 -0.180348,-0.469067 -0.111392,-0.692449 0.08136,-0.263552 0.605562,-0.377971 0.523073,-0.641171 -0.129641,-0.413639 -0.821097,-0.444941 -0.988759,-0.844682 -0.172323,-0.410858 0.87557,-0.712742 0.588659,-1.199988 0.20243,-0.109395 0.397647,-0.233347 0.607295,-0.328187 0.188854,-0.08543 0.501722,-0.02127 0.584899,-0.211143 0.07474,-0.170608 -0.517914,-1.05093 0.17668,-1.123574 0.36067,-0.03772 0.79479,0.470646 1.063858,0.22752 0.242668,-0.21927 -0.181668,-0.628385 -0.272502,-0.942578 0.348451,0.03211 0.729186,0.24629 1.04535,0.09633 0.253024,-0.12001 -0.08344,-0.986669 -0.148616,-1.098984 -0.05248,-0.09044 -0.257408,-0.112554 -0.229873,-0.213421 0.05077,-0.185947 0.382307,-0.224182 0.401696,-0.415954 0.01416,-0.139896 -0.222353,-0.172173 -0.333529,-0.25826 0.03975,-0.246131 0.285787,-0.552855 0.119245,-0.738394 -0.185483,-0.206642 -0.58166,0.06693 -0.831228,-0.05481 -0.210833,-0.102841 -0.300434,-0.361839 -0.427352,-0.559118 -0.147722,-0.229621 -0.139563,-0.619585 -0.394253,-0.717976 -1.552059,-0.599588 -1.373738,1.401437 -0.980591,-1.308214 -0.490418,0.23294 -0.947909,0.554305 -1.47125,0.698818 -1.001046,0.276423 -0.558924,-0.437052 -0.638868,-0.939866 -0.01495,-0.09406 -0.276175,-0.695025 -0.515594,-0.664784 -0.264572,0.03342 -0.479385,0.233776 -0.719076,0.350664 0.05266,0.06789 0.148672,-0.0066 0.09601,-0.07447 z" />
    </g>
    <g
       id="g2076">
      <path
         style="display:inline;fill:#768f73;fill-opacity:1;stroke-width:0;paint-order:stroke fill markers"
         d="m 519.7336,667.5698 c -1.42634,-0.50908 -3.27256,-1.49763 -5.52431,-2.95798 -2.39324,-1.55211 -6.33034,-4.50162 -6.19267,-4.63929 0.0505,-0.0505 0.21341,0.009 0.36208,0.13258 0.52286,0.43393 0.27983,-0.17264 -0.90769,-2.2655 -3.04085,-5.35915 -4.90758,-7.28329 -8.01644,-8.263 -1.54372,-0.48647 -3.92405,-0.81732 -5.8857,-0.81805 l -1.33527,-5.3e-4 -1.07723,-1.10846 c -0.59247,-0.60965 -2.17905,-2.3854 -3.52573,-3.94611 -3.30798,-3.83372 -3.51818,-4.04824 -7.94704,-8.11032 -2.36834,-2.17221 -4.09509,-3.90237 -4.45019,-4.45899 -2.04512,-3.20571 -2.57879,-4.0078 -3.42046,-5.14082 -0.58189,-0.7833 -0.94016,-1.44517 -0.94016,-1.73684 0,-1.32622 -2.08588,-6.04275 -3.62669,-8.20054 -0.61794,-0.8654 -2.57401,-3.3992 -4.34681,-5.63066 -2.99973,-3.77583 -3.33201,-4.26929 -4.79112,-7.11527 -1.8254,-3.56042 -3.04824,-6.33173 -3.47751,-7.88104 l -0.30438,-1.09857 0.72665,-1.20703 c 1.38605,-2.30237 1.37933,-3.45091 -0.0308,-5.2669 -0.76828,-0.9894 -0.77246,-1.00268 -0.80169,-2.54648 -0.0308,-1.62586 -0.1,-2.2548 -0.39799,-3.61938 -0.17863,-0.8178 -0.16846,-0.84765 1.02198,-3.00083 l 1.2024,-2.17481 -0.89794,-0.81227 c -0.82226,-0.7438 -0.90683,-0.89448 -1.00342,-1.78771 -0.058,-0.53649 -0.0625,-0.87568 -0.01,-0.75375 0.0526,0.12193 0.17072,0.22169 0.26255,0.22169 0.27858,0 0.53224,-0.88868 0.75565,-2.64748 l 0.2124,-1.67204 0.98594,-0.32865 c 1.94844,-0.64948 2.22823,-1.36383 2.72925,-6.96846 0.15695,-1.7558 0.31435,-3.28299 0.34975,-3.39377 0.0413,-0.12919 0.34988,-0.16923 0.86059,-0.11167 0.75044,0.0846 0.84557,0.0436 1.6545,-0.71308 1.09996,-1.02888 2.55063,-3.44731 2.66202,-4.43789 0.046,-0.40882 0.40777,-1.47984 0.80401,-2.38004 l 0.72042,-1.63673 1.88235,-0.73536 c 1.03529,-0.40445 2.62771,-0.99855 3.53871,-1.32022 0.911,-0.32167 1.70909,-0.64365 1.77353,-0.71551 0.0645,-0.0719 -0.0424,-0.07 -0.23753,0.004 -1.38881,0.52755 -3.38496,0.53997 -4.08862,0.0255 -0.80397,-0.58788 -0.0863,-2.77709 1.62523,-4.95778 1.10052,-1.40218 1.36328,-1.49534 3.16921,-1.1236 2.31595,0.47671 2.80188,0.42642 3.44747,-0.35679 0.29885,-0.36256 0.76061,-1.07414 1.02614,-1.5813 l 0.48279,-0.92211 1.33669,-0.19382 c 2.81351,-0.40795 7.49794,-0.88553 10.69182,-1.09003 3.58315,-0.22942 6.13106,-0.11061 11.66123,0.54373 3.62648,0.4291 5.72071,0.96007 6.50595,1.64952 0.35878,0.31501 0.8309,0.54266 1.17105,0.56466 0.7874,0.0509 2.48258,0.94954 3.80888,2.01909 1.16156,0.9367 1.93356,1.20545 2.92729,1.01902 0.56072,-0.10519 0.59929,-0.073 1.18274,0.98835 1.33309,2.42488 2.2913,3.04272 6.15109,3.96618 2.72723,0.65249 3.89232,1.08714 8.04834,3.00256 2.46903,1.13792 2.65434,1.19363 4.64516,1.39658 1.79551,0.18304 2.13781,0.27034 2.55277,0.65107 0.79326,0.72782 2.38329,2.97033 3.88664,5.48156 2.70305,4.5152 4.48866,5.90514 8.33561,6.48855 0.74394,0.11282 0.96928,0.305 7.69129,6.55961 l 2.28729,2.12823 -0.40078,0.44339 c -1.41371,1.56401 -1.00957,3.54378 1.31152,6.42478 1.82213,2.26166 2.41615,2.52567 6.30638,2.80286 1.36978,0.0976 2.61418,0.21646 2.76534,0.26412 0.15116,0.0477 0.66865,1.02251 1.14998,2.16633 0.48133,1.14382 1.23871,2.68458 1.68306,3.42392 l 0.80792,1.34424 -0.35176,0.78755 c -0.21381,0.47868 -0.35451,1.18707 -0.35877,1.80626 -0.0107,1.5588 0.36331,1.82993 3.46072,2.50868 0.39313,0.0862 0.48989,0.24666 0.67769,1.12421 0.12049,0.56303 0.25695,1.15792 0.30324,1.32196 0.0595,0.2108 -0.22323,0.50699 -0.96425,1.01022 -2.26049,1.53506 -2.64129,2.85716 -1.03064,3.57826 0.69125,0.30949 0.71878,0.35286 0.66824,1.05279 -0.0687,0.95141 0.2292,1.37929 1.55515,2.23374 0.59266,0.38192 1.05221,0.7742 1.02123,0.87175 -0.031,0.0975 -0.32951,0.3588 -0.6634,0.58058 -1.07781,0.71591 -1.67812,1.41531 -2.30182,2.68182 -0.5022,1.01976 -0.73253,1.29575 -1.29515,1.55187 -1.24542,0.56695 -1.39841,1.41727 -0.48562,2.69916 l 0.36273,0.50941 -0.373,0.33373 c -0.20516,0.18355 -0.81647,0.93159 -1.35849,1.66231 -0.54201,0.73071 -1.34073,1.70837 -1.77494,2.17257 -0.7807,0.83463 -0.8019,0.84401 -1.90926,0.84401 -1.60536,0 -2.80795,0.30023 -3.3421,0.83438 -0.39632,0.39632 -0.45546,0.60628 -0.45546,1.61698 0,0.9215 -0.0741,1.24037 -0.35848,1.5431 -0.3662,0.38981 -0.59575,1.44166 -0.80004,3.66594 l -0.10901,1.18701 -0.88123,0.56548 c -0.48468,0.31101 -0.98918,0.77447 -1.12112,1.0299 -0.31526,0.61033 -0.69232,3.13293 -0.56411,3.774 0.0727,0.36348 0.0309,0.50352 -0.15042,0.50352 -0.13812,0 -0.30046,-0.0798 -0.36074,-0.17735 -0.30051,-0.48622 -0.36293,-0.0387 -0.17521,1.25628 l 0.20782,1.43363 -0.58743,0.46872 c -0.32309,0.2578 -0.63421,0.6817 -0.69138,0.942 -0.0893,0.40657 -0.22128,0.49026 -0.93638,0.59374 -2.93965,0.42542 -3.987,1.46742 -3.13363,3.11765 0.26403,0.51058 0.2532,0.5447 -0.45867,1.44528 -0.63056,0.79772 -0.71568,1.00747 -0.62985,1.55217 0.36859,2.33938 0.3565,2.58821 -0.14491,2.98262 -0.29967,0.23572 -0.97817,0.45203 -1.83977,0.58655 -1.28696,0.20092 -1.41086,0.26109 -2.16667,1.05221 -0.44091,0.4615 -1.03605,1.30847 -1.32252,1.88216 -0.28648,0.57367 -0.60412,1.10741 -0.70585,1.18607 -0.10174,0.0787 -0.72194,0.1034 -1.37823,0.055 -0.65629,-0.0484 -1.23625,-0.0185 -1.28882,0.0666 -0.0526,0.0851 0.1222,0.18002 0.38837,0.21105 0.40323,0.047 0.52366,0.18949 0.7222,0.8545 0.29456,0.98661 0.23602,4.84222 -0.0783,5.15649 -0.14407,0.14405 -0.58164,0.17086 -1.41883,0.0869 l -1.21051,-0.12138 -1.59618,-1.64569 c -1.80607,-1.8621 -2.3673,-2.29125 -3.35068,-2.56213 -1.44221,-0.39727 -1.65751,0.27012 -0.90951,2.81932 0.24181,0.82412 0.44133,1.62859 0.44338,1.78771 0.004,0.33172 -1.15898,0.68613 -2.252,0.68613 -0.62916,0 -0.74472,-0.0859 -1.55061,-1.1528 -0.47892,-0.63403 -0.93179,-1.15279 -1.00636,-1.15279 -0.0746,0 -0.20715,0.1279 -0.29464,0.28423 -0.13607,0.24314 -0.22068,0.20786 -0.58521,-0.24401 -0.63478,-0.78686 -1.12777,-0.99326 -1.70388,-0.71335 -0.57498,0.27935 -0.79152,0.98891 -0.60556,1.9843 l 0.13734,0.73517 -1.52129,-0.003 -1.52129,-0.003 -0.0563,0.5865 c -0.0363,0.37845 0.13624,0.99802 0.48656,1.74662 l 0.54288,1.16011 -2.00957,-0.12556 c -2.21861,-0.13862 -2.61892,-0.0343 -3.51893,0.91731 l -0.47626,0.50356 0.41536,1.59618 c 0.22845,0.87789 0.39851,1.61383 0.37791,1.63541 -0.0206,0.0216 -0.38075,-0.13061 -0.80034,-0.33821 -0.83576,-0.4135 -2.20969,-0.61013 -2.95542,-0.42296 -0.44959,0.11284 -0.46989,0.16297 -0.36771,0.9084 0.12204,0.89042 0.15999,0.87409 -1.03787,0.44657 z"
         id="path2157"
         transform="scale(0.26458333)" />
      <path
         style="display:inline;fill:#768f73;fill-opacity:1;stroke-width:0;paint-order:stroke fill markers"
         id="path2153"
         d="m 133.59656,173.97167 c 0.40662,0.49241 0.9165,0.88815 1.41935,1.27672 0.43691,0.32564 0.89096,0.6264 1.3513,0.91751 0.28779,0.18301 0.58783,0.34167 0.90279,0.47202 0.16438,0.0534 0.32582,0.11648 0.4909,0.16769 0.13978,0.0525 0.28705,0.0718 0.43486,0.0843 0.0238,0.001 0.0475,0.003 0.0713,0.004 0.056,0.003 0.0608,-0.0759 0.005,-0.0792 v 0 c -0.0231,-0.001 -0.0462,-0.003 -0.0693,-0.004 -0.14214,-0.012 -0.28371,-0.0302 -0.41804,-0.081 -0.16281,-0.0503 -0.32187,-0.11288 -0.48404,-0.16522 -0.31082,-0.1285 -0.60673,-0.28523 -0.89072,-0.46576 -0.45823,-0.28977 -0.91023,-0.58913 -1.34518,-0.91324 -0.49726,-0.38417 -1.00165,-0.77524 -1.40438,-1.26153 -0.0337,-0.0449 -0.0972,0.003 -0.0635,0.0476 z" />
      <path
         style="display:inline;fill:#768f73;fill-opacity:1;stroke-width:0;paint-order:stroke fill markers"
         id="path2151"
         d="m 125.77027,142.42848 c 0.64337,-0.26829 1.35182,-0.32582 2.03716,-0.40811 0.76719,-0.0904 1.53637,-0.16464 2.30783,-0.20563 0.36522,-0.0231 0.73012,-0.0199 1.09518,8e-4 0.45703,0.0279 0.9141,0.0628 1.36832,0.12135 0.33476,0.0472 0.67262,0.0605 1.00538,0.1208 0.26709,0.054 0.53202,0.11689 0.79572,0.18526 0.20005,0.0732 0.40519,0.13009 0.60869,0.19237 0.0329,0.01 0.0658,0.0199 0.0988,0.0299 0.0537,0.0163 0.0767,-0.0597 0.023,-0.076 v 0 c -0.0328,-0.01 -0.0657,-0.0199 -0.0985,-0.0298 -0.20461,-0.0626 -0.41075,-0.12002 -0.61199,-0.19331 -0.26561,-0.0688 -0.53248,-0.13216 -0.80151,-0.18653 -0.33414,-0.0603 -0.67322,-0.0744 -1.00937,-0.12141 -0.45611,-0.0587 -0.91504,-0.0939 -1.37396,-0.12188 -0.36796,-0.0209 -0.73577,-0.0242 -1.10389,-0.001 -0.77322,0.0411 -1.54416,0.11549 -2.31308,0.20608 -0.69564,0.0836 -1.41531,0.14206 -2.06709,0.41801 -0.0487,0.0279 -0.009,0.0968 0.0394,0.0689 z" />
      <path
         style="fill:#000000;fill-opacity:1;stroke-width:0;paint-order:stroke fill markers"
         id="path1266"
         d="m 126.89254,140.93351 c -1.54664,-0.16547 0.26925,-0.17802 -0.54848,0.86353 -0.22161,0.28226 -0.73366,0.0993 -1.03607,0.2925 -0.31122,0.19882 -0.48004,0.56149 -0.72847,0.83475 -0.88498,0.9734 -0.93372,0.98665 -1.91336,1.92633 0.0557,0.58334 0.43988,1.23141 0.16705,1.75001 -1.55838,2.96235 -1.47332,-1.33188 -2.48064,1.92248 -0.14825,0.47897 0.20833,0.99595 0.16313,1.4953 -0.41233,4.55506 -0.55555,-2.0779 -0.35322,2.48187 -1.29629,1.55285 -1.26519,0.75651 -0.24764,2.45544 0.24374,0.40695 0.71968,0.74131 0.74057,1.21521 0.024,0.54356 -0.57116,0.96789 -0.62042,1.50974 -0.11603,1.2764 0.7187,1.94554 1.41837,2.83525 0.5054,1.84455 0.26896,1.7101 1.59755,3.28813 0.49155,0.58384 1.13453,1.03179 1.60568,1.6322 0.49871,0.63552 0.94872,1.31999 1.28675,2.05371 1.79576,3.89788 -0.56029,1.62358 3.09708,4.11735 1.07189,0.10381 2.19784,-0.0404 3.21565,0.31142 1.17114,0.40479 1.78151,1.81525 2.3287,2.76199 -0.38236,-0.36311 -0.89587,0.17763 -0.51351,0.54073 v 0 c -0.3624,-0.41899 -0.66888,-0.8938 -1.08719,-1.25698 -4.66504,-4.05037 1.35997,2.06599 -3.31824,-2.86694 -2.25426,-2.5606 -1.0528,-1.33164 -3.61138,-3.68003 -2.66815,-2.90267 -0.54743,-0.81984 -2.17445,-3.99735 -0.21043,-0.41098 -1.94832,-2.54994 -2.27216,-2.95498 -0.31515,-0.61959 -1.12947,-2.13723 -1.32372,-2.83697 -0.38427,-1.38418 -0.0666,-1.32234 -0.11323,-2.6883 -0.0661,-1.9357 -0.49529,-0.58267 0.4514,-2.3888 -0.39249,-0.48122 -1.3167,-0.83849 -1.17747,-1.44366 0.14473,-0.62907 1.2812,-0.42031 1.71606,-0.89735 0.28678,-0.3146 0.28162,-2.40958 0.42741,-2.68869 0.22963,-0.43962 0.79686,-0.61021 1.09758,-1.00462 0.28271,-0.37078 0.41549,-0.83486 0.62324,-1.25229 4.79046,-1.92267 -1.3103,1.0822 1.36094,-2.26864 0.32603,-0.40899 1.25698,0.30398 1.56459,-0.11904 1.68132,-2.31203 -2.00155,-1.1341 0.41848,-1.65479 0.13595,-0.0292 0.26777,-0.0751 0.40166,-0.11269 0.12432,-0.11472 -0.0379,-0.29053 -0.16224,-0.17582 z" />
      <path
         style="fill:#000000;fill-opacity:1;stroke-width:0;paint-order:stroke fill markers"
         id="path1268"
         d="m 134.76876,141.82698 c 0.12851,0.0893 0.23901,0.21299 0.38553,0.26803 1.1658,0.43794 0.55258,-0.27945 1.56369,0.94289 0.32798,0.3965 0.46725,0.9723 0.89569,1.25732 0.54375,0.36173 1.26003,0.35094 1.87053,0.58289 0.69124,0.26262 1.35218,0.59892 2.02827,0.89838 0.89473,0.16125 1.93078,-0.0251 2.68417,0.48377 0.68978,0.4659 0.73596,1.50521 1.24063,2.16715 0.46936,0.61562 1.09582,1.09392 1.65435,1.62996 0.52337,0.50231 1.06523,0.98506 1.59105,1.4848 0.47368,0.45021 0.86431,1.00131 1.40731,1.36492 0.55862,0.37407 1.23042,0.54224 1.84563,0.81335 0.23237,0.47574 0.46474,0.95147 0.69711,1.42721 -0.18931,0.58143 -0.76064,1.16398 -0.56792,1.74429 0.16533,0.49786 1.29751,0.21926 1.3914,0.73539 0.0958,0.52667 -1.04993,0.69363 -1.03408,1.22872 0.0127,0.42826 0.81809,0.34958 1.09062,0.68018 0.15597,0.1892 0.049,0.48795 0.0735,0.73193 -0.20658,0.19135 -0.41315,0.38271 -0.61973,0.57406 -0.0916,0.1843 -0.14008,0.39739 -0.27492,0.55289 -0.15227,0.1756 -0.52659,0.18279 -0.56216,0.41247 -0.0499,0.32207 0.40496,0.5877 0.35729,0.91011 -0.0365,0.2471 -0.38282,0.32139 -0.5647,0.4926 -0.19055,0.17938 -0.36789,0.3723 -0.55183,0.55846 -0.25287,2.02798 0.32163,-0.28882 -1.56862,1.05981 -0.15476,0.11042 -0.20314,1.918 -0.24879,2.00804 -1.00173,1.97571 -0.96006,-0.64888 -0.69668,1.89629 -0.49711,0.15542 -1.22108,0.021 -1.49133,0.46625 -0.22879,0.37692 0.43113,0.80202 0.45423,1.24235 0.0164,0.31318 -0.26537,0.57222 -0.34307,0.87605 -0.0772,0.30203 0.13045,0.73972 -0.11821,0.92774 -0.27495,0.2079 -2.22998,0.26053 -2.60903,0.2791 0.44792,-0.48843 0.58471,2.08405 -0.0171,1.89364 -0.71551,-0.22639 -1.03607,-1.22619 -1.76737,-1.39475 -0.91197,-0.21019 0.64924,1.83314 -0.41617,1.68853 -0.43355,-0.0589 -0.63833,-0.59855 -0.95749,-0.89782 -0.10761,0.23136 -0.0995,0.57068 -0.32283,0.69409 -0.19928,0.11013 -0.43958,-0.13676 -0.66703,-0.14707 -0.20133,-0.009 -0.57275,-0.11023 -0.59791,0.0897 -0.0693,0.55125 0.75807,1.21283 0.38253,1.62228 -0.31675,0.34537 -0.74958,-0.60857 -1.20274,-0.72798 -0.182,-0.048 -0.32605,0.18812 -0.48908,0.28218 0.318,1.17824 0.41381,1.18293 -0.68367,1.471 -0.0369,0.0385 0.0175,0.0907 0.0544,0.0522 v 0 c -0.0624,-0.28473 -0.47016,-0.78391 -0.18727,-0.85418 1.30076,-0.3231 1.94223,1.99898 0.81682,-0.66867 0.14339,-0.11832 0.25374,-0.29635 0.43016,-0.35495 0.46837,-0.1556 1.59553,0.32612 1.76305,-0.2944 0.11535,-0.42729 -0.34284,-1.09502 0.0339,-1.32731 0.33264,-0.20512 0.59984,0.50107 0.89976,0.7516 0.60493,0.0287 0.60977,0.0888 1.1856,-0.11864 0.19797,-0.0713 0.36256,-0.25063 0.5724,-0.26615 0.20916,-0.0155 1.82773,0.40522 2.01253,0.12762 0.22567,-0.339 -0.16118,-0.79837 -0.24177,-1.19755 2.66473,-1.49322 -1.03431,0.87417 0.66088,-1.32711 0.2471,-0.32088 0.87816,-0.13234 1.12821,-0.45093 0.20684,-0.26353 -0.19659,-0.74473 0.0144,-1.0049 1.66932,-2.0581 1.11805,0.98322 1.32156,-1.58975 2.01898,-1.78794 -0.0178,0.45981 0.55832,-1.97207 0.0808,-0.34115 0.58586,-0.42635 0.7525,-0.73479 0.15467,-0.28626 0.11809,-0.64011 0.16435,-0.96218 0.0456,-0.31739 -0.12839,-0.74227 0.11108,-0.9555 0.31038,-0.27637 0.81644,-0.1559 1.22467,-0.23385 0.16848,-0.19591 0.3441,-0.38589 0.50545,-0.58771 0.14623,-0.1829 0.24947,-0.40163 0.41661,-0.56564 0.1775,-0.17416 0.46641,-0.23009 0.60486,-0.43665 1.47906,-2.20655 -1.1347,0.86294 0.11274,-1.29246 0.15103,-0.26097 0.47226,-0.37499 0.7084,-0.56248 -0.26397,-0.23338 -0.70559,-0.35853 -0.7919,-0.70014 -0.0771,-0.30516 0.34495,-0.5458 0.39877,-0.85592 0.0573,-0.33014 -0.008,-0.67436 -0.0762,-1.00235 -0.34143,-1.63212 -0.32413,-0.72411 -1.20807,-2.20805 -0.26065,-0.43757 -0.42314,-0.92659 -0.63471,-1.38989 -0.73049,-0.1665 -1.68929,0.0565 -2.19147,-0.49952 -2.80007,-3.10021 2.55617,-1.45534 -1.48365,-4.06659 -0.76949,-0.49739 -1.88517,-0.18809 -2.6668,-0.66617 -1.33112,-0.81419 -1.49318,-2.95482 -3.20831,-3.4088 -0.57181,-0.43517 -1.14386,-0.87002 -1.71544,-1.3055 -0.49619,-0.37804 -0.87938,-0.99778 -1.48789,-1.13503 -0.68548,-0.15462 -1.38189,0.38812 -2.08216,0.32977 -0.35687,-0.0297 -0.58336,-0.4215 -0.90512,-0.57869 -1.27345,-0.62216 -0.29814,0.16489 -1.06338,-0.51991 0.3097,0.17797 0.56139,-0.25999 0.2517,-0.43797 z" />
    </g>
  </g>
</svg>
