<?xml version="1.0" encoding="UTF-8" standalone="no"?>
<!-- Created with Inkscape (http://www.inkscape.org/) -->

<svg
   width="206.375mm"
   height="238.125mm"
   viewBox="0 0 206.375 238.125"
   version="1.1"
   id="svg5"
   sodipodi:docname="RPPRPP-1.svg"
   inkscape:version="1.2.2 (732a01da63, 2022-12-09)"
   inkscape:export-filename="_base.png"
   inkscape:export-xdpi="96"
   inkscape:export-ydpi="96"
   xmlns:inkscape="http://www.inkscape.org/namespaces/inkscape"
   xmlns:sodipodi="http://sodipodi.sourceforge.net/DTD/sodipodi-0.dtd"
   xmlns="http://www.w3.org/2000/svg"
   xmlns:svg="http://www.w3.org/2000/svg">
  <sodipodi:namedview
     id="namedview7"
     pagecolor="#505050"
     bordercolor="#ffffff"
     borderopacity="1"
     inkscape:showpageshadow="0"
     inkscape:pageopacity="0"
     inkscape:pagecheckerboard="1"
     inkscape:deskcolor="#505050"
     inkscape:document-units="mm"
     showgrid="false"
     showguides="false"
     inkscape:zoom="0.99674932"
     inkscape:cx="400.30125"
     inkscape:cy="465.51324"
     inkscape:window-width="1920"
     inkscape:window-height="1057"
     inkscape:window-x="1912"
     inkscape:window-y="-8"
     inkscape:window-maximized="1"
     inkscape:current-layer="layer3" />
  <defs
     id="defs2">
    <inkscape:path-effect
       effect="roughen"
       id="path-effect1227"
       is_visible="true"
       lpeversion="1.2"
       method="segments"
       max_segment_size="2"
       segments="2"
       displace_x="0.75;-1460505896"
       displace_y="0.75;-1396471034"
       global_randomize="2;1"
       handles="along"
       shift_nodes="true"
       fixed_displacement="false"
       spray_tool_friendly="false" />
    <inkscape:path-effect
       effect="simplify"
       id="path-effect2045"
       is_visible="true"
       lpeversion="1"
       steps="1"
       threshold="0.000625"
       smooth_angles="360"
       helper_size="0"
       simplify_individual_paths="false"
       simplify_just_coalesce="false" />
  </defs>
  <g
     inkscape:label="Base Hexagon"
     inkscape:groupmode="layer"
     id="layer1"
     transform="translate(-6.9865354e-5,6.8945696e-5)"
     sodipodi:insensitive="true"
     style="display:inline">
    <path
       sodipodi:type="star"
       style="fill:#8b9768;fill-opacity:1;stroke:#000000;stroke-width:0;stroke-linecap:round;stroke-linejoin:miter;stroke-miterlimit:4;stroke-dasharray:none;paint-order:stroke fill markers"
       id="path7148"
       inkscape:flatsided="true"
       sodipodi:sides="6"
       sodipodi:cx="28.234375"
       sodipodi:cy="13.25"
       sodipodi:r1="3.3630068"
       sodipodi:r2="2.9124494"
       sodipodi:arg1="0.52359878"
       sodipodi:arg2="1.0471976"
       inkscape:rounded="0"
       inkscape:randomized="0"
       d="m 31.146824,14.931503 -2.912449,1.681504 -2.912449,-1.681504 0,-3.363006 2.912449,-1.6815038 2.912449,1.6815038 z"
       transform="matrix(-17.721454,30.666072,-30.671746,-17.691963,1009.9425,-512.35645)"
       inkscape:label="Base Hexagon"
       sodipodi:insensitive="true" />
  </g>
  <g
     inkscape:groupmode="layer"
     id="layer3"
     inkscape:label="Stuff"
     style="display:inline">
    <path
       style="fill:#e9ddaf;fill-opacity:1;stroke:#000000;stroke-width:0.525767;stroke-opacity:1;paint-order:stroke fill markers"
       id="path1045"
       d="m 51.20379,31.369738 c 0.222913,0.280931 -0.08915,0.572972 0.08166,0.883725 0.170806,0.310752 1.432803,0.419118 1.546297,0.758235 0.08846,0.270907 0.383535,-0.266304 0.310671,0.02346 -0.07286,0.289764 -0.103332,1.732065 -0.07033,2.014973 0.01194,0.334901 -0.192195,0.708093 -0.21695,0.949462 -0.02476,0.241369 0.06724,0.339242 0.146473,0.661467 0.11891,0.466592 0.420625,0.790259 0.560014,1.258523 0.13939,0.468263 0.268043,1.177001 0.39134,1.642632 0.215593,0.717304 0.419694,1.502239 0.600872,2.194584 0.181178,0.692345 0.548174,1.565111 0.75841,2.284035 0.175855,0.606531 0.238491,1.109638 0.370535,1.645777 0.132044,0.536138 0.441644,1.096154 0.589621,1.710301 0.151705,0.554027 0.570503,0.814977 0.682802,1.374237 0.112298,0.559259 -0.05741,0.549868 0.07679,1.108318 0.108483,0.544621 0.06686,1.312407 0.194307,2.067568 0.127444,0.755161 0.987756,1.069964 1.125033,1.607666 0.124454,0.39002 0.234769,0.960327 0.179555,1.465803 -0.05521,0.505475 -0.598957,0.965459 -0.484034,1.357624 0.123568,0.41748 1.065613,0.834238 1.254037,1.251009 0.188423,0.416772 -0.500944,1.326248 -0.410724,1.752113 0.171244,0.692299 0.1199,1.305064 0.271838,1.880717 0.151939,0.575654 0.363651,0.299378 0.417391,1.010227 -0.03401,1.75779 -0.819907,3.902988 -0.908822,5.860877 -0.08891,1.95789 0.533716,3.330218 0.423527,5.084749 -0.06102,1.039146 -0.127454,1.985261 -0.179197,3.124656 -0.05174,1.139394 -0.19838,2.114806 -0.221126,3.155554 -0.05454,0.464749 -0.355031,1.042737 -0.249477,1.572249 0.105554,0.529511 0.603418,0.732455 0.734935,1.171756 0.120198,0.427901 0.363725,1.081365 0.511796,1.572872 0.14807,0.491508 0.464356,1.014372 0.645477,1.420665 0.07675,0.102392 -0.0053,-0.622902 0.0042,-0.567838 0.0096,0.05506 -0.125113,0.88719 -0.04326,0.985586 0.187679,0.225592 0.254032,0.366985 0.512414,0.562777 0.258382,0.195793 1.276946,0.377503 1.486126,0.586224 0.377859,0.377025 0.618318,0.871426 0.831463,1.28143 0.213145,0.410004 0.591649,1.37506 0.93203,1.785555 0.434873,0.583942 1.046064,0.944866 1.405588,1.392484 0.359524,0.447618 0.395626,0.210552 0.717842,0.866338 0.184581,0.375671 0.434756,1.049978 0.62369,1.689448 0.188935,0.63947 0.34611,1.236894 0.489252,1.621899 0.456276,1.341703 0.157228,1.932407 0.592945,3.280227 0.435718,1.347818 1.931672,3.248828 2.371416,4.595928 0.202503,0.6672 0.358125,1.36249 0.489902,2.0766 0.131776,0.71412 -0.09803,1.59318 0.145596,2.24672 0.305511,0.74118 0.989932,2.19898 1.43738,2.87602 0.447447,0.67703 0.915002,1.41236 1.289038,2.12034 0.26935,0.49945 0.420102,0.31747 0.626847,0.60599 0.206745,0.28852 0.593995,0.92806 0.864844,1.4266 0.195596,0.32702 0.34791,1.04149 0.490988,1.40901 0.143077,0.36753 0.262773,0.4403 0.433505,0.78033 0.273233,0.51429 0.875708,0.61201 1.135217,1.12236 0.25951,0.51034 -0.489306,1.45831 -0.230759,1.98021 0.409916,0.78184 1.450472,1.64782 2.042219,2.41516 0.591748,0.76735 0.781036,2.21204 1.193998,2.99215 0.266305,0.5182 0.439131,0.8817 0.708525,1.19893 0.269394,0.31723 -0.02593,0.91908 0.295411,1.406 0.264968,0.38943 0.898147,0.67929 1.328757,0.98591 0.43061,0.30661 0.872882,0.53706 1.15429,0.91498 0.200337,0.32475 0.472769,0.59767 0.708657,0.85111 0.235889,0.25344 0.03533,0.43805 0.344928,0.64366 0.281488,0.21587 0.737026,0.79513 1.119816,1.01953 0.382789,0.2244 1.089344,0.0894 1.384888,0.28652 0.488741,0.30277 0.800292,0.84439 1.15342,1.19909 0.353127,0.35469 -0.144671,0.97876 0.306855,1.33217 0.651815,0.47324 0.632566,0.79245 1.472963,1.194 0.840397,0.40155 2.681203,0.28473 3.275753,0.82658 0.480682,0.42717 1.815921,0.92462 2.266079,1.49671 0.450158,0.57209 -0.03178,0.35891 0.467421,0.76457 0.277318,0.2254 0.673688,0.68153 0.963798,1.12168 0.29011,0.44016 0.252357,0.34956 0.541341,0.56084 0.371816,0.28245 -8.4e-4,0.81455 0.434464,1.21117 0.435304,0.39661 2.465102,0.82426 2.862582,1.06997 0.75985,0.51546 1.27276,1.59123 1.77452,2.14521 0.50176,0.55398 1.03358,0.56197 1.74886,1.13534 0.32476,0.26034 1.23695,0.54571 1.5555,0.80699 0.31855,0.26127 -0.0363,0.41097 0.29177,0.66722 1.33844,1.06274 2.75619,2.29575 4.16153,3.3197 1.40535,1.02394 2.89511,1.89245 4.2096,2.98502 0.67525,0.59101 1.2151,0.98797 1.82862,1.60484 0.61353,0.61687 1.33544,1.24238 1.93687,1.90732 0.49886,0.61515 1.1546,0.99271 1.63736,1.66912 0.48276,0.6764 1.57199,1.55519 2.0204,2.20884 0.1291,0.18819 -0.0726,0.13813 -0.0739,0.47509 -0.001,0.33697 0.31207,0.45981 0.42894,0.65031 0.62564,1.07462 1.27937,2.34682 1.86624,3.57735 0.58687,1.23054 1.03286,2.41022 1.68163,3.47149 0.57135,1.03345 1.41702,2.08635 2.114,3.05108 0.69698,0.96474 1.18119,2.09926 1.89477,3.03715 0.72135,0.97787 1.47123,2.45309 2.19063,3.37917 0.7194,0.92607 1.29891,1.19281 1.9802,2.19881 0.30477,0.52181 0.63336,1.40887 1.00664,1.93005 0.37328,0.52119 0.79072,0.49603 1.13752,0.98943 0.28317,0.35857 0.3181,0.81039 0.55588,1.24308 0.23778,0.43269 1.32552,1.22536 1.56666,1.6112 0.17988,0.34903 0.59743,0.39736 0.64821,0.63131 0.0508,0.23396 -0.62777,1.20138 -0.42251,1.53485 0.18679,0.29308 0.30704,0.38455 0.60089,0.52896 0.29384,0.14441 0.80935,0.31999 1.03712,0.58325 0.22437,0.27694 -0.22664,-0.45269 -0.0263,-0.1626 0.2003,0.29009 0.4122,1.51806 0.6476,1.78607 0.26069,0.27819 0.51654,0.86648 0.94024,1.16209 0.42369,0.2956 1.44535,0.676 1.70506,0.95513 0.30128,0.29598 1.28408,0.44832 1.45236,0.66981 0.16828,0.22149 -0.19724,0.4282 0.0631,0.7591 0.22157,0.28345 0.28405,0.0356 0.41909,0.35125 0.13505,0.31567 0.31396,1.40032 0.50902,1.70222 0.24352,0.34243 0.39123,0.45378 0.64824,0.73961 0.25702,0.28582 1.28436,0.74126 1.52502,1.086 0.36636,0.58297 0.98536,1.13738 1.2528,1.66931 0.26744,0.53193 0.32197,0.79426 0.77621,1.30847 0.20084,0.23541 0.14432,0.50803 0.30068,0.82156 0.15636,0.31352 0.93913,0.98436 1.07004,1.26804 0.13654,0.21284 0.0186,0.74713 0.029,0.89224 0.0104,0.14512 -0.59312,-0.49225 -0.48112,-0.26642 0.11404,0.23867 0.33474,0.40707 0.66187,0.72624 0.32714,0.31916 0.6915,0.26066 0.84679,0.47371 0.10436,0.18787 0.38772,0.47524 0.53293,0.78058 0.14522,0.30534 0.0973,0.6441 0.23961,0.80498 0.50483,0.54571 0.98146,0.57955 1.38289,0.22037 0.40142,-0.35918 0.78453,-1.15276 0.2797,-1.69847 l 0.44909,-0.0293 0.006,0.0319 c -0.38644,-0.096 -0.476,-0.33216 -0.63393,-0.47789 -0.15793,-0.14573 -0.13292,0.21618 -0.23262,0.0769 -0.1209,-0.1643 1.03748,-0.35106 0.86411,-0.62495 -0.17336,-0.27389 -1.95962,-1.45887 -2.0459,-1.64528 -0.11266,-0.22618 0.25926,-0.19807 0.21583,-0.21761 -0.0434,-0.0195 -0.40437,-0.46171 -0.54293,-0.67405 -0.18591,-0.35903 -0.81441,-0.63853 -1.07426,-0.87434 -0.25984,-0.23581 -0.1484,-0.84898 -0.42083,-1.14796 -0.42799,-0.48409 -0.98755,-0.75079 -1.39616,-1.14477 -0.40861,-0.39398 -1.27717,-1.83041 -1.62045,-2.38088 -0.23351,-0.33446 -0.60321,-0.44016 -0.69262,-0.53871 -0.0894,-0.0986 0.19409,0.0138 -0.0455,-0.316 -0.21282,-0.32936 -0.48149,-0.69804 -0.72903,-1.07021 -0.24754,-0.37218 -0.4982,-0.76132 -0.73956,-1.0708 -0.27866,-0.3532 -1.2042,-0.94412 -1.49254,-1.27871 -0.28834,-0.33459 0.12095,-0.3276 -0.20019,-0.64425 -0.2551,-0.27391 -0.19781,-0.65038 -0.47196,-0.94168 -0.27416,-0.2913 -0.50256,-0.56816 -0.75848,-0.84124 -0.23803,-0.2583 -0.44512,-0.73705 -0.74422,-1.00428 -0.2991,-0.26723 -0.63297,-0.35857 -0.86547,-0.62223 -0.1925,-0.21985 -0.29964,-1.06327 -0.4836,-1.29097 -0.18396,-0.22769 -0.006,0.59628 -0.1634,0.35068 -0.20853,-0.33359 -0.52836,-0.85011 -0.85055,-1.28948 -0.3222,-0.43937 -0.64769,-0.79788 -0.82907,-1.14814 -0.25233,-0.40059 -0.5894,-0.82293 -0.8366,-1.22735 -0.24719,-0.40441 -0.40967,-0.90159 -0.70437,-1.27477 -0.34393,-0.48772 -0.62707,-0.40053 -0.96779,-0.86144 -0.34071,-0.4609 -1.17609,-1.58892 -1.47776,-2.10525 -0.69211,-1.02195 -1.30098,-2.99327 -1.90634,-3.96975 -0.60537,-0.97648 -1.0243,-0.81281 -1.75731,-1.80606 -0.69218,-0.90961 -1.99131,-1.38732 -2.69546,-2.35674 -0.70415,-0.96942 -1.2803,-3.0047 -1.83307,-4.00798 -0.64947,-1.06149 -1.46475,-1.89631 -1.96324,-2.83377 -0.4985,-0.93747 -1.05115,-2.13491 -1.67863,-3.20912 -0.15682,-0.25541 -0.37667,-0.65572 -0.48096,-0.93351 -0.10429,-0.27779 -0.11029,-0.90186 -0.27915,-1.14765 -0.46975,-0.68377 -1.02421,-1.14389 -1.53471,-1.67893 -0.51051,-0.53503 -0.87448,-1.07975 -1.39841,-1.72204 -0.636,-0.70073 -1.15108,-1.3333 -1.84989,-2.01482 -0.69882,-0.68152 -1.64711,-1.65633 -2.36166,-2.27821 -1.32437,-1.09711 -3.36291,-1.77924 -4.73872,-2.72823 -1.37581,-0.94898 -2.11086,-1.48848 -3.46063,-2.55381 -0.3204,-0.25012 -0.7476,-0.74697 -1.06332,-1.16517 -0.31572,-0.41821 -0.38524,-0.87964 -0.70245,-1.13376 -0.75299,-0.60323 -1.55239,-1.47105 -2.32211,-2.06636 -0.76971,-0.59531 -1.82476,-0.87162 -2.63144,-1.40512 -0.37508,-0.23169 -0.61276,-0.41991 -0.89182,-0.68492 -0.279063,-0.26501 0.2976,-0.50265 -0.0535,-0.76905 -0.275348,-0.19869 -0.224905,-0.44019 -0.71279,-0.68042 -0.487884,-0.24023 -1.460537,-0.87246 -1.722687,-1.08697 -0.48456,-0.39159 -0.926861,-0.62188 -1.409751,-0.9329 -0.482891,-0.31102 -0.988792,-0.16926 -1.455441,-0.58169 -0.614206,-0.55924 -1.747021,-1.30272 -2.388633,-1.96885 -0.641612,-0.66613 -0.647392,-1.2452 -1.320197,-1.73427 -0.472627,-0.36966 -1.33693,-0.68421 -1.846764,-1.05594 -0.509834,-0.37172 -0.521003,-0.76472 -1.032358,-1.08181 -0.296292,-0.19752 -0.124744,-0.23041 -0.4433,-0.45312 -0.318557,-0.22271 -1.023077,-0.94052 -1.309118,-1.15204 -0.211276,-0.14008 -0.644935,0.0414 -0.871941,-0.0309 -0.227006,-0.0722 -0.07352,0.24419 -0.205718,0.0185 -0.272284,-0.36018 -0.276735,-0.7163 -0.572942,-1.25113 -0.296208,-0.53484 -1.507212,-1.90654 -1.763569,-2.27795 -0.306033,-0.45504 -0.252554,-0.73493 -0.357795,-1.05307 -0.10524,-0.31815 -0.16149,-0.74721 -0.415939,-1.23166 -0.409048,-0.77147 -1.178232,-1.49478 -1.650807,-2.24201 -0.472576,-0.74723 -0.652069,-1.50946 -1.059013,-2.28216 -0.259484,-0.5235 -0.606656,-0.65031 -0.86268,-1.17754 -0.256024,-0.52724 -0.400392,-1.51752 -0.673947,-2.03376 -0.175826,-0.35005 -0.902317,-1.28748 -1.087049,-1.61944 -0.184731,-0.33196 0.221438,-0.0592 0.02115,-0.39639 -0.268985,-0.49492 -0.806762,-1.07058 -1.088119,-1.56508 -0.281356,-0.49451 -0.154681,-0.83194 -0.422091,-1.32781 -0.353036,-0.66822 -0.719829,-1.71365 -1.101668,-2.4054 -0.381839,-0.69174 -0.775175,-0.4267 -1.067543,-1.1245 -0.238806,-0.63989 -0.172585,-2.49805 -0.381514,-3.29842 -0.20893,-0.80037 -1.238893,-0.41808 -1.43801,-1.07121 -0.444246,-1.3608 -1.071764,-2.64752 -1.382986,-4.038417 -0.311222,-1.3909 -0.312373,-3.63095 -0.774269,-4.985976 -0.192792,-0.515641 -0.19637,-0.477649 -0.37399,-0.751742 -0.17762,-0.274092 -0.514656,-0.773753 -0.758169,-1.266618 -0.351001,-0.710418 -0.87266,-1.774534 -1.319887,-2.454217 -0.447226,-0.679684 -0.892667,-0.567252 -1.366164,-1.199203 -0.546785,-0.656135 -1.235584,-1.781288 -1.802873,-2.502664 -0.56729,-0.721376 -1.946039,-1.009015 -2.5605,-1.602045 -0.174572,-0.353179 -0.264188,0.03901 -0.151734,-0.34769 0.112454,-0.386695 0.334282,-1.483674 0.21726,-1.858252 -0.10556,-0.352209 -0.282775,-0.644991 -0.321515,-0.984567 -0.03874,-0.339575 0.113547,-0.744345 0.164547,-1.122224 0.02232,-1.026513 -0.148793,-1.958644 -0.114371,-2.979644 0.03442,-1.021001 0.05465,-1.841519 0.11466,-2.866454 0.113195,-1.803128 0.328333,-3.39742 0.510542,-5.27282 0.18221,-1.8754 0.231928,-4.006433 0.250764,-5.813387 -0.06057,-0.756459 -0.215504,-1.378967 -0.31643,-2.129971 -0.100927,-0.751004 -0.608467,-0.971324 -0.792832,-1.708104 -0.09727,-0.453463 0.280628,-0.665111 0.281438,-1.279218 8.09e-4,-0.614106 -0.452835,-1.618539 -0.585114,-2.063179 -0.11726,-0.375783 0.127448,-0.362734 0.06865,-0.751556 -0.05879,-0.388823 -0.421091,-1.29952 -0.550273,-1.672926 -0.136311,-0.532839 -0.352003,-1.001033 -0.484245,-1.504649 -0.132242,-0.503617 -0.256566,-1.187652 -0.36413,-1.727413 -0.134514,-0.559216 -0.141976,-1.096148 -0.26257,-1.61769 -0.120595,-0.521543 -0.824263,-1.373558 -0.97625,-1.928341 -0.153961,-0.629387 -0.285553,-1.403139 -0.355273,-1.936968 -0.06972,-0.533828 0.419792,-0.869161 0.236741,-1.490546 -0.208021,-0.710212 -0.542379,-1.410074 -0.882992,-2.107499 -0.340612,-0.697424 -0.196299,-1.372498 -0.410845,-2.08074 -0.121935,-0.460148 -0.450871,-0.958419 -0.696146,-1.423237 -0.245276,-0.464817 -0.644447,-1.190981 -0.761329,-1.652265 -0.06986,-0.280509 -0.04514,-1.110557 -0.05505,-1.317373 -0.0099,-0.206816 -0.283246,0.436652 -0.292248,0.144739 -0.04357,-0.356423 -0.09826,-0.261772 -0.120196,-0.665306 -0.02194,-0.403535 0.623559,-0.744725 0.512327,-1.086142 -0.161475,-0.457158 -0.509894,-1.034876 -0.899604,-1.597087 -0.38971,-0.562212 -0.647516,-0.734123 -0.955292,-1.111953 -0.47711,-0.569888 -1.046983,-0.568226 -1.495123,-0.326115 -0.448139,0.242112 -0.841493,0.883288 -0.364384,1.453177 z"
       inkscape:path-effect="#path-effect1227"
       inkscape:original-d="m 51.270738,31.211123 c 0.445826,0.561862 0.792643,1.184825 1.019631,1.86306 0.176911,0.541813 0.305372,1.084571 0.371376,1.650386 0.02387,0.669802 0.244024,1.303714 0.402484,1.948164 0.237821,0.933184 0.490549,1.862342 0.737144,2.793603 0.431185,1.434608 0.881657,2.86364 1.30213,4.301488 0.351709,1.213062 0.764795,2.409949 1.060749,3.638243 0.303411,1.108055 0.574843,2.223458 0.843248,3.340359 0.216966,1.089241 0.505471,2.160605 0.780025,3.236009 0.248908,0.78004 0.352479,1.592022 0.582324,2.376352 0.247136,0.83496 0.464043,1.678042 0.644483,2.529772 0.342488,1.384598 0.60109,2.776757 0.70857,4.198454 -0.06801,3.515581 -0.422983,7.019999 -0.643361,10.529061 -0.122033,2.078293 -0.230685,4.157722 -0.276177,6.239218 -0.109086,0.929498 0.126568,1.786233 0.389602,2.664834 0.240395,0.855802 0.517627,1.709546 0.879868,2.522132 0.1535,0.204785 0.296785,0.417565 0.4605,0.614358 0.375357,0.451183 0.776164,0.796744 1.194524,1.214186 0.755717,0.75405 1.458211,1.538063 2.138973,2.359054 0.869746,1.167884 1.743426,2.358078 2.387857,3.66965 0.369162,0.751342 0.725424,1.777168 1.011708,2.547179 0.912552,2.683406 1.788883,5.378675 2.668371,8.072875 0.405006,1.33441 0.811453,2.6662 1.298706,3.97327 0.611023,1.48236 1.383527,2.88744 2.1316,4.3034 0.5387,0.99889 1.082561,1.99406 1.624259,2.99115 0.391192,0.65404 0.721685,1.33762 1.06315,2.01767 0.546466,1.02859 1.038578,2.08597 1.555672,3.12977 0.819833,1.56368 1.698585,3.09612 2.524509,4.65634 0.53261,1.03641 1.068891,2.07615 1.71157,3.05 0.529936,0.77886 1.044713,1.56887 1.607529,2.32471 0.400673,0.64949 1.048529,1.03996 1.66772,1.45119 0.562976,0.43173 1.117199,0.86695 1.708287,1.26128 0.977483,0.60554 1.84624,1.36356 2.749292,2.07038 1.30363,0.94649 2.526351,1.99388 3.715452,3.07758 0.961363,0.85435 1.92288,1.70916 2.921274,2.52049 0.554636,0.45079 1.101762,0.91482 1.67973,1.33739 0.743633,0.5649 1.493947,1.10843 2.288913,1.59985 1.51971,1.03092 2.83815,2.32451 4.26871,3.47125 0.64952,0.52069 1.31214,1.025 1.96821,1.5375 2.67689,2.12547 5.5656,3.97848 8.19457,6.16361 1.3505,1.18202 2.62473,2.44716 3.82759,3.77705 0.99771,1.23029 2.0162,2.45586 2.91302,3.76315 0.2582,0.37638 0.78649,1.24909 1.02022,1.63009 1.25128,2.14924 2.43861,4.33437 3.73615,6.4569 1.1427,2.0669 2.57167,3.94531 3.99884,5.82108 1.4427,1.95574 2.85357,3.93411 4.21615,5.94611 0.60954,1.04362 1.3417,2.00297 2.0353,2.98977 0.56634,0.71714 0.99261,1.52301 1.4749,2.29469 0.35975,0.69807 0.82482,1.33049 1.23534,1.99743 0.37358,0.58616 0.77186,1.15532 1.22739,1.68185 0.44875,0.55388 0.83825,1.1475 1.30905,1.68353 0.52139,0.55637 1.05604,1.09963 1.57547,1.6579 0.60255,0.59196 1.14415,1.22852 1.66486,1.89031 0.44313,0.56691 0.84741,1.1603 1.23753,1.7641 0.48704,0.68486 1.00222,1.34644 1.48355,2.03593 0.73271,1.16594 1.64289,2.19161 2.55136,3.22002 0.40169,0.47083 0.83404,0.95871 1.09586,1.52607 0.27307,0.42568 0.47957,0.88389 0.70358,1.33554 0.22808,0.47734 0.52508,0.90898 0.83565,1.33508 0.20873,0.37574 0.4737,0.71991 0.75833,1.04167 1.00966,1.09143 2.56034,-0.32985 1.55069,-1.42127 v 0 c -0.26109,-0.23076 -0.40669,-0.57838 -0.60608,-0.857 -0.24181,-0.32859 -0.47677,-0.65623 -0.64932,-1.02905 -0.22532,-0.45235 -0.42899,-0.91597 -0.70611,-1.34065 -0.37181,-0.71807 -0.85501,-1.37827 -1.39987,-1.97623 -0.85598,-0.96818 -1.71652,-1.93059 -2.40307,-3.03154 -0.46702,-0.66892 -0.9625,-1.31406 -1.44168,-1.97357 -0.42565,-0.65872 -0.86896,-1.30489 -1.35168,-1.92385 -0.55731,-0.7064 -1.13513,-1.38837 -1.77741,-2.02168 -0.51021,-0.54782 -1.03537,-1.08077 -1.54722,-1.62694 -0.47605,-0.51659 -0.82472,-1.13428 -1.28971,-1.66159 -0.385,-0.43971 -0.71411,-0.92065 -1.02813,-1.41186 -0.41707,-0.66717 -0.87758,-1.30488 -1.24033,-2.0054 -0.50467,-0.80117 -0.94737,-1.64136 -1.53676,-2.38772 -0.68787,-0.97544 -1.41026,-1.9257 -2.0136,-2.95836 -1.38422,-2.0439 -2.81766,-4.05363 -4.28367,-6.04012 -1.38437,-1.81923 -2.7731,-3.63872 -3.87865,-5.64528 -1.29893,-2.12298 -2.48295,-4.3113 -3.7379,-6.45973 -0.31365,-0.51081 -0.77606,-1.27809 -1.11378,-1.76967 -0.9395,-1.36754 -2.00511,-2.65042 -3.05296,-3.935 -1.272,-1.40146 -2.61411,-2.7397 -4.04321,-3.98347 -2.64875,-2.19421 -5.54362,-4.07205 -8.24316,-6.20272 -0.6408,-0.50023 -1.28801,-0.99246 -1.92244,-1.5007 -1.50597,-1.20647 -2.89043,-2.57286 -4.5038,-3.63987 -0.75016,-0.46337 -1.455266,-0.97883 -2.157443,-1.51162 -0.550694,-0.39739 -1.067632,-0.84095 -1.591932,-1.26997 -0.96912,-0.78318 -1.895914,-1.61651 -2.829212,-2.44137 -1.228413,-1.11849 -2.490272,-2.20117 -3.835882,-3.1793 -0.945255,-0.73933 -1.855977,-1.52976 -2.878688,-2.16394 -0.592584,-0.39503 -1.140282,-0.84094 -1.712363,-1.26399 -0.422552,-0.28016 -0.882966,-0.50856 -1.147354,-0.95996 -0.544567,-0.72037 -1.026921,-1.48581 -1.539636,-2.22862 -0.612066,-0.91008 -1.095585,-1.90131 -1.604483,-2.87021 -0.818097,-1.54295 -1.684697,-3.06036 -2.498585,-4.60577 -0.518969,-1.04699 -1.01355,-2.10726 -1.56066,-3.13975 -0.351652,-0.7001 -0.693959,-1.40331 -1.094529,-2.07772 -0.537969,-0.98984 -1.07786,-1.9778 -1.61268,-2.96954 -0.706073,-1.33644 -1.436411,-2.66148 -2.021148,-4.05708 -0.477611,-1.27978 -0.871858,-2.58515 -1.270093,-3.89141 -0.888491,-2.7216 -1.773121,-5.444496 -2.696912,-8.154548 -0.385584,-1.031283 -0.665985,-1.864113 -1.153011,-2.849842 -0.702001,-1.420837 -1.651784,-2.710685 -2.598778,-3.974587 -1.09357,-1.31227 -2.27413,-2.540926 -3.503052,-3.726986 -0.349143,-0.706357 -0.540701,-1.49542 -0.774745,-2.244577 -0.21112,-0.704417 -0.404217,-1.264034 -0.302216,-2.019793 0.04463,-2.053025 0.152541,-4.103982 0.272567,-6.153852 0.226389,-3.606256 0.603471,-7.208421 0.641143,-10.82233 -0.121133,-1.512917 -0.379471,-2.99822 -0.748201,-4.47178 -0.194546,-0.906925 -0.42238,-1.806067 -0.686939,-2.695348 -0.23452,-0.751565 -0.300616,-1.545536 -0.558981,-2.292348 -0.272621,-1.065678 -0.557715,-2.127546 -0.772844,-3.207068 -0.269028,-1.118432 -0.540436,-2.235598 -0.844411,-3.345165 -0.307921,-1.258774 -0.71973,-2.48918 -1.085832,-3.731949 -0.416043,-1.420425 -0.858565,-2.833095 -1.287657,-4.24958 -0.24387,-0.920296 -0.494974,-1.838222 -0.728739,-2.760789 -0.139725,-0.561018 -0.338057,-1.110659 -0.356062,-1.694485 -0.08713,-0.712846 -0.248884,-1.402094 -0.471348,-2.084929 -0.32295,-0.914316 -0.777849,-1.767642 -1.393402,-2.523302 -0.954219,-1.139776 -2.573583,0.203463 -1.619364,1.343241 z" />
    <path
       style="fill:#000000;fill-opacity:1;stroke:none;stroke-width:0.529167;stroke-opacity:1;paint-order:stroke fill markers"
       id="path2146"
       d="m 85.269233,27.875116 c 0.671695,0.814774 -0.564216,1.597625 -0.365009,2.372606 0.172861,0.672491 0.925574,1.036203 1.35931,1.578419 0.470345,0.587984 0.900856,1.206754 1.351286,1.810129 0.332674,0.750088 1.393454,0.279617 1.060783,-0.470469 v 0 c -0.839181,-0.432999 -1.913736,-0.572958 -2.517545,-1.298993 -0.418703,-0.503457 -0.08675,-1.308545 -0.188933,-1.955337 -0.235056,-1.487884 -0.134036,-1.137608 -1.071798,-2.036355 0,0.262975 0.371906,0.262975 0.371906,0 z" />
    <path
       style="fill:#000000;fill-opacity:1;stroke:none;stroke-width:0.529167;stroke-opacity:1;paint-order:stroke fill markers"
       id="path2148"
       d="m 117.78796,36.674202 c 2.67116,-1.020511 -0.79364,-0.06489 1.17855,1.164029 0.60223,0.375269 1.56289,-0.534752 2.12625,-0.103309 0.66849,0.511958 0.12533,1.945341 0.84649,2.37997 0.88472,0.533196 2.09286,-0.236506 3.09889,-0.0021 0.82675,0.192566 1.48223,0.827889 2.22335,1.241832 2.03398,2.326976 1.05904,1.194097 2.92811,3.395779 0.74147,0.707406 1.74189,-0.341188 1.00042,-1.048591 v 0 c -3.28764,-0.776161 -1.54423,-0.493699 -5.24211,-0.770554 -2.16321,-5.481021 0.60093,-0.525979 -3.57,-3.376912 -0.61701,-0.421743 -0.65329,-1.415804 -1.25663,-1.856872 -0.48706,-0.356052 -1.18893,-0.211651 -1.77406,-0.35868 -0.37003,-0.09298 -0.73171,-0.219704 -1.08647,-0.360098 -0.17652,-0.06985 -0.3348,-0.179064 -0.50219,-0.268597 0.0253,0.0208 0.0547,-0.01503 0.0294,-0.03582 z" />
    <path
       style="fill:#000000;fill-opacity:1;stroke:none;stroke-width:0.529167;stroke-opacity:1;paint-order:stroke fill markers"
       id="path2150"
       d="m 94.765666,63.548881 c 0.444108,-0.0491 0.885674,-0.159343 1.332328,-0.147291 0.949989,0.02564 2.565378,0.390559 3.403486,0.777187 0.6155,0.283935 1.15408,0.711298 1.7305,1.067938 0.62745,0.388204 1.1623,1.000175 1.88111,1.166595 0.87628,0.20288 1.79751,-0.07122 2.69627,-0.10683 3.04917,0.86115 1.58256,0.351316 4.40631,1.510704 -0.0686,-0.03282 -0.11497,0.06415 -0.0464,0.09697 v 0 c -3.02623,-0.680794 -1.59404,-0.104333 -4.28624,-1.754862 -0.86532,-0.02606 -1.73063,-0.05212 -2.59595,-0.07818 -0.70318,-0.245247 -1.36762,-0.671285 -2.10954,-0.735743 -0.84926,-0.07378 -1.699445,0.497573 -2.5357,0.332179 -0.602091,-0.119083 -0.953937,-0.77457 -1.459632,-1.122373 -1.15557,-0.794771 -1.160833,-0.727302 -2.320322,-1.158774 -0.10782,-0.06803 -0.204031,0.08445 -0.09621,0.152482 z" />
    <path
       style="fill:#000000;fill-opacity:1;stroke:none;stroke-width:0.529167;stroke-opacity:1;paint-order:stroke fill markers"
       id="path2152"
       d="m 146.8684,60.487665 c -0.13133,0.345281 -0.45572,0.671621 -0.394,1.035844 0.0498,0.293902 0.48008,0.362564 0.66993,0.592383 0.24232,0.293347 0.35896,0.679948 0.61419,0.962136 0.73573,0.813459 1.27209,0.924034 2.19858,1.476923 0.35422,0.211381 0.69074,0.451094 1.0361,0.676638 -0.34109,-0.426091 -0.94367,0.05629 -0.60258,0.48238 v 0 c -2.48642,-4.215 1.86042,2.629331 -2.06198,-1.474761 -0.32574,-0.340826 -0.0238,-0.99763 -0.29503,-1.383247 -0.23646,-0.33618 -0.77054,-0.319709 -1.08714,-0.581805 -0.22702,-0.187929 -0.31851,-0.496793 -0.49806,-0.730483 -0.11758,-0.15303 -0.26076,-0.284552 -0.39114,-0.426829 0.4449,0.573559 1.25603,-0.05562 0.81113,-0.629179 z" />
    <path
       style="fill:#000000;fill-opacity:1;stroke:none;stroke-width:0.529167;stroke-opacity:1;paint-order:stroke fill markers"
       id="path2154"
       d="m 127.14364,78.913314 c 0.55056,1.988434 -0.0782,1.157589 2.6489,1.659374 -0.52658,-0.691157 -1.50402,0.05354 -0.97744,0.744699 v 0 c -2.17437,-1.175962 -1.78453,-0.280564 -1.43953,-2.551684 -0.10438,-0.164002 -0.33631,-0.0164 -0.23193,0.147611 z" />
    <path
       style="fill:#000000;fill-opacity:1;stroke:none;stroke-width:0.529167;stroke-opacity:1;paint-order:stroke fill markers"
       id="path2156"
       d="m 164.55281,83.574119 c 1.03272,0.04241 1.36182,1.334222 2.5299,1.169101 0.80846,-0.114284 1.44425,-0.960718 2.26056,-0.943345 0.64768,0.01378 1.03766,0.815729 1.65021,1.026572 0.65562,0.225669 1.37652,0.168103 2.06478,0.252154 1.85241,-1.143701 2.12194,1.669015 3.38367,1.699037 6.91495,0.164545 -1.0041,-2.244449 3.23596,-0.779325 -0.11624,-0.03365 -0.16382,0.13075 -0.0476,0.164397 v 0 c -4.92459,0.515614 2.52927,2.27e-4 -2.72697,-0.626449 -3.97475,-0.47389 -0.2998,1.704726 -3.67674,-0.871522 -1.61164,0.12296 -2.67506,0.322901 -4.26793,0.0019 -0.54911,-0.110681 -1.03038,-0.477433 -1.58442,-0.559914 -0.49535,-0.07374 -1.0098,0.207957 -1.49903,0.100883 -0.31063,-0.06799 -0.44232,-0.503558 -0.74759,-0.592596 -0.2237,-0.06525 -0.4508,0.118208 -0.6762,0.177314 0.15425,0.07168 0.25562,-0.146463 0.10138,-0.218144 z" />
    <path
       style="fill:#000000;fill-opacity:1;stroke:none;stroke-width:0.529167;stroke-opacity:1;paint-order:stroke fill markers"
       id="path2158"
       d="m 187.47388,97.111792 c -0.11797,0.143349 -0.23595,0.2867 -0.35393,0.430049 0.0374,0.23401 0.22742,0.494916 0.11226,0.702035 -0.16878,0.303553 -0.77622,0.271486 -0.84307,0.612314 -0.0832,0.424315 0.66476,0.807979 0.48719,1.20223 -0.18471,0.41008 -0.90604,0.21364 -1.25352,0.49918 -0.24941,0.20496 -0.27825,0.58261 -0.41738,0.87392 -0.0709,0.10935 0.0838,0.20957 0.15465,0.10021 v 0 c 0.19729,-0.26456 0.33904,-0.58158 0.59189,-0.79367 0.31751,-0.26633 0.92156,-0.22924 1.08275,-0.61103 0.15749,-0.373011 -0.51654,-0.80852 -0.3314,-1.168605 0.20514,-0.398952 0.81473,-0.375764 1.22209,-0.563647 -0.0437,-0.258265 -0.16363,-0.514879 -0.13115,-0.7748 0.0242,-0.193773 0.19432,-0.338791 0.29148,-0.508186 0,-0.432646 -0.61186,-0.432646 -0.61186,0 z" />
    <path
       style="fill:#000000;fill-opacity:1;stroke:none;stroke-width:0.529167;stroke-opacity:1;paint-order:stroke fill markers"
       id="path2160"
       d="m 143.41979,98.929191 c -0.57994,-0.176884 -3.08736,-1.616837 -3.4663,-1.448519 -3.607,1.60215 1.96897,2.873588 -2.90483,1.134766 -0.23611,0.08571 -0.1149,0.419616 0.1212,0.333909 v 0 c 2.63833,-1.703834 -0.0216,-0.479142 3.18314,-0.322558 0.4639,0.02267 0.86925,-0.386927 1.33337,-0.404488 0.91075,-0.03445 1.15884,0.234453 1.74679,0.654823 -0.0368,-0.0094 -0.0502,0.04261 -0.0134,0.05207 z" />
    <path
       style="fill:#000000;fill-opacity:1;stroke:none;stroke-width:0.529167;stroke-opacity:1;paint-order:stroke fill markers"
       id="path2162"
       d="m 103.96195,91.778671 c -0.33394,-0.04706 -0.82722,0.147349 -1.00181,-0.141177 -0.34186,-0.564956 0.0466,-1.383461 -0.27104,-1.962367 -0.63771,-1.162163 -2.733979,-1.909339 -3.698724,-2.506823 -3.297991,-2.042507 -0.530288,-1.214311 -4.829011,-1.798852 0.346896,0.330618 0.814462,-0.159965 0.467567,-0.490583 v 0 c 2.63892,1.794053 1.264758,0.947614 4.128315,2.529817 1.212852,0.795961 2.306453,1.872818 3.414493,2.80141 0.39973,0.334997 0.88923,0.574929 1.22351,0.975263 0.1944,0.232809 0.20419,0.571201 0.30629,0.856802 0.18632,0.184135 0.44672,-0.07935 0.26041,-0.26349 z" />
    <path
       style="fill:#000000;fill-opacity:1;stroke:none;stroke-width:0.529167;stroke-opacity:1;paint-order:stroke fill markers"
       id="path2164"
       d="m 127.10495,65.258245 c -0.11164,0.12826 -0.38817,0.223288 -0.33492,0.384776 0.13441,0.407636 0.67135,0.601617 0.79562,1.01246 0.33734,1.115309 -0.52641,1.319104 -1.22253,1.787334 0.38138,-0.648242 -0.53538,-1.187593 -0.91676,-0.53935 v 0 c 0.81431,-0.716939 0.85903,-0.662826 1.44882,-1.515399 0.14135,-0.204335 0.18584,-0.484467 0.37727,-0.642866 0.2829,-0.234095 0.65875,-0.324635 0.98812,-0.486955 0,-0.80301 -1.13562,-0.80301 -1.13562,0 z" />
    <path
       style="fill:#000000;fill-opacity:1;stroke:none;stroke-width:0.529167;stroke-opacity:1;paint-order:stroke fill markers"
       id="path2166"
       d="m 93.886257,46.116676 c -0.181655,0.452496 -1.311788,-0.08326 -1.401778,0.393652 -0.08578,0.454605 0.611507,0.809826 0.560559,1.269641 -0.03622,0.326895 -0.493697,0.438456 -0.769649,0.617405 -1.052348,0.682418 -1.112959,0.564509 -2.399355,0.843071 -0.325398,0.285451 -0.650799,0.570902 -0.976197,0.856353 0.247418,-0.207357 -0.04583,-0.55726 -0.293248,-0.349904 v 0 c 0.391692,-0.203589 0.783386,-0.407178 1.175078,-0.610767 0.294878,-0.260172 0.522301,-0.627692 0.884637,-0.780518 0.440352,-0.185729 2.006259,-0.0432 2.440755,-0.530989 0.202414,-0.227246 -0.161568,-0.699048 0.0566,-0.91121 0.873445,-0.849386 2.210647,0.980769 -0.03347,-1.180049 -0.271044,0.534617 0.485018,0.917932 0.756063,0.383315 z" />
    <path
       style="fill:#000000;fill-opacity:1;stroke:none;stroke-width:0.529167;stroke-opacity:1;paint-order:stroke fill markers"
       id="path2168"
       d="m 105.31126,109.73019 c 0.35874,0.75319 -0.089,0.11061 1.01982,0.27994 0.22678,0.0346 0.40947,0.207 0.6142,0.3105 -0.51784,-0.39262 -1.07309,0.33972 -0.55525,0.73234 v 0 c -0.0595,-1.16861 0.13968,-1.25411 -1.00422,-1.38872 -0.0466,-0.0527 -0.12118,0.0132 -0.0746,0.0659 z" />
    <path
       style="fill:#000000;fill-opacity:1;stroke:none;stroke-width:0.529167;stroke-opacity:1;paint-order:stroke fill markers"
       id="path2170"
       d="m 131.26426,106.74376 c 0.54496,-0.10953 1.02747,0.24732 1.55208,0.26818 0.35585,0.0142 0.70212,-0.12391 1.05657,-0.15845 0.45422,-0.0443 0.95431,0.11732 1.36689,-0.0777 0.46646,-0.22052 0.73357,-0.72577 1.10035,-1.08865 -0.52927,0.22777 -0.20717,0.97627 0.32211,0.74851 v 0 c -1.0146,0.1803 -1.79168,0.37854 -2.82633,0.33519 -0.41136,-0.0172 -0.81949,-0.27463 -1.22127,-0.18469 -0.26044,0.0583 -0.29951,0.4907 -0.55054,0.58132 -0.20109,0.0726 -0.41436,-0.10547 -0.62155,-0.15821 0.18773,-0.12608 0.009,-0.39156 -0.17831,-0.26548 z" />
    <path
       style="fill:#000000;fill-opacity:1;stroke:none;stroke-width:0.529167;stroke-opacity:1;paint-order:stroke fill markers"
       id="path2172"
       d="m 125.9293,122.90894 c -1.12263,1.22516 0.32448,-0.0539 -1.40605,0.33602 -0.38371,0.0865 -0.66841,0.41481 -1.00261,0.62222 0.30345,-0.10628 0.15315,-0.53542 -0.1503,-0.42915 v 0 c 0.43779,0.0904 0.86702,0.29563 1.31337,0.27112 0.32304,-0.0177 0.9784,-0.57295 1.23908,-0.77486 0.0179,0.005 0.0244,-0.0207 0.007,-0.0254 z" />
    <path
       style="fill:#000000;fill-opacity:1;stroke:none;stroke-width:0.529167;stroke-opacity:1;paint-order:stroke fill markers"
       id="path2174"
       d="m 131.53495,151.82485 c 0.061,-0.18785 0.65892,-2.04281 0.68399,-2.05793 3.98263,-2.4026 -0.006,2.15334 2.65356,-1.27271 0.0866,-0.0952 -0.048,-0.21763 -0.13461,-0.12245 v 0 c -0.31383,0.36045 -0.67121,0.68718 -0.94149,1.08134 -0.26611,0.38807 -0.30178,0.9407 -0.65681,1.2495 -0.31573,0.27463 -0.88279,0.0942 -1.20078,0.36623 -0.23973,0.20508 -0.18872,0.60208 -0.28309,0.90313 0.10402,-0.0854 -0.0168,-0.23251 -0.12077,-0.14711 z" />
    <path
       style="fill:#000000;fill-opacity:1;stroke:none;stroke-width:0.529167;stroke-opacity:1;paint-order:stroke fill markers"
       id="path2176"
       d="m 141.69598,142.74093 c 0.36458,0.72156 -0.0444,0.18897 0.69219,0.45301 0.16327,0.0585 0.29997,0.17563 0.43903,0.27929 0.14839,0.1106 0.23864,0.33091 0.42111,0.36184 0.32099,0.0544 0.68728,-0.2904 0.96848,-0.12634 0.2292,0.13372 0.10253,0.52073 0.1538,0.78109 0.16663,0.24417 0.51194,0.009 0.34531,-0.23565 v 0 c -0.0657,-0.11067 -0.659,-1.17451 -0.83713,-1.2238 -0.29752,-0.0823 -0.59868,0.23936 -0.90465,0.1983 -0.18483,-0.0248 -0.23566,-0.42706 -0.41484,-0.37536 -0.3715,0.10719 -0.52811,0.60064 -0.88462,0.75032 -0.1088,0.0457 -0.12516,-0.20008 -0.18773,-0.30012 0.3978,0.14783 0.60686,-0.41476 0.20905,-0.56258 z" />
    <path
       style="fill:#000000;fill-opacity:1;stroke:none;stroke-width:0.529167;stroke-opacity:1;paint-order:stroke fill markers"
       id="path2178"
       d="m 143.60692,165.66409 c 0.56296,0.49592 0.74207,1.25209 1.18632,1.82615 0.36925,0.47715 1.25484,0.71792 1.23737,1.321 -0.23129,7.9841 -2.63148,-3.20552 -0.88985,3.59495 0.0517,0.31904 0.50295,0.24586 0.4512,-0.0732 v 0 c -0.54475,-0.5129 -1.34238,-0.84976 -1.63425,-1.53869 -0.45987,-1.0855 0.76306,-2.30608 0.76431,-3.29701 5.3e-4,-0.40583 -0.43694,-0.70331 -0.52117,-1.1003 -0.0515,-0.24284 0.0881,-0.48861 0.13223,-0.73292 0,-0.51347 -0.72616,-0.51347 -0.72616,0 z" />
    <path
       style="fill:#000000;fill-opacity:1;stroke:none;stroke-width:0.529167;stroke-opacity:1;paint-order:stroke fill markers"
       id="path2180"
       d="m 167.07837,182.81193 c 0.62395,0.56334 0.68945,1.04484 1.39661,0.23886 0.26323,-0.30001 0.2074,-0.98201 0.60306,-1.03439 3.57086,-0.47274 0.48859,2.39163 2.98743,-0.61503 -0.15153,0.10134 -0.008,0.31564 0.14332,0.2143 v 0 c -0.34089,0.27204 -1.87376,1.59274 -2.44467,1.71225 -0.41092,0.086 -0.82871,-0.1385 -1.24631,-0.18174 -1.22487,-0.12685 -0.53032,0.21921 -1.49481,-0.54991 -0.1525,0.0392 -0.0971,0.25481 0.0554,0.21566 z" />
    <path
       style="fill:#000000;fill-opacity:1;stroke:none;stroke-width:0.529167;stroke-opacity:1;paint-order:stroke fill markers"
       id="path2182"
       d="m 189.51161,154.49595 c 0.26354,-0.10012 0.67485,-0.0433 0.79061,-0.30037 0.12848,-0.28529 -0.28295,-0.59451 -0.24762,-0.9054 0.0413,-0.36315 0.3307,-0.65319 0.46345,-0.99372 0.15684,-0.40233 0.19374,-0.85362 0.40377,-1.23092 0.25798,-0.46345 1.0086,-0.72443 0.9795,-1.25404 -0.0375,-0.68291 -0.76139,-1.13637 -1.14208,-1.70456 -0.13676,0.74994 0.92381,0.94334 1.06057,0.1934 v 0 c 0.085,0.51586 0.41052,1.04846 0.25488,1.54756 -0.16474,0.52827 -0.7675,0.79883 -1.11967,1.22567 -0.29403,0.35637 -0.54095,0.74916 -0.81597,1.1204 -0.22853,0.30848 -0.62586,0.54098 -0.69462,0.91868 -0.0598,0.32846 0.29344,0.60805 0.357,0.93581 0.0333,0.17147 -0.05,0.34574 -0.0749,0.51861 0.0503,-0.15194 -0.16459,-0.22306 -0.21488,-0.0711 z" />
    <path
       style="fill:#000000;fill-opacity:1;stroke:none;stroke-width:0.529167;stroke-opacity:1;paint-order:stroke fill markers"
       id="path2184"
       d="m 177.67336,131.23737 c -0.52562,2.32185 0.19346,-1.17846 -0.13291,2.1199 -0.0587,0.59328 -0.40561,1.15932 -0.3536,1.75322 0.0638,0.72858 0.65817,1.35225 0.68958,2.08295 0.033,0.76716 -0.33562,1.49863 -0.50343,2.24794 0.0156,0.34894 0.50908,0.32688 0.49348,-0.0221 v 0 c -0.12835,-0.73923 -0.22202,-1.48533 -0.38506,-2.2177 -0.15721,-0.70617 -0.65122,-1.37356 -0.57457,-2.09295 0.0705,-0.66116 0.65504,-1.1573 0.98256,-1.73594 -0.0397,-0.43454 -0.1323,-0.86745 -0.11922,-1.3036 0.008,-0.27419 0.1216,-0.53498 0.1824,-0.80247 0.0207,-0.19744 -0.25853,-0.22672 -0.27923,-0.0293 z" />
    <path
       style="fill:#000000;fill-opacity:1;stroke:none;stroke-width:0.529167;stroke-opacity:1;paint-order:stroke fill markers"
       id="path2186"
       d="m 163.13734,157.2524 c -0.27953,-0.0511 -0.62331,0.0322 -0.8386,-0.15323 -0.1831,-0.15773 -0.0544,-0.4898 -0.16012,-0.7071 -0.16464,-0.33828 -0.41202,-0.6302 -0.63739,-0.93145 -0.29552,-0.39502 -0.77799,-0.68478 -0.92423,-1.15593 -0.17475,-0.563 0.23704,-1.22169 0.0165,-1.76839 -0.26976,-0.66885 -0.93087,-1.10181 -1.39631,-1.65271 0.41714,-4.43599 0.57219,-0.3357 -1.26729,-4.15773 -0.30282,-0.62918 -0.26367,-1.3714 -0.3955,-2.05711 0.17454,0.60251 1.02661,0.35568 0.85208,-0.24683 v 0 c 0.093,0.69557 0.10289,1.40743 0.27911,2.08671 2.27561,8.77198 -0.54788,-4.59723 1.22181,4.16812 2.87755,3.43035 0.62287,-0.22042 0.70555,3.62322 5e-5,0.002 1.24037,2.01884 1.37583,2.14531 0.24435,0.22814 0.71765,0.18243 0.88497,0.47184 0.1032,0.17852 -0.19944,0.36098 -0.29916,0.54147 0.1458,0.41203 0.7285,0.20584 0.5827,-0.20619 z" />
    <path
       style="fill:#000000;fill-opacity:1;stroke:none;stroke-width:0.529167;stroke-opacity:1;paint-order:stroke fill markers"
       id="path2188"
       d="m 151.90477,123.86377 c 0.45951,0.23445 1.52554,1.12925 2.12196,0.27859 0.3259,-0.46481 0.28504,-1.09899 0.42756,-1.64849 -0.384,0.25314 -0.026,0.79619 0.35798,0.54305 v 0 c -0.35685,0.22554 -0.65669,0.59337 -1.07055,0.67662 -1.6727,0.33644 -1.28094,-1.11854 -1.33091,0.87473 0.51229,-0.35782 0.006,-1.08232 -0.50604,-0.7245 z" />
    <path
       style="fill:#000000;fill-opacity:1;stroke:none;stroke-width:0.529167;stroke-opacity:1;paint-order:stroke fill markers"
       id="path2190"
       d="m 170.35795,112.53151 c -0.0402,-0.1979 -0.20536,-0.41033 -0.12074,-0.5937 0.17232,-0.3734 0.76558,-0.51411 0.82009,-0.92173 0.19937,-1.49095 -1.84048,-1.2537 -2.17396,-2.259 -0.17883,-0.5391 0.65397,-0.97226 0.74368,-1.53312 0.0762,-0.47612 -0.18083,-0.94724 -0.27124,-1.42087 0.049,0.2756 0.43874,0.20631 0.38975,-0.0693 v 0 c 2.04334,5.75942 -0.9973,-4.03867 -0.69822,3.00271 0.0248,0.58461 0.99695,0.67332 1.31164,1.16662 0.20539,0.32197 0.075,0.76187 0.1566,1.13494 0.28371,1.29668 0.46157,0.48668 0.038,1.52074 0.0193,-0.13827 -0.17624,-0.16557 -0.19555,-0.0273 z" />
    <path
       style="fill:#000000;fill-opacity:1;stroke:none;stroke-width:0.529167;stroke-opacity:1;paint-order:stroke fill markers"
       id="path2192"
       d="m 159.93342,68.310415 c 3.07357,0.90419 -0.46964,0.281131 1.3573,-0.932346 0.47642,-0.31644 1.15297,0.113493 1.71576,0.01162 0.49696,-0.08996 0.93426,-0.383921 1.40139,-0.575882 0.91986,-0.832609 -0.25763,-2.133486 -1.17749,-1.300877 v 0 c -0.3278,0.340884 -0.6731,0.665777 -0.98342,1.022655 -0.28397,0.326572 -0.48995,0.719899 -0.79699,1.024884 -0.23552,0.233945 -0.60442,0.316717 -0.81336,0.574686 -0.14737,0.181959 -0.13198,0.449326 -0.19797,0.673986 0.35266,-0.357243 -0.15257,-0.855969 -0.50522,-0.498723 z" />
    <path
       style="fill:#000000;fill-opacity:1;stroke:none;stroke-width:0.529167;stroke-opacity:1;paint-order:stroke fill markers"
       id="path2194"
       d="m 165.23022,55.397291 c -1.5362,-0.681763 0.15861,0.268949 -1.01977,-1.291487 -0.25967,-0.343866 -0.7463,-0.464439 -1.01333,-0.802621 -0.32558,-0.412332 -0.26231,-1.151015 -0.7253,-1.39931 -3.20862,-1.720739 -2.0008,1.747869 -2.6357,-2.200593 -0.0449,-0.05203 -0.11846,0.01143 -0.0736,0.06347 v 0 c 0.44988,0.361762 0.97622,0.645019 1.34961,1.085286 0.36991,0.436166 0.35624,1.190702 0.83973,1.496176 0.56909,0.359564 1.48998,-0.145618 1.99761,0.296498 0.39457,0.343643 -0.19978,1.164119 0.13813,1.563613 0.29055,0.343517 0.89171,0.1207 1.33756,0.181052 0.10467,0.204372 0.20935,0.408741 0.31402,0.613114 -0.27917,-0.359903 -0.78814,0.0349 -0.50897,0.394803 z" />
    <path
       style="fill:#000000;fill-opacity:1;stroke:none;stroke-width:0.529167;stroke-opacity:1;paint-order:stroke fill markers"
       id="path2196"
       d="m 117.79504,18.685278 c -0.38047,-0.09277 -1.56675,-0.457597 -1.94689,-0.213625 -0.34077,0.218702 -0.39843,0.70503 -0.59765,1.057544 0.16121,-0.09019 0.0337,-0.31818 -0.12755,-0.227986 v 0 c 0.37252,-0.04055 0.7844,0.04987 1.11756,-0.121666 1.84283,-0.948827 -0.53852,-0.816197 1.42409,-0.750888 -0.18145,0.09223 -0.051,0.348849 0.13044,0.256621 z" />
    <path
       style="fill:#000000;fill-opacity:1;stroke:none;stroke-width:0.529167;stroke-opacity:1;paint-order:stroke fill markers"
       id="path2198"
       d="m 93.411703,16.296874 c -0.497099,0.402638 -1.554792,0.571367 -1.491295,1.207914 0.05311,0.532359 1.054891,-0.229224 1.589815,-0.220272 0.365869,0.0061 0.835382,-0.01991 1.065361,0.264708 3.010686,3.725953 -2.63294,-0.54352 1.639498,2.369065 0.261464,0.189205 0.52904,-0.180561 0.267576,-0.369766 v 0 c -1.05302,-1.052039 -0.911564,-1.13086 -2.238465,-1.672632 -0.353277,-0.144244 -0.857678,-0.02982 -1.097084,-0.326972 -0.177604,-0.220438 0.359611,-0.630971 0.161989,-0.833657 -0.214207,-0.219692 -0.612474,0.03837 -0.918711,0.05755 0.33654,0.722178 1.357853,0.246242 1.021316,-0.475938 z" />
    <path
       style="fill:#000000;fill-opacity:1;stroke:none;stroke-width:0.529167;stroke-opacity:1;paint-order:stroke fill markers"
       id="path2200"
       d="m 194.73485,68.439614 c -0.12552,0.780219 -0.15442,0.321059 0.47818,1.294728 0.10858,-0.382561 -0.43244,-0.53612 -0.54102,-0.153559 v 0 c 0.34775,-0.886862 0.0608,-0.517141 0.90027,-1.077272 0.0452,-0.592151 -0.79224,-0.656048 -0.83743,-0.0639 z" />
    <path
       style="fill:#000000;fill-opacity:1;stroke:none;stroke-width:0.529167;stroke-opacity:1;paint-order:stroke fill markers"
       id="path2202"
       d="m 202.01533,105.36156 c 3.16445,0.79534 -0.78732,-0.54637 -0.0908,1.54964 0.20706,0.62311 1.39743,0.18048 1.86111,0.64538 0.29368,0.29445 -0.14514,0.86858 0.0266,1.24732 0.19865,0.43804 0.67165,0.68865 1.00748,1.03297 0.008,0.039 0.0633,0.0273 0.0551,-0.0116 v 0 c -2.73247,-2.01939 -0.54891,0.22388 -0.92852,-2.30898 -0.0593,-0.3959 -0.61522,-0.57348 -0.72289,-0.95906 -0.0895,-0.32062 0.12054,-0.65476 0.18081,-0.98215 -0.0666,-0.19074 -0.13314,-0.38148 -0.19972,-0.57222 -0.25365,-0.84089 -1.44284,-0.48217 -1.18919,0.35872 z" />
    <path
       style="fill:#000000;fill-opacity:1;stroke:none;stroke-width:0.529167;stroke-opacity:1;paint-order:stroke fill markers"
       id="path2204"
       d="m 194.07783,128.58307 c -0.20551,-0.0119 -0.41103,-0.0238 -0.61654,-0.0357 0.0355,0.0131 0.054,-0.037 0.0186,-0.0502 v 0 c 0.32611,-0.3055 0.65222,-0.61101 0.97833,-0.91651 -0.70879,-0.26895 -1.08914,0.73342 -0.38036,1.00237 z" />
    <path
       style="fill:#000000;fill-opacity:1;stroke:none;stroke-width:0.529167;stroke-opacity:1;paint-order:stroke fill markers"
       id="path2206"
       d="m 200.00856,165.67623 c -0.58484,0.28835 -0.25423,0.12964 -0.99468,0.47017 -0.33441,0.73649 0.70714,1.20942 1.04156,0.47293 v 0 c -0.80157,-1.15925 -0.88371,-0.84183 0.71776,-0.67252 0.19134,-0.54069 -0.57332,-0.81127 -0.76464,-0.27058 z" />
    <path
       style="fill:#000000;fill-opacity:1;stroke:none;stroke-width:0.529167;stroke-opacity:1;paint-order:stroke fill markers"
       id="path2208"
       d="m 191.28153,179.4319 c -0.19513,0.0698 -0.94597,0.30739 -1.02826,0.49021 -0.13075,0.29049 0.13101,0.67107 -0.0123,0.95558 -0.12538,0.24894 -0.49122,0.2729 -0.69964,0.45797 -1.07033,0.9504 0.0892,0.54884 -1.51851,0.80546 0.0759,-0.0607 -0.01,-0.16807 -0.0858,-0.10737 v 0 c 0.008,-0.39073 -0.16436,-0.83033 0.0251,-1.17217 0.32988,-0.59532 1.88161,-0.0986 2.10327,-0.13901 1.00854,-0.18364 0.11806,-1.54469 1.27394,-1.24048 0.0355,-0.0408 -0.0222,-0.091 -0.0577,-0.0502 z" />
    <path
       style="fill:#000000;fill-opacity:1;stroke:none;stroke-width:0.529167;stroke-opacity:1;paint-order:stroke fill markers"
       id="path2210"
       d="m 185.90133,171.62957 c -1.41043,-0.60947 -0.71101,-0.23075 -2.08121,-1.16712 0.10625,0.4143 0.69216,0.26403 0.58591,-0.15027 v 0 c 0.10777,1.23881 -0.17827,0.78082 0.73199,1.44513 0.0903,0.53974 0.85363,0.412 0.76331,-0.12774 z" />
    <path
       style="fill:#000000;fill-opacity:1;stroke:none;stroke-width:0.529167;stroke-opacity:1;paint-order:stroke fill markers"
       id="path2212"
       d="m 108.42989,132.88685 c -0.37591,0.0358 -0.77415,0.24001 -1.12773,0.10746 -0.40734,-0.15271 -1.32023,-1.69008 -1.47356,-1.92552 0.37743,0.39806 0.94037,-0.1357 0.56294,-0.53376 v 0 c 0.15432,0.44998 0.10339,1.03848 0.46296,1.34994 3.60559,3.12317 -0.0799,-1.7915 1.75109,0.80605 -0.13848,-0.12424 -0.31418,0.0716 -0.1757,0.19583 z" />
    <path
       style="fill:#000000;fill-opacity:1;stroke:none;stroke-width:0.529167;stroke-opacity:1;paint-order:stroke fill markers"
       id="path2214"
       d="m 89.484355,109.00155 c 0.341887,-0.57557 0.929899,-1.50096 0.429511,-2.19305 -0.32027,-0.44297 -1.013682,-0.54147 -1.289034,-1.01367 -0.284493,-0.48788 -0.109744,-1.13204 -0.276778,-1.67155 -0.195781,-0.63236 -0.535389,-1.21086 -0.803084,-1.8163 -0.03164,-0.12975 -0.215138,-0.085 -0.183497,0.0448 v 0 c 0.140894,0.63843 0.186735,1.30556 0.422685,1.9153 0.211826,0.54739 0.854999,0.92651 0.903378,1.51146 0.04625,0.55922 -0.833316,1.02253 -0.649952,1.55285 0.166473,0.48148 0.949196,0.37597 1.399336,0.61451 1.403104,0.74354 -0.09061,0.27934 1.261978,0.62592 -0.303897,-0.85881 -1.518443,-0.42903 -1.214543,0.42978 z" />
    <path
       style="fill:#000000;fill-opacity:1;stroke:none;stroke-width:0.529167;stroke-opacity:1;paint-order:stroke fill markers"
       id="path2216"
       d="m 73.301661,58.180398 c 0.109886,0.410895 0.245504,1.242721 0.699587,1.471993 0.321165,0.162161 0.721506,0.0096 1.07764,0.06065 0.390282,0.05599 0.769345,0.173011 1.154015,0.259514 0.412842,0.148016 0.805762,0.372888 1.238522,0.444048 0.567132,0.09325 1.149138,0.02869 1.723708,0.04304 0.351932,0.385606 0.703863,0.771212 1.055793,1.156819 -0.380481,-0.30521 -0.812112,0.232873 -0.431631,0.538083 v 0 c -0.3624,-0.352893 -0.724799,-0.705787 -1.087202,-1.05868 -5.339111,-0.825899 1.625754,0.527214 -2.527527,-1.071954 -0.892665,-0.34371 -1.44112,0.398555 -2.14076,-0.492816 -0.23419,-0.298368 0.0313,-1.007618 -0.339817,-1.085977 -0.408443,-0.08624 -0.634982,0.542081 -0.952471,0.813123 0.76215,0.374867 1.292293,-0.702979 0.530143,-1.077846 z" />
    <path
       style="fill:#000000;fill-opacity:1;stroke:none;stroke-width:0.529167;stroke-opacity:1;paint-order:stroke fill markers"
       id="path2218"
       d="m 84.78976,73.746229 c -0.383354,-0.18438 -0.766712,-0.368757 -1.150067,-0.553137 -0.739068,0.593082 0.09967,1.638281 0.838743,1.045199 v 0 c -0.06349,-0.36049 -0.126982,-0.720982 -0.190474,-1.081474 -0.416777,0.354825 0.08502,0.944237 0.501798,0.589412 z" />
    <path
       style="fill:#000000;fill-opacity:1;stroke:none;stroke-width:0.529167;stroke-opacity:1;paint-order:stroke fill markers"
       id="path2220"
       d="m 74.460284,33.506589 c -0.667813,-0.195476 -0.374039,0.742255 -0.73184,0.855044 -0.312393,0.09847 -0.626589,-0.427339 -0.932431,-0.310092 -0.28407,0.108903 -0.194792,0.595511 -0.399397,0.820664 -0.251042,0.276251 -1.546794,0.816559 -1.791311,0.927565 -0.325903,0.265531 -0.651809,0.531061 -0.977712,0.796595 0.100981,-0.105884 -0.04876,-0.24869 -0.149741,-0.142809 v 0 c 0.403857,-0.188206 0.807715,-0.376415 1.211569,-0.564621 0.347544,-0.143404 0.686629,-0.309322 1.042631,-0.430213 0.29827,-0.101287 0.674835,-0.03132 0.915387,-0.234693 0.2302,-0.19462 0.150635,-0.607306 0.349019,-0.834268 0.146601,-0.167722 0.428797,-0.140923 0.612937,-0.266277 0.825159,-0.561726 0.03438,-0.85757 1.193326,0.36662 0.695452,-0.242139 0.353015,-1.225653 -0.342437,-0.983515 z" />
    <path
       style="fill:#000000;fill-opacity:1;stroke:none;stroke-width:0.529167;stroke-opacity:1;paint-order:stroke fill markers"
       id="path2222"
       d="m 44.871364,44.816603 c -0.0063,0.191855 0.0758,0.408663 -0.01902,0.575564 -0.148699,0.261713 -0.43924,0.411689 -0.65886,0.617533 0.31968,0.410228 1.056785,0.719875 0.959037,1.230688 -0.09416,0.492051 -1.018939,0.308464 -1.328883,0.702058 -0.213569,0.271212 -0.02593,0.689928 -0.03891,1.034892 -0.25214,0.284048 -0.504277,0.5681 -0.756417,0.852151 -0.17128,0.922901 1.133896,1.16513 1.305179,0.242232 v 0 c 0.03892,-0.317162 0.137229,-0.632598 0.116761,-0.951482 -0.05081,-0.791546 -0.586957,-1.293355 0.0053,-2.066099 0.245663,-0.320498 1.061096,-0.268253 1.010095,-0.668841 -0.204012,-1.602382 -2.759123,-1.093046 -0.04023,-1.310483 0.182584,-0.391809 -0.371515,-0.650018 -0.554098,-0.258213 z" />
    <path
       style="fill:#000000;fill-opacity:1;stroke:none;stroke-width:0.529167;stroke-opacity:1;paint-order:stroke fill markers"
       id="path2224"
       d="m 43.473171,63.386969 c 0.03927,0.274579 0.327819,0.642549 0.117803,0.823738 -0.249325,0.215104 -0.671782,-0.177287 -0.984975,-0.07559 -0.302141,0.09811 -0.41906,0.517138 -0.716706,0.628139 -2.221127,0.828326 -0.537384,-0.867913 -2.057045,1.120031 0.106328,-0.07447 0.0011,-0.224845 -0.105323,-0.15037 v 0 c 4.326752,-1.243063 -1.799511,0.89598 1.608542,-1.717575 0.657183,-0.503975 1.41631,0.584846 2.077046,-0.01527 0.15975,-0.14509 0.0208,-0.431102 0.03121,-0.646655 -0.02371,0.02082 0.0057,0.05436 0.02945,0.03354 z" />
    <path
       style="fill:#000000;fill-opacity:1;stroke:none;stroke-width:0.529167;stroke-opacity:1;paint-order:stroke fill markers"
       id="path2226"
       d="m 19.036694,68.697974 c 0.0046,0.212357 0.05366,0.428453 0.01374,0.637075 -0.05319,0.277958 -0.200336,0.529568 -0.288437,0.798507 -0.366931,1.120105 -0.66961,2.273361 -1.267998,3.303495 -0.210818,0.362926 -0.48342,0.686255 -0.72513,1.029385 -1.194476,1.150488 -1.040458,0.476065 -0.543498,2.00293 0.04892,-0.186156 -0.214339,-0.255341 -0.263261,-0.06919 v 0 c 0.941373,-1.10604 0.686815,-0.45729 0.709391,-1.96669 0.75792,-1.570956 0.187761,-0.883952 1.846934,-1.939674 0.213638,-0.406011 -0.254128,-0.919683 -0.15492,-1.367615 0.07916,-0.357418 0.397365,-0.621054 0.653337,-0.882761 0.222009,-0.226986 0.740366,-0.250883 0.765061,-0.567428 0.02931,-0.375701 -0.43237,-0.617329 -0.648555,-0.925992 0.0368,-0.06835 -0.05986,-0.120398 -0.09666,-0.05205 z" />
    <path
       style="fill:#000000;fill-opacity:1;stroke:none;stroke-width:0.529167;stroke-opacity:1;paint-order:stroke fill markers"
       id="path2228"
       d="m 13.980758,91.582204 c 0.04575,0.848601 0.101265,0.365038 -0.378882,1.410211 0.08907,0.467103 0.749654,0.341135 0.660582,-0.125968 v 0 c 0.730755,-1.239914 0.801658,-0.735034 -0.830729,-1.284243 0,0.388224 0.549029,0.388224 0.549029,0 z" />
    <path
       style="fill:#000000;fill-opacity:1;stroke:none;stroke-width:0.529167;stroke-opacity:1;paint-order:stroke fill markers"
       id="path2230"
       d="m 45.109701,82.118636 c 0.103034,0.03057 0.942261,0.237061 0.95196,0.422327 0.02006,0.383138 -0.488844,0.7052 -0.401344,1.078752 0.05713,0.243901 0.474015,0.16221 0.711023,0.243313 0.04085,0.056 0.120057,-0.0019 0.0792,-0.05778 v 0 c -0.253812,-0.06921 -0.671986,0.03977 -0.761433,-0.207634 -0.120404,-0.333028 0.309935,-0.659022 0.320122,-1.013002 0.01124,-0.390782 -0.456999,-0.524444 -0.69873,-0.640551 -0.123442,-0.141986 -0.324242,0.03259 -0.200798,0.174575 z" />
    <path
       style="fill:#000000;fill-opacity:1;stroke:none;stroke-width:0.529167;stroke-opacity:1;paint-order:stroke fill markers"
       id="path2232"
       d="m 47.760868,94.449423 c -1.486776,0.347022 0.72771,-0.233593 -1.063582,0.515953 -0.320768,0.13422 -0.733558,0.05026 -1.009889,0.261329 -0.312253,0.238501 -0.324069,0.751967 -0.633603,0.993987 -0.205753,0.160874 -2.288823,0.78641 -2.500264,0.852429 -0.214654,0.138602 -0.01865,0.442166 0.196011,0.303564 v 0 c 2.212067,-2.706095 -0.673608,0.368173 2.193459,-1.298151 0.330753,-0.192233 0.337828,-0.758503 0.683826,-0.921708 0.653997,-0.308486 1.382729,0.394554 1.903966,-0.340156 0.11067,-0.155999 0.0013,-0.382532 0.0021,-0.5738 -0.146053,0.161282 0.08204,0.367835 0.228089,0.206553 z" />
    <path
       style="fill:#000000;fill-opacity:1;stroke:none;stroke-width:0.529167;stroke-opacity:1;paint-order:stroke fill markers"
       id="path2234"
       d="m 28.364569,80.743697 c -0.03442,0.211899 -0.08034,0.422248 -0.103257,0.635695 -0.03264,0.303951 -0.14646,0.62075 -0.06326,0.914906 0.345022,1.2198 1.022586,0.870648 0.779605,2.251487 -0.07273,0.413301 -0.367522,0.754555 -0.551283,1.131835 0,-0.318093 -0.449847,-0.318093 -0.449847,0 v 0 c -0.853718,-2.080091 -0.394536,-0.182078 0.0558,-2.290008 0.511218,-2.392892 -0.437345,0.109421 -0.259135,-2.00822 0.02029,-0.241088 0.233532,-0.423796 0.350297,-0.635695 0,0.170465 0.241076,0.170465 0.241076,0 z" />
    <path
       style="fill:#000000;fill-opacity:1;stroke:none;stroke-width:0.529167;stroke-opacity:1;paint-order:stroke fill markers"
       id="path2236"
       d="m 13.510854,112.49108 c -0.129432,0.25044 -0.566709,0.53304 -0.388294,0.75129 0.318496,0.38962 1.040246,0.1817 1.420456,0.51138 0.318585,0.27624 0.765379,2.26542 0.832946,2.52561 0.232543,0.46479 0.889855,0.13592 0.657312,-0.32887 v 0 c -0.583138,-0.24613 -1.310115,-0.28271 -1.749415,-0.7384 -0.687115,-0.71273 0.431423,-2.20811 -0.948011,-2.6812 0.02815,0.12375 0.203153,0.0839 0.175006,-0.0398 z" />
    <path
       style="fill:#000000;fill-opacity:1;stroke:none;stroke-width:0.529167;stroke-opacity:1;paint-order:stroke fill markers"
       id="path2238"
       d="m 31.893076,115.85742 c 2.941193,-0.0631 -1.930361,0.27853 1.185211,-1.05816 0.51285,-0.22003 1.141741,0.33575 1.667553,0.14879 0.46387,-0.16493 0.568941,-0.84233 0.991864,-1.09435 0.518676,-0.30908 1.170123,-0.30896 1.732376,-0.52901 0.577897,-0.22619 1.118864,-0.53725 1.678297,-0.80588 0.315677,-0.57077 0.631351,-1.14155 0.947028,-1.71233 -0.520049,0.4179 0.07095,1.15336 0.591,0.73546 v 0 c -0.489871,0.35336 -0.979742,0.70672 -1.469612,1.06009 -1.62061,0.33036 -2.194172,0.23414 -3.48932,1.23924 -0.388652,0.30161 -0.547288,0.88619 -0.995048,1.08997 -0.459729,0.20924 -1.009607,0.0348 -1.514414,0.0522 -0.210968,0.24853 -0.350081,0.58346 -0.632907,0.74558 -0.217072,0.12443 -0.499443,0.0311 -0.749165,0.0466 -0.05784,0.0404 -7.94e-4,0.1222 0.05714,0.0818 z" />
    <path
       style="fill:#000000;fill-opacity:1;stroke:none;stroke-width:0.529167;stroke-opacity:1;paint-order:stroke fill markers"
       id="path2240"
       d="m 57.100332,116.42143 c -0.09018,0.23231 -0.342204,0.45826 -0.270545,0.69694 0.520446,1.73347 1.02284,-0.39806 1.252853,1.70445 0.04893,0.44727 -0.270439,0.86635 -0.3047,1.31499 -0.03294,0.43135 0.08769,0.86128 0.105505,1.29351 0.01828,0.4437 0.0019,0.88815 0.0028,1.33223 0.470072,0.43515 0.940141,0.87031 1.410213,1.30547 0.0021,-0.70579 -0.995883,-0.70896 -0.998127,-0.003 v 0 c -0.26072,-0.42713 -0.521441,-0.85427 -0.782161,-1.2814 0.119882,-0.22907 1.379749,-2.50564 1.289661,-2.84814 -0.132747,-0.50468 -0.942536,-0.55134 -1.200327,-1.00506 -0.182653,-0.32148 0.07934,-0.74831 -0.0011,-1.10923 -0.08711,-0.3916 -0.541438,-0.96563 -0.789318,-1.30621 0.06673,0.20162 0.351869,0.10725 0.285139,-0.0944 z" />
    <path
       style="fill:#000000;fill-opacity:1;stroke:none;stroke-width:0.529167;stroke-opacity:1;paint-order:stroke fill markers"
       id="path2242"
       d="m 49.423425,130.18697 c -0.20008,-0.0103 -0.404275,-0.0727 -0.600247,-0.031 -1.571858,0.33415 0.112189,0.47419 -1.868352,0.39799 -0.455372,-0.0175 -0.901049,-0.18268 -1.356569,-0.16956 -0.87013,0.0251 -1.737995,0.40694 -2.536883,0.69208 -0.425178,0.16583 -0.190649,0.76712 0.234529,0.60129 v 0 c 3.235121,0.90653 0.323961,0.6512 2.504006,-0.83324 0.340008,-0.23152 0.824095,-0.0485 1.227069,-0.13105 1.487045,-0.30475 0.513236,-0.20937 1.683607,-0.82429 0.160692,-0.0844 0.350581,-0.0943 0.525872,-0.14147 -0.310615,0.13221 -0.123647,0.57149 0.186968,0.43928 z" />
    <path
       style="fill:#000000;fill-opacity:1;stroke:none;stroke-width:0.529167;stroke-opacity:1;paint-order:stroke fill markers"
       id="path2244"
       d="m 24.523234,131.05813 c 0.870613,2.33904 0.865784,1.34567 -0.352705,0.97587 -0.232978,-0.0707 -0.546868,-0.16734 -0.730378,-0.007 -1.086585,0.94743 1.070839,1.05807 -1.131936,0.60816 -0.06124,0.0513 0.01123,0.13787 0.07248,0.0866 v 0 c 1.831033,-1.70511 -0.968237,0.81633 1.046569,-0.71215 0.16016,-0.1215 0.21011,-0.37215 0.391559,-0.4587 0.291783,-0.13917 0.675918,0.10417 0.964019,-0.10595 0.273315,-0.18357 0.01371,-0.57009 -0.259606,-0.38652 z" />
    <path
       style="fill:#000000;fill-opacity:1;stroke:none;stroke-width:0.529167;stroke-opacity:1;paint-order:stroke fill markers"
       id="path2246"
       d="m 16.197143,141.13108 c -0.522736,0.14454 -1.293002,-0.0337 -1.568208,0.43363 -0.192449,0.32681 0.652605,0.40316 0.913145,0.67876 0.236971,0.25068 0.408206,0.56137 0.554508,0.87376 0.168573,0.35994 0.582937,1.75095 0.51849,2.15412 -0.06576,0.41141 -0.358141,0.75237 -0.537211,1.12855 -0.09515,0.36222 -0.190304,0.72443 -0.285456,1.08665 0,0.69091 0.977101,0.69091 0.977101,0 v 0 c -0.318075,-0.36222 -0.63615,-0.72443 -0.954224,-1.08665 -0.210404,-0.37618 -0.648491,-0.69787 -0.631212,-1.12855 0.01777,-0.44294 0.565787,-0.70217 0.721317,-1.11728 0.438501,-1.17039 -0.154667,-0.82584 -0.0084,-1.9106 0.03312,-0.24562 0.27739,-0.4323 0.303494,-0.67876 0.01656,-0.15636 -0.123783,-0.28909 -0.185674,-0.43363 0,0.12892 0.182325,0.12892 0.182325,0 z" />
    <path
       style="fill:#000000;fill-opacity:1;stroke:none;stroke-width:0.529167;stroke-opacity:1;paint-order:stroke fill markers"
       id="path2248"
       d="m 21.93012,159.5553 c 0.218817,0.0618 0.509716,0.0118 0.656451,0.18553 0.172189,0.20384 0.02209,0.55689 0.162405,0.78385 0.18246,0.29513 0.517851,0.46269 0.761169,0.71007 0.268208,0.27267 0.514748,0.56585 0.772123,0.84878 0.144226,0.18317 0.403269,-0.0208 0.259043,-0.20397 v 0 c -3.331845,-0.57625 -0.393138,0.45852 -1.063727,-1.84037 -0.437161,-1.49867 -2.229306,1.31701 -0.317552,-1.10744 -0.440918,-0.86968 -1.67083,-0.24613 -1.229912,0.62355 z" />
    <path
       style="fill:#000000;fill-opacity:1;stroke:none;stroke-width:0.529167;stroke-opacity:1;paint-order:stroke fill markers"
       id="path2250"
       d="m 33.188581,145.37892 c 0.248338,-0.1187 0.666208,-0.0924 0.745012,-0.35611 0.09958,-0.33327 -0.407252,-0.64299 -0.34426,-0.98507 0.07046,-0.38263 0.465288,-0.6237 0.697931,-0.93554 0.41376,-0.33108 1.132681,-0.47456 1.241287,-0.99323 0.124709,-0.59557 -0.452302,-1.12981 -0.678452,-1.69471 -0.136546,0.45383 0.505267,0.64694 0.641813,0.19311 v 0 c -0.12664,0.45902 -0.253283,0.91805 -0.379923,1.37707 -0.232183,0.38514 -0.546378,0.73151 -0.696543,1.15541 -0.123772,0.34938 0.123902,0.81543 -0.104928,1.10702 -0.265912,0.33884 -0.949825,0.16424 -1.178941,0.52897 -0.144277,0.22968 0.268253,0.47151 0.402378,0.70726 0.07367,-0.24422 -0.271706,-0.3484 -0.345374,-0.10418 z" />
    <path
       style="fill:#000000;fill-opacity:1;stroke:none;stroke-width:0.529167;stroke-opacity:1;paint-order:stroke fill markers"
       id="path2252"
       d="m 40.265556,124.82575 c 0.967086,-1.53224 -1.198221,1.5797 1.994204,0.6461 0.506892,-0.14824 0.0071,-1.05622 0.01061,-1.58434 -0.291195,0.20862 0.0038,0.62043 0.295026,0.41181 v 0 c -0.297868,0.12827 -0.576868,0.31512 -0.893604,0.38481 -1.188653,0.26152 -1.004435,-0.56635 -0.710625,1.00659 0.611629,-0.49186 -0.08397,-1.35684 -0.695603,-0.86497 z" />
    <path
       style="fill:#000000;fill-opacity:1;stroke:none;stroke-width:0.529167;stroke-opacity:1;paint-order:stroke fill markers"
       id="path2254"
       d="m 29.41878,97.834777 c 0.659706,1.55933 0.150553,-0.236665 -0.395862,1.346748 -0.11798,0.341884 0.05538,0.721211 0.08307,1.081815 0.07774,-0.26119 -0.291645,-0.371134 -0.369385,-0.10994 v 0 c 0.205743,-0.291351 0.4874,-0.541851 0.617228,-0.874059 0.539838,-1.381345 -0.592642,-0.456869 0.69265,-1.236811 0.146905,-0.443851 -0.480798,-0.651605 -0.627702,-0.207753 z" />
    <path
       style="fill:#000000;fill-opacity:1;stroke:none;stroke-width:0.529167;stroke-opacity:1;paint-order:stroke fill markers"
       id="path2256"
       d="m 7.5493424,160.79649 c 1.1843898,1.87371 -0.9600956,-1.71938 0.2469502,1.46539 1.3005294,3.43143 0.8215085,-0.96355 0.9859383,2.90083 -0.064799,-0.33733 -0.5418545,-0.24569 -0.4770554,0.0916 v 0 c -2.375453,-3.38335 -0.3555728,0.44404 -0.1452602,-3.02686 0.1053055,-1.73791 -2.2471631,-0.34565 0.4136509,-1.431 0,-0.72424 -1.0242238,-0.72424 -1.0242238,0 z" />
    <path
       style="fill:#000000;fill-opacity:1;stroke:none;stroke-width:0.529167;stroke-opacity:1;paint-order:stroke fill markers"
       id="path2258"
       d="m 19.199373,177.76327 c 0.508642,1.31152 1.273646,0.2676 1.9726,0.81928 0.362094,0.2858 0.399559,0.83159 0.599338,1.24738 0.36169,0.21785 0.669781,-0.29365 0.308091,-0.51151 v 0 c -0.330429,-0.20269 -0.673053,-0.38674 -0.991287,-0.60809 -0.285599,-0.19865 -0.93334,-0.85833 -1.375256,-0.91919 -0.222191,-0.0306 -0.439115,0.0916 -0.658672,0.13748 0.116921,0.10266 0.262108,-0.0627 0.145186,-0.16535 z" />
    <path
       style="fill:#000000;fill-opacity:1;stroke:none;stroke-width:0.529167;stroke-opacity:1;paint-order:stroke fill markers"
       id="path2260"
       d="m 33.698912,172.74715 c 0.223121,-0.002 0.453028,0.0476 0.669362,-0.007 0.23717,-0.0599 0.413938,-0.29633 0.656505,-0.32798 0.426038,-0.0556 1.00447,0.39823 1.286801,0.0744 0.346832,-0.39785 -0.261572,-1.14221 0.0285,-1.58316 0.153143,-0.2328 2.704706,-0.63687 2.777344,-0.65002 0.366911,-0.37046 -0.157003,-0.88935 -0.523914,-0.51889 v 0 c -0.318014,0.27841 -0.642763,0.54931 -0.954043,0.83523 -0.290645,0.26696 -0.474596,0.7049 -0.851183,0.82292 -0.486391,0.15242 -1.025641,-0.16855 -1.527175,-0.0776 -0.304789,0.0553 -0.508728,0.35734 -0.785246,0.49694 -1.028899,0.51944 -0.85548,-0.17389 -0.366012,1.34088 0.286843,-0.29058 -0.1241,-0.69624 -0.410943,-0.40566 z" />
    <path
       style="fill:#000000;fill-opacity:1;stroke:none;stroke-width:0.529167;stroke-opacity:1;paint-order:stroke fill markers"
       id="path2262"
       d="m 62.534053,146.96385 c 0.738246,0.0322 0.922631,0.96858 1.533766,1.16587 0.212751,0.0687 0.306853,-0.37352 0.526428,-0.41556 0.287491,-0.055 0.576924,0.0994 0.865386,0.14909 0.598964,0.18965 0.867167,-0.65742 0.268203,-0.84707 v 0 c -3.00899,-0.49218 1.464344,0.0549 -1.854414,0.35642 -0.28874,0.0262 -0.514186,-0.28984 -0.799124,-0.34341 -0.166341,-0.0313 -0.331938,0.0664 -0.497906,0.0996 0.116604,-0.0299 0.07426,-0.19484 -0.04234,-0.1649 z" />
    <path
       style="fill:#000000;fill-opacity:1;stroke:none;stroke-width:0.529167;stroke-opacity:1;paint-order:stroke fill markers"
       id="path2264"
       d="m 77.274128,170.35255 c 0.228198,0.75925 -0.505415,1.2944 -0.572397,1.92868 -0.03723,0.35253 0.154503,0.69369 0.189545,1.04644 0.0054,0.0549 0.05444,2.32101 0.05499,2.34587 0.116927,1.51564 -0.01479,0.78261 0.381653,2.20147 0,0.12659 0.17902,0.12659 0.17902,0 v 0 c -1.488766,-1.33831 -1.409441,-0.58585 -0.553106,-2.20147 -1.261232,-2.16414 -0.592098,-0.23315 -0.07673,-2.34587 0.171424,-0.70276 -0.315703,-1.20589 -0.07717,-1.89932 0.08946,-0.26008 0.573227,-0.38217 0.508788,-0.64954 -0.06861,-0.28466 -0.512043,-0.28417 -0.768064,-0.42626 0,0.51865 0.733475,0.51865 0.733475,0 z" />
    <path
       style="fill:#000000;fill-opacity:1;stroke:none;stroke-width:0.529167;stroke-opacity:1;paint-order:stroke fill markers"
       id="path2266"
       d="m 70.628599,186.73994 c -0.326861,0.13825 -0.0035,0.71119 -0.268343,0.83497 -0.146693,0.0686 -1.968325,-0.11451 -2.042115,0.58195 -0.244663,2.30922 1.739299,0.38654 -0.165171,1.83646 -0.06292,0.27155 -0.125836,0.54309 -0.188754,0.81464 0.01262,-0.0332 -0.03426,-0.051 -0.04689,-0.0179 v 0 c 0.164095,-0.2318 0.328189,-0.4636 0.492281,-0.6954 2.4697,-1.66647 -0.837784,0.97758 -0.09796,-1.94084 0.112297,-0.44298 0.94239,-0.0245 1.352052,-0.22701 0.907497,-0.44866 -0.34286,-1.14312 -0.249539,-1.50811 0.06365,-0.24893 0.513538,0.0186 0.770308,0.0279 -0.207362,0.31404 0.236763,0.6073 0.444127,0.29326 z" />
    <path
       style="fill:#000000;fill-opacity:1;stroke:none;stroke-width:0.529167;stroke-opacity:1;paint-order:stroke fill markers"
       id="path2268"
       d="m 77.962508,213.82434 c 0.484965,-0.0811 0.907608,0.26464 1.37455,0.27063 0.461216,0.006 0.975468,-0.41349 1.372235,-0.17826 0.402055,0.23836 0.172349,0.99136 0.52215,1.30137 0.906126,0.80305 2.572567,0.26551 3.473921,0.13395 0.75367,2.35317 -0.01278,1.64358 2.001535,2.41091 0.352261,0.2096 0.648687,-0.28856 0.296429,-0.49817 v 0 c -2.177595,-0.11058 -1.221639,0.25022 -2.893671,-1.01138 -4.515038,0.2758 0.122126,0.62853 -2.404282,-1.70742 -0.364339,-0.33687 -0.992333,0.016 -1.488543,0.0162 -1.279496,2.6e-4 -1.753323,0.22921 -1.834457,-1.21598 -0.33813,-0.29688 -0.757994,0.1813 -0.419867,0.47819 z" />
    <path
       style="fill:#000000;fill-opacity:1;stroke:none;stroke-width:0.529167;stroke-opacity:1;paint-order:stroke fill markers"
       id="path2270"
       d="m 113.12757,216.36522 c 0.11446,-0.66208 0.92434,-0.12405 1.19185,-0.45455 0.25497,-0.315 -7.9e-4,-0.84271 0.18855,-1.20108 0.47504,-0.89959 1.34524,-0.87899 2.19185,-1.07937 0.20327,-0.18871 -0.0636,-0.47617 -0.26688,-0.28746 v 0 c -0.34162,0.423 -1.06268,1.46049 -1.65863,1.64605 -0.42323,0.13178 -1.05237,-0.35506 -1.32977,-0.009 -0.28372,0.3536 0.49016,0.93876 0.26727,1.33354 -0.14827,0.26259 -0.57179,-0.19189 -0.85768,-0.28783 -0.24043,0.19335 0.033,0.53337 0.27344,0.34002 z" />
    <path
       style="fill:#000000;fill-opacity:1;stroke:none;stroke-width:0.529167;stroke-opacity:1;paint-order:stroke fill markers"
       id="path2272"
       d="m 119.84128,194.26238 c -1.91474,-0.90852 -0.63091,-0.0136 -1.90203,-1.95598 -0.38083,-0.58197 -0.84433,-1.10544 -1.2665,-1.65816 0.21594,0.37434 0.74534,0.069 0.5294,-0.30537 v 0 c 0.29975,0.62411 0.50138,1.30569 0.89923,1.87233 1.4267,2.03195 1.41618,0.12196 0.95546,2.45798 0.29048,0.55467 1.07491,0.14388 0.78444,-0.4108 z" />
    <path
       style="fill:#000000;fill-opacity:1;stroke:none;stroke-width:0.529167;stroke-opacity:1;paint-order:stroke fill markers"
       id="path2274"
       d="m 99.478612,171.21607 c 2.151058,1.98539 -0.243165,-0.70208 0.435443,2.40017 0.165705,0.75753 0.812485,1.32103 1.218725,1.98155 -0.0561,0.87141 -0.34879,1.75986 -0.16839,2.61425 2.26152,10.7106 0.62692,-5.40254 1.49223,5.38341 -0.0153,-0.0917 -0.14507,-0.07 -0.12972,0.0217 v 0 c -4.750613,-5.79153 -0.40106,1.01562 -0.72144,-5.51107 -0.0461,-0.93987 -1.29147,-1.44335 -1.58116,-2.33865 -0.72978,-2.25542 0.68087,-1.77668 0.25165,-3.73865 -0.0742,-0.33923 -0.43447,-0.54181 -0.651709,-0.81272 0,-0.10298 -0.145629,-0.10298 -0.145629,0 z" />
    <path
       style="fill:#000000;fill-opacity:1;stroke:none;stroke-width:0.529167;stroke-opacity:1;paint-order:stroke fill markers"
       id="path2276"
       d="m 103.59798,199.82607 c -0.0389,0.14483 -0.0779,0.28966 -0.11687,0.4345 -0.0738,0.36016 0.43555,0.46453 0.50935,0.10437 v 0 c -0.18542,-0.18472 -0.37083,-0.36943 -0.55625,-0.55414 -0.0108,0.1158 0.15298,0.13107 0.16377,0.0153 z" />
    <path
       style="fill:#000000;fill-opacity:1;stroke:none;stroke-width:0.529167;stroke-opacity:1;paint-order:stroke fill markers"
       id="path2278"
       d="m 59.27626,192.45522 c -2.707362,0.60749 0.175815,0.37656 -1.618732,-1.13856 -0.451172,-0.38092 -1.159872,-0.23335 -1.723363,-0.40981 -2.510309,-0.78611 -1.756413,-0.48692 -3.525888,-2.54049 0.03139,0.0254 0.06732,-0.019 0.03592,-0.0444 v 0 c 0.625449,0.69454 2.16394,2.59274 3.151495,3.01073 1.890474,0.80016 1.580911,-0.41968 3.031889,0.71492 0.212415,0.1661 0.269629,0.46705 0.404445,0.70058 0.207161,0.1727 0.45139,-0.12028 0.244229,-0.29297 z" />
    <path
       style="fill:#000000;fill-opacity:1;stroke:none;stroke-width:0.529167;stroke-opacity:1;paint-order:stroke fill markers"
       id="path2280"
       d="m 57.551108,172.08333 c -0.04825,-1.36106 -0.152549,0.0691 0.625821,-1.34796 0.193921,-0.35304 0.181155,-0.79343 0.364437,-1.15211 0.249473,-0.4882 0.940007,-0.81498 0.920732,-1.3629 -0.02638,-0.74981 -0.692616,-1.33114 -1.038926,-1.99671 -0.04874,0.41062 0.531974,0.47956 0.580715,0.0689 v 0 c -0.105823,0.58891 -0.318987,1.16839 -0.317471,1.76673 0.0013,0.56658 0.515279,1.13406 0.326178,1.66815 -0.166203,0.46941 -0.923758,0.46098 -1.22138,0.86021 -0.378949,0.50833 0.02886,1.28433 0.188595,1.73715 0.170762,-0.30313 -0.257939,-0.54463 -0.428701,-0.24149 z" />
    <path
       style="fill:#000000;fill-opacity:1;stroke:none;stroke-width:0.529167;stroke-opacity:1;paint-order:stroke fill markers"
       id="path2282"
       d="m 47.911183,147.32734 c -0.1808,2.80091 0.303843,-0.33236 -0.630896,1.02536 -0.164372,0.23876 0.02889,0.61098 -0.116462,0.86177 -0.37855,0.65314 -1.658987,1.14361 -1.758005,1.99901 -0.06674,0.57658 0.380542,1.09671 0.570815,1.64506 -0.464357,5.97443 -0.187942,-3.08935 1.351835,3.34838 0.157284,0.6576 -0.428069,1.28276 -0.642104,1.92414 0.159824,0.59972 1.007962,0.3737 0.848135,-0.22602 v 0 c -0.401346,-0.50556 -0.966171,-0.9166 -1.204044,-1.51667 -0.43592,-1.09968 0.230624,-2.44447 -0.36307,-3.53017 -0.364386,-1.84261 -0.613526,-1.301 0.353886,-2.81339 0.20361,-0.31831 0.594267,-0.53638 0.685054,-0.90317 0.09045,-0.36544 -0.197911,-0.73775 -0.185785,-1.11402 0.03531,-1.09565 0.266747,-0.82391 1.129038,-0.84982 -0.105741,-0.0271 -0.144135,0.12239 -0.0384,0.14954 z" />
    <path
       style="fill:#000000;fill-opacity:1;stroke:none;stroke-width:0.529167;stroke-opacity:1;paint-order:stroke fill markers"
       id="path2284"
       d="m 85.029894,156.28835 c 0.826325,0.31062 1.849784,-0.18173 2.648767,0.19987 0.578009,0.27606 0.807998,1.0523 1.38339,1.33378 0.678688,0.33199 1.483452,0.28763 2.22518,0.43145 0.371808,0.22174 0.685387,-0.30408 0.313576,-0.52581 v 0 c -0.718904,-0.17518 -1.427072,-0.40252 -2.156716,-0.52554 -0.691574,-0.11659 -1.406113,-0.0613 -2.095286,-0.19133 -0.446484,-0.0842 -1.725306,-0.5953 -2.264069,-0.80408 -0.05774,-0.0388 -0.112582,0.0429 -0.05484,0.0817 z" />
    <path
       style="fill:#000000;fill-opacity:1;stroke:none;stroke-width:0.529167;stroke-opacity:1;paint-order:stroke fill markers"
       id="path2286"
       d="m 110.8376,166.72158 c 0.34831,-0.0555 0.83918,-0.45313 1.04492,-0.16664 0.2279,0.31733 -0.33328,0.72447 -0.36464,1.11389 -0.10671,1.32513 0.35273,1.22731 1.36683,1.93492 0.53949,0.77538 1.63604,0.0124 1.09655,-0.76295 v 0 c -0.39889,-0.25877 -0.79186,-0.52691 -1.19668,-0.77631 -0.58248,-0.35886 -1.13281,-0.52697 -1.52865,-1.10077 -0.0856,-0.12411 -0.0854,-0.28922 -0.12803,-0.43383 -0.13554,-0.20527 -0.42584,-0.0136 -0.2903,0.19169 z" />
    <path
       style="fill:#000000;fill-opacity:1;stroke:none;stroke-width:0.529167;stroke-opacity:1;paint-order:stroke fill markers"
       id="path2288"
       d="m 137.6288,199.85309 c 0.80888,0.25998 0.55709,-0.0134 0.7231,0.84861 -0.2228,-0.38607 -0.76879,-0.071 -0.54598,0.3151 v 0 c 0.39232,-1.10142 0.32684,-0.58996 0.3222,-1.51298 -0.24697,-0.35307 -0.74628,-0.004 -0.49932,0.34927 z" />
    <path
       style="fill:#000000;fill-opacity:1;stroke:none;stroke-width:0.529167;stroke-opacity:1;paint-order:stroke fill markers"
       id="path2290"
       d="m 88.079293,194.62075 c -1.012603,-0.39877 -0.490103,-0.34553 -1.568027,-0.1545 0.336138,-0.1795 0.08229,-0.65487 -0.253851,-0.47537 v 0 c 1.191741,-0.0733 0.616717,-0.18773 1.717979,0.37715 -0.178705,0.0735 -0.07481,0.32619 0.103899,0.25272 z" />
    <path
       style="fill:#000000;fill-opacity:1;stroke:none;stroke-width:0.529167;stroke-opacity:1;paint-order:stroke fill markers"
       id="path2292"
       d="m 98.135108,206.12074 c -0.926454,2.0642 -0.644575,0.5345 1.383895,1.09194 0.444757,0.12222 0.732557,0.56067 1.098837,0.841 -0.34131,-0.55434 -1.125274,-0.0717 -0.783964,0.48269 v 0 c -0.317042,-0.30549 -0.723585,-0.53955 -0.951132,-0.91647 -1.009719,-1.67249 0.538639,-0.65332 -0.876639,-1.3991 0.07075,0.0912 0.199758,-0.009 0.129003,-0.10006 z" />
    <path
       style="fill:#000000;fill-opacity:1;stroke:none;stroke-width:0.529167;stroke-opacity:1;paint-order:stroke fill markers"
       id="path2294"
       d="m 65.914028,112.94758 c 0.512821,0.66291 1.680374,0.11765 2.168674,0.69946 0.295883,0.35254 -0.03236,0.91995 -0.05258,1.37976 -0.02471,0.56216 -0.05483,1.12407 -0.08225,1.6861 0.04292,0.10388 0.189838,0.0432 0.146912,-0.0607 v 0 c -0.09223,-0.5134 -0.253979,-1.01907 -0.276691,-1.5402 -0.02069,-0.4746 0.476801,-1.07481 0.147778,-1.41748 -0.410003,-0.42701 -1.26428,0.0696 -1.757026,-0.25851 -0.213969,-0.14247 0.203358,-0.47219 0.305038,-0.70829 -0.155461,-0.42416 -0.755317,-0.2043 -0.599856,0.21986 z" />
    <path
       style="fill:#000000;fill-opacity:1;stroke:none;stroke-width:0.529167;stroke-opacity:1;paint-order:stroke fill markers"
       id="path2296"
       d="m 8.4134501,131.23787 c -0.3825213,0.75218 -0.2552549,0.30315 -0.2002221,1.38576 -0.011631,0.0317 0.033142,0.0481 0.044772,0.0165 v 0 c -0.2470589,-1.19105 -0.082036,-0.65309 -0.4545415,-1.62577 -0.1580874,0.43133 0.4519044,0.6549 0.6099916,0.22357 z" />
    <path
       style="fill:#000000;fill-opacity:1;stroke:none;stroke-width:0.529167;stroke-opacity:1;paint-order:stroke fill markers"
       id="path2298"
       d="m 119.84983,96.523957 c 0.0407,1.855555 -0.0527,0.857017 0.35914,2.987172 -0.082,-0.359304 -0.59011,-0.243379 -0.50814,0.115925 v 0 c 0.0878,-2.253732 -0.0285,-1.21048 0.29191,-3.135601 -0.023,-0.101052 -0.16589,-0.06855 -0.14291,0.0325 z" />
  </g>
  <g
     inkscape:groupmode="layer"
     id="layer2"
     inkscape:label="Markers"
     style="display:inline"
     sodipodi:insensitive="true">
    <g
       id="g1785"
       inkscape:label="River Markers"
       style="display:none"
       sodipodi:insensitive="true">
      <rect
         style="display:none;fill:#80b3ff;stroke:#000000;stroke-width:0;stroke-linecap:round;paint-order:stroke fill markers"
         id="rect1640-7"
         width="291.04166"
         height="8.4666643"
         x="-42.333332"
         y="114.82917"
         inkscape:label="L-R River Marker"
         sodipodi:insensitive="true" />
      <rect
         style="display:none;fill:#80b3ff;stroke:#000000;stroke-width:0;stroke-linecap:round;paint-order:stroke fill markers"
         id="rect1640-7-1"
         width="291.04166"
         height="8.4666643"
         x="9.1840715"
         y="-34.065075"
         inkscape:label="TL-BR River Marker"
         sodipodi:insensitive="true"
         transform="rotate(60)" />
      <rect
         style="display:none;fill:#80b3ff;stroke:#000000;stroke-width:0;stroke-linecap:round;paint-order:stroke fill markers"
         id="rect1640-7-8"
         width="291.04166"
         height="8.4666643"
         x="-197.03824"
         y="144.66092"
         inkscape:label="BL-TR River Marker"
         sodipodi:insensitive="true"
         transform="rotate(-60)" />
      <rect
         style="display:inline;fill:#80b3ff;fill-opacity:1;stroke-width:0;paint-order:stroke fill markers"
         id="rect20853"
         width="8.4045773"
         height="8.4045773"
         x="-4.1891494"
         y="114.86176"
         inkscape:label="L Marker"
         sodipodi:insensitive="true" />
      <rect
         style="display:inline;fill:#80b3ff;fill-opacity:1;stroke-width:0;paint-order:stroke fill markers"
         id="rect20855"
         width="5.7989492"
         height="5.7989492"
         x="1.1801877"
         y="211.76744"
         transform="matrix(-0.96592583,0.25881905,0.25881905,0.96592583,0,0)"
         inkscape:label="BL Marker"
         sodipodi:insensitive="true" />
      <rect
         style="display:inline;fill:#80b3ff;fill-opacity:1;stroke-width:0;paint-order:stroke fill markers"
         id="rect20857"
         width="6.1054602"
         height="6.1054602"
         x="200.33043"
         y="158.12204"
         transform="rotate(15)"
         inkscape:label="BR Marker"
         sodipodi:insensitive="true" />
      <rect
         style="display:inline;fill:#80b3ff;fill-opacity:1;stroke-width:0;paint-order:stroke fill markers"
         id="rect20859"
         width="8.4984264"
         height="8.4984264"
         x="202.0654"
         y="114.79823"
         inkscape:label="R Marker"
         sodipodi:insensitive="true" />
      <rect
         style="display:inline;fill:#80b3ff;fill-opacity:1;stroke-width:0;paint-order:stroke fill markers"
         id="rect20861"
         width="5.875577"
         height="5.875577"
         x="-144.7541"
         y="65.838341"
         transform="matrix(-0.96592583,0.25881905,0.25881905,0.96592583,0,0)"
         inkscape:label="TR Marker"
         sodipodi:insensitive="true" />
      <rect
         style="display:inline;fill:#80b3ff;fill-opacity:1;stroke-width:0;paint-order:stroke fill markers"
         id="rect20863"
         width="6.0288324"
         height="6.0288324"
         x="54.585835"
         y="12.421707"
         transform="rotate(15)"
         inkscape:label="TL Marker"
         sodipodi:insensitive="true" />
    </g>
    <g
       id="g1713"
       inkscape:label="Road Markers"
       style="display:inline"
       sodipodi:insensitive="true">
      <rect
         style="display:none;fill:#e9ddaf;stroke:#000000;stroke-width:0;stroke-linecap:round;paint-order:stroke fill markers"
         id="rect1640"
         width="291.04166"
         height="2.1166666"
         x="-42.333332"
         y="118.00417"
         inkscape:label="L-R Road Marker"
         sodipodi:insensitive="true" />
      <rect
         style="display:none;fill:#e9ddaf;stroke:#000000;stroke-width:0;stroke-linecap:round;paint-order:stroke fill markers"
         id="rect1640-2"
         width="291.04166"
         height="2.1166666"
         x="-197.03824"
         y="147.83591"
         inkscape:label="BL-TR Road Marker"
         transform="rotate(-60)"
         sodipodi:insensitive="true" />
      <rect
         style="display:none;fill:#e9ddaf;fill-opacity:1;stroke:#000000;stroke-width:0;stroke-linecap:round;paint-order:stroke fill markers"
         id="rect1640-5"
         width="291.04166"
         height="2.1166666"
         x="9.1840754"
         y="-30.890074"
         inkscape:label="TL-BR Road Marker"
         transform="rotate(60)"
         sodipodi:insensitive="true" />
      <rect
         style="display:none;fill:#e9ddaf;fill-opacity:1;stroke-width:0;paint-order:stroke fill markers"
         id="rect20783"
         width="2.1166666"
         height="2.1166666"
         x="-1.0451944"
         y="118.00571"
         inkscape:label="L Marker"
         sodipodi:insensitive="true" />
      <rect
         style="display:none;fill:#e9ddaf;fill-opacity:1;stroke-width:0;paint-order:stroke fill markers"
         id="rect20781"
         width="1.507797"
         height="1.507797"
         x="3.3257639"
         y="213.91301"
         transform="matrix(-0.96592583,0.25881905,0.25881905,0.96592583,0,0)"
         inkscape:label="BL Marker"
         sodipodi:insensitive="true" />
      <rect
         style="display:inline;fill:#e9ddaf;fill-opacity:1;stroke-width:0;paint-order:stroke fill markers"
         id="rect20777"
         width="1.507797"
         height="1.507797"
         x="202.62926"
         y="160.42087"
         transform="rotate(15)"
         inkscape:label="BR Marker"
         sodipodi:insensitive="true" />
      <rect
         style="display:none;fill:#e9ddaf;fill-opacity:1;stroke-width:0;paint-order:stroke fill markers"
         id="rect20794"
         width="2.1166666"
         height="2.1166666"
         x="205.25629"
         y="117.98911"
         inkscape:label="R Marker"
         sodipodi:insensitive="true" />
      <rect
         style="display:none;fill:#e9ddaf;fill-opacity:1;stroke-width:0;paint-order:stroke fill markers"
         id="rect20779"
         width="1.507797"
         height="1.507797"
         x="-142.57022"
         y="68.022232"
         transform="matrix(-0.96592583,0.25881905,0.25881905,0.96592583,0,0)"
         inkscape:label="TR Marker"
         sodipodi:insensitive="true" />
      <rect
         style="display:inline;fill:#e9ddaf;fill-opacity:1;stroke-width:0;paint-order:stroke fill markers"
         id="rect20765"
         width="1.507797"
         height="1.507797"
         x="56.846352"
         y="14.682225"
         transform="rotate(15)"
         inkscape:label="TL Marker"
         sodipodi:insensitive="true" />
    </g>
  </g>
</svg>
