<?xml version="1.0" encoding="UTF-8" standalone="no"?>
<!-- Created with Inkscape (http://www.inkscape.org/) -->

<svg
   width="206.375mm"
   height="238.125mm"
   viewBox="0 0 206.375 238.125"
   version="1.1"
   id="svg5"
   sodipodi:docname="RPRPPP-2.svg"
   inkscape:version="1.2.2 (732a01da63, 2022-12-09)"
   inkscape:export-filename="_base.png"
   inkscape:export-xdpi="96"
   inkscape:export-ydpi="96"
   xmlns:inkscape="http://www.inkscape.org/namespaces/inkscape"
   xmlns:sodipodi="http://sodipodi.sourceforge.net/DTD/sodipodi-0.dtd"
   xmlns="http://www.w3.org/2000/svg"
   xmlns:svg="http://www.w3.org/2000/svg">
  <sodipodi:namedview
     id="namedview7"
     pagecolor="#505050"
     bordercolor="#ffffff"
     borderopacity="1"
     inkscape:showpageshadow="0"
     inkscape:pageopacity="0"
     inkscape:pagecheckerboard="1"
     inkscape:deskcolor="#505050"
     inkscape:document-units="mm"
     showgrid="false"
     showguides="false"
     inkscape:zoom="11.276931"
     inkscape:cx="231.44594"
     inkscape:cy="128.4924"
     inkscape:window-width="1920"
     inkscape:window-height="1057"
     inkscape:window-x="1912"
     inkscape:window-y="-8"
     inkscape:window-maximized="1"
     inkscape:current-layer="layer3" />
  <defs
     id="defs2">
    <inkscape:path-effect
       effect="roughen"
       id="path-effect1465"
       is_visible="true"
       lpeversion="1.2"
       method="segments"
       max_segment_size="2"
       segments="2"
       displace_x="0.75;1"
       displace_y="0.75;1"
       global_randomize="2;1"
       handles="along"
       shift_nodes="true"
       fixed_displacement="false"
       spray_tool_friendly="false" />
    <inkscape:path-effect
       effect="simplify"
       id="path-effect2045"
       is_visible="true"
       lpeversion="1"
       steps="1"
       threshold="0.000625"
       smooth_angles="360"
       helper_size="0"
       simplify_individual_paths="false"
       simplify_just_coalesce="false" />
  </defs>
  <g
     inkscape:label="Base Hexagon"
     inkscape:groupmode="layer"
     id="layer1"
     transform="translate(-6.9865354e-5,6.8945696e-5)"
     sodipodi:insensitive="true"
     style="display:inline">
    <path
       sodipodi:type="star"
       style="fill:#8b9768;fill-opacity:1;stroke:#000000;stroke-width:0;stroke-linecap:round;stroke-linejoin:miter;stroke-miterlimit:4;stroke-dasharray:none;paint-order:stroke fill markers"
       id="path7148"
       inkscape:flatsided="true"
       sodipodi:sides="6"
       sodipodi:cx="28.234375"
       sodipodi:cy="13.25"
       sodipodi:r1="3.3630068"
       sodipodi:r2="2.9124494"
       sodipodi:arg1="0.52359878"
       sodipodi:arg2="1.0471976"
       inkscape:rounded="0"
       inkscape:randomized="0"
       d="m 31.146824,14.931503 -2.912449,1.681504 -2.912449,-1.681504 0,-3.363006 2.912449,-1.6815038 2.912449,1.6815038 z"
       transform="matrix(-17.721454,30.666072,-30.671746,-17.691963,1009.9425,-512.35645)"
       inkscape:label="Base Hexagon"
       sodipodi:insensitive="true" />
  </g>
  <g
     inkscape:groupmode="layer"
     id="layer3"
     inkscape:label="Stuff"
     style="display:inline">
    <path
       style="fill:#e9ddaf;fill-opacity:1;stroke:#000000;stroke-width:0.529167;stroke-dasharray:none;stroke-opacity:1;paint-order:stroke fill markers"
       id="path219"
       d="m 50.86236,30.404867 c 0.446412,0.440616 1.076846,0.970087 1.858294,1.562754 0.781447,0.592666 2.771228,1.687295 3.442851,1.830093 0.871014,0.223061 1.321285,0.05545 1.985629,0.17544 0.664344,0.119995 1.354896,0.306683 2.249077,0.398445 0.72914,0.06559 1.491358,-0.119293 2.269547,-0.301606 0.778189,-0.182312 1.805442,-0.23171 2.537124,-0.226352 0.816122,-0.01842 1.292719,-0.711423 2.042753,-0.981142 0.750034,-0.269719 2.215979,0.05935 3.023555,-0.04535 0.659503,-0.06835 1.210864,-0.189601 1.755527,-0.33452 0.544662,-0.14492 1.3192,-0.182772 1.964546,-0.336465 0.532339,-0.160844 1.02943,-0.366998 1.492872,-0.589074 0.463442,-0.222076 0.934434,-0.455498 1.461267,-0.633341 0.793144,-0.265055 1.288715,-1.273665 2.108878,-1.343884 0.820163,-0.07022 1.702871,0.27386 2.529491,0.240793 1.739783,-0.04625 3.94713,0.07791 5.753022,0.199062 1.805892,0.121151 3.23484,0.262691 4.974999,0.287104 2.170757,0.03897 4.367201,0.1637 6.524878,0.320305 2.15768,0.156604 4.35061,0.394173 6.50472,0.658668 1.91561,0.291679 5.09442,0.623483 6.99246,0.896553 1.89803,0.27307 2.35989,-0.529423 4.2693,-0.198933 1.84803,0.333018 3.82578,1.031984 5.69087,1.723899 1.86509,0.691914 3.66057,1.417975 5.46675,1.929328 1.44957,0.400837 3.64423,1.101143 5.06057,1.54498 1.41633,0.443837 2.03702,0.52306 3.41099,1.141309 1.1773,0.594909 2.32309,1.217234 3.45626,1.927405 1.13317,0.71017 2.15978,1.295601 3.27724,1.994427 1.01652,0.646276 1.92076,1.090702 2.97923,1.758567 1.05847,0.667865 2.20617,1.032651 3.2112,1.69671 0.94394,0.665655 1.79485,1.396194 2.71967,2.240986 0.92481,0.844792 1.89676,1.77319 2.79354,2.500349 0.99295,0.769623 1.82922,0.815677 2.79768,1.626772 0.96846,0.811095 2.89201,2.645959 3.79848,3.516762 0.78862,0.747407 1.47986,1.658703 1.92283,2.451344 0.44296,0.792641 0.99618,1.728468 1.55962,2.650549 0.63809,1.081738 1.90182,2.218947 2.3505,3.287058 0.44867,1.068111 -0.20513,1.590159 0.313,2.731965 0.62573,1.345593 1.58252,2.955573 2.26649,4.426283 0.68396,1.47071 0.84852,1.737988 1.48981,3.076368 0.63604,1.320893 1.40579,2.993502 2.08402,4.589601 0.67822,1.596099 1.83977,3.133539 2.44891,4.466991 0.51861,1.157246 0.67785,2.063873 1.03324,3.22539 0.35539,1.161516 1.29749,2.849833 1.77004,4.026697 0.36935,0.982869 0.5343,1.713886 0.86308,2.604167 0.32878,0.890281 0.76675,1.882423 1.20638,2.834929 0.35469,0.766224 0.40774,0.629111 0.80011,1.39773 0.39237,0.768619 0.90902,2.054672 1.29633,2.804604 0.19196,0.41158 0.1679,0.17059 0.41042,0.68066 0.24252,0.51008 0.64763,1.2057 0.83066,1.62136 0.25277,0.45176 0.47345,-0.0514 0.74086,0.54822 0.26741,0.59966 0.56148,1.79425 0.76712,2.2698 0.19401,0.40952 0.40781,0.97946 0.58991,1.52348 0.1821,0.54401 1.51731,1.30369 1.70429,1.71604 0.10581,0.26322 0.40706,0.55069 0.23807,0.74172 -0.16899,0.19103 -0.93868,-1.03465 -0.78291,-0.79735 0.13489,0.22702 0.25474,0.74449 0.40598,1.31006 0.15124,0.56557 0.60053,1.38867 0.73248,1.61768 0.1305,0.24808 0.15109,0.39909 0.21458,0.59515 0.0635,0.19606 0.78135,0.61903 0.91811,0.86401 0.19402,0.30989 0.25143,0.57595 0.31343,0.82534 0.062,0.24938 0.77897,0.63113 1.03252,0.89491 0.19999,0.1579 0.19065,0.26375 0.20495,0.40548 0.0143,0.14173 -0.16556,-0.0377 0.0231,0.13143 0.25348,0.18404 0.9142,0.63016 1.22134,0.90601 0.30714,0.27585 0.3665,0.47514 0.63027,0.64461 0.26155,0.1681 0.73423,0.4656 0.98767,0.57559 0.25344,0.11 0.65362,0.30177 0.93248,0.43692 0.27689,0.14751 1.25055,0.46233 1.44965,0.51288 0.1991,0.0506 -0.63311,-0.88145 -0.3508,-0.74732 0.30938,0.1218 0.7688,0.48924 1.14845,0.77238 0.37966,0.28314 0.47681,0.10997 0.80194,0.18095 0.26112,0.0709 1.39128,0.37669 1.69632,0.55854 0.30503,0.18184 0.58809,0.56164 0.84918,0.63327 0.28402,0.0493 0.36684,-0.44393 0.4497,-0.47565 0.0829,-0.0317 0.0806,0.29092 0.36483,0.34017 0.33252,0.0349 1.15715,0.15695 1.50782,0.23861 0.35066,0.0817 0.17261,0.0197 0.50318,0.0684 0.30824,0.0437 0.59835,-0.92661 0.92244,-0.88285 0.32409,0.0438 0.73164,1.13897 1.04248,1.14472 0.74823,0.0136 1.38862,-0.37093 1.38588,-0.90936 -0.003,-0.53843 -0.74338,-1.55897 -1.49164,-1.5726 l -0.10049,-0.0991 1.01959,0.75712 c -0.67811,-0.16987 -1.2529,-0.45509 -1.62159,-0.51072 -0.36869,-0.0556 -0.67409,-0.0611 -0.93792,-0.0978 -0.32211,-0.0469 -0.61527,-0.0691 -0.9005,-0.078 -0.28522,-0.009 -0.52406,-0.003 -0.84811,-0.0357 -0.25208,-0.0426 -0.25768,-0.0486 -0.51887,-0.0926 -0.26119,-0.044 -1.07551,-0.81038 -1.32868,-0.84525 -0.28053,-0.0727 -0.49502,-0.40169 -0.69285,-0.32882 -0.19783,0.0729 0.47435,0.84394 0.18958,0.7843 -0.25012,-0.0487 -0.74806,-1.15235 -1.20212,-1.30833 -0.45406,-0.15599 -0.87796,0.4932 -1.11734,0.40822 -0.27849,-0.12413 -0.56171,-0.20627 -0.83983,-0.28819 -0.27812,-0.0819 0.28327,0.17624 0.0107,0.0382 -0.24432,-0.11824 -0.82313,-0.46502 -1.27744,-0.66574 -0.45432,-0.20072 -0.1689,0.0727 -0.39965,-0.071 -0.2232,-0.13323 -0.67089,-0.46349 -1.03292,-0.70372 -0.36202,-0.24023 -0.76026,-1.55072 -0.9759,-1.69553 -0.18199,-0.13836 -0.5929,-0.45536 -0.71982,-0.3357 -0.12692,0.11966 0.97004,0.78088 0.78195,0.64643 -0.18791,-0.1375 0.001,-0.16536 -0.38401,-0.4302 -0.38515,-0.26484 -1.2036,-0.65882 -1.35371,-0.84014 -0.14096,-0.24955 -0.0374,-0.42281 -0.20487,-0.70374 -0.16747,-0.28094 -0.45286,-0.53702 -0.58848,-0.78924 -0.14601,-0.24546 -0.27566,-0.50623 -0.44022,-0.79542 -0.16457,-0.28919 0.39175,-0.42238 0.23277,-0.6607 -0.1299,-0.1876 0.29675,-0.23204 0.0111,-0.48222 -0.28562,-0.25018 -0.47028,-0.69326 -0.55992,-0.90198 -0.1888,-0.40413 0.57412,-0.66376 0.19839,-1.07915 -0.37573,-0.41539 -1.59145,-0.75968 -1.78646,-1.16146 -0.20947,-0.47529 -0.32928,-0.8626 -0.64267,-1.38079 -0.3134,-0.51819 -0.88077,-1.23154 -1.14413,-1.67923 -0.19292,-0.43457 -0.45865,-1.08471 -0.64086,-1.50116 -0.18221,-0.41644 0.0681,-0.34107 -0.13503,-0.770994 -0.38024,-0.735961 -0.74791,-1.459388 -1.20692,-2.264148 -0.45902,-0.804759 -1.23349,-2.338312 -1.58176,-3.090246 -0.43219,-0.93635 -0.8418,-1.778081 -1.20517,-2.558116 -0.36337,-0.780035 -0.69162,-1.516913 -1.05419,-2.483332 -0.47901,-1.191961 -1.14357,-2.757946 -1.64621,-3.934437 -0.50264,-1.17649 -0.84338,-1.963487 -1.36907,-3.135558 -0.61185,-1.339358 -1.12774,-2.606699 -1.74707,-3.942642 -0.61933,-1.335942 -1.47496,-2.890038 -2.11382,-4.216786 -0.63834,-1.331616 -0.96187,-2.445625 -1.53751,-3.753084 -0.57565,-1.307459 -1.13534,-2.593035 -1.75829,-3.931787 -0.53612,-1.181292 -0.65538,-2.11806 -1.28061,-3.344075 -0.62524,-1.226015 -1.76322,-2.748144 -2.42571,-3.866028 -0.61188,-0.998639 -0.17682,-1.837476 -0.8803,-2.763906 -0.70347,-0.92643 -2.38109,-1.816445 -3.23532,-2.626485 -0.92865,-0.890145 -2.03861,-1.901715 -3.06301,-2.756296 -1.0244,-0.854581 -1.9922,-1.583898 -3.00928,-2.370506 -0.92362,-0.748746 -1.84737,-1.501791 -2.77622,-2.227761 -0.92886,-0.72597 -1.75852,-1.330656 -2.73224,-2.013943 -1.01274,-0.668285 -2.11688,-1.376275 -3.18492,-2.019793 -1.06803,-0.643518 -2.13925,-1.401092 -3.16417,-2.050439 -1.1585,-0.724475 -2.48207,-1.923169 -3.64337,-2.585409 -1.16131,-0.66224 -2.12154,-0.772646 -3.34509,-1.383779 -0.60467,-0.270146 -1.00355,-0.480054 -1.36898,-0.634644 -0.36544,-0.154589 -0.81965,-0.55738 -1.46045,-0.782032 -1.01043,-0.354234 -2.08394,-0.673546 -3.0824,-0.894612 -0.99846,-0.221066 -1.09204,-0.223036 -2.11867,-0.524126 -1.84178,-0.520812 -3.9424,-1.216588 -6.01194,-1.692925 -2.06954,-0.476337 -3.6674,-0.428341 -5.55185,-0.767196 -1.92659,-0.333231 -4.24739,-1.299227 -6.29127,-1.663469 -2.04389,-0.364242 -2.8707,0.20531 -4.80362,-0.08818 -2.19203,-0.268436 -4.58917,-0.560639 -7.026009,-0.808978 -2.436837,-0.248339 -4.91356,-0.45446 -7.122489,-0.49351 -1.759253,-0.02445 -3.458767,-0.02039 -5.218197,-0.01 -1.759429,0.0104 -3.584268,0.01581 -5.34313,0.06311 -0.927865,0.03747 -1.724428,0.184033 -2.652607,0.272468 -0.928179,0.08843 -1.964697,0.140164 -2.852958,0.444449 -0.496875,0.168122 -1.02283,-1.035969 -1.521559,-0.862588 -0.498729,0.173381 -0.960345,1.732657 -1.459555,1.893332 -0.607571,0.148603 -1.461744,-0.08355 -2.082708,0.0065 -0.620964,0.09004 -0.87464,0.617099 -1.495662,0.684825 -0.759928,0.0988 -1.121682,0.549332 -1.915617,0.753276 -0.793934,0.203943 -2.110275,0.06366 -2.877734,0.08834 -0.69857,-0.005 -1.451818,0.0062 -2.127411,0.26987 -0.675592,0.263634 -1.349701,0.328478 -2.045906,0.266583 -0.857218,-0.0859 -1.867796,-0.336053 -2.69314,-0.380879 -0.825344,-0.04483 -0.979127,0.227007 -1.814099,0.01486 -0.620109,-0.128786 -1.35125,-0.58066 -2.120432,-1.10269 -0.769181,-0.52203 -1.343724,-0.929965 -1.858371,-1.243243 -0.682622,-0.168188 0.0019,0.231683 -0.09558,0.527155 -0.09745,0.295472 -1.16498,0.216007 -1.27957,0.554173 z"
       inkscape:path-effect="#path-effect1465"
       inkscape:original-d="m 51.050501,30.675405 c 0.892824,0.881232 2.90058,2.668484 4.243825,2.954081 1.742029,0.446122 3.50339,0.779505 5.291751,0.96303 1.45828,0.131173 2.922347,-0.889939 4.385712,-0.879223 1.632244,-0.03684 3.241775,-0.862246 4.856927,-1.071648 1.319006,-0.136702 2.635282,-0.31883 3.925975,-0.626215 1.064678,-0.321689 2.095846,-0.740569 3.149512,-1.096256 1.586289,-0.530109 3.288374,-0.508286 4.941615,-0.574419 3.479565,-0.09249 6.961143,-0.110146 10.441461,-0.06132 4.341514,0.07793 8.671861,0.42428 12.980091,0.95327 3.83122,0.583358 7.67237,1.102566 11.49119,1.763545 3.69606,0.666036 7.3468,1.572493 10.95916,2.595198 2.89914,0.801674 5.78398,1.599136 8.53191,2.835635 2.3546,1.189818 4.57521,2.628619 6.81013,4.02627 2.03305,1.292553 4.15144,2.441093 6.1615,3.769212 1.88788,1.331309 3.68142,2.791145 5.47499,4.245462 1.9859,1.539247 3.93354,3.112553 5.74648,4.854159 1.57724,1.494814 2.81993,3.254618 3.94681,5.09878 1.27618,2.163477 2.2732,4.474218 3.30947,6.757831 1.25146,2.691186 2.43287,5.413087 3.71544,8.089847 1.27209,2.641786 2.49323,5.307672 3.7115,7.974576 1.03722,2.314493 2.04248,4.6443 2.98758,6.998028 0.73869,1.965738 1.63539,3.863399 2.51465,5.768412 0.70938,1.532448 1.48224,3.033363 2.25687,4.53323 0.38392,0.82315 0.76397,1.64792 1.13002,2.47924 0.50554,0.90352 1.01276,1.80933 1.42403,2.76043 0.38803,0.81904 0.71538,1.66529 1.08934,2.48998 0.21162,0.52645 0.45889,1.03167 0.77043,1.50626 0.26979,0.45404 0.47745,0.94002 0.74135,1.39803 0.261,0.49617 0.51436,0.99676 0.78788,1.48672 0.38804,0.61979 0.79992,1.22551 1.30702,1.75307 0.39997,0.31581 0.71888,0.70472 1.09629,1.04302 0.50696,0.36807 1.00045,0.76092 1.528,1.09986 0.5231,0.3362 1.10225,0.56664 1.65998,0.83693 0.55378,0.29502 1.15697,0.48486 1.72159,0.75312 0.61875,0.24359 1.24612,0.46511 1.89637,0.60707 0.52225,0.14174 1.01743,0.3546 1.53961,0.49787 0.56804,0.0986 1.13443,0.19508 1.70282,0.29358 0.66504,0.0697 1.31946,0.20566 1.98061,0.30303 0.61648,0.0874 1.239,0.10982 1.86069,0.12131 1.49646,0.0273 1.53501,-2.08906 0.0385,-2.11632 v 0 c -0.5319,-0.01 -1.0647,-0.026 -1.59237,-0.0993 -0.64421,-0.0938 -1.28178,-0.22876 -1.92988,-0.29497 -0.50416,-0.0852 -1.00522,-0.18187 -1.51155,-0.25161 -0.56107,-0.14539 -1.08464,-0.40595 -1.65418,-0.52524 -0.50025,-0.0974 -0.97361,-0.29131 -1.45237,-0.46127 -0.55698,-0.24826 -1.13214,-0.45623 -1.67726,-0.73228 -0.48864,-0.23649 -0.99642,-0.43754 -1.45791,-0.72506 -0.44641,-0.26645 -0.84044,-0.62121 -1.27171,-0.91083 -0.36398,-0.27672 -0.62348,-0.68557 -0.99965,-0.95448 -0.37582,-0.27499 -0.63849,-0.91062 -0.93872,-1.27327 -0.28191,-0.49909 -0.53433,-1.01321 -0.80557,-1.51765 -0.29202,-0.49093 -0.49218,-1.03139 -0.81014,-1.50803 -0.2598,-0.3752 -0.42693,-0.79517 -0.60621,-1.21261 -0.37759,-0.80827 -0.68347,-1.65107 -1.0735,-2.45464 -0.41893,-0.95058 -0.90103,-1.8735 -1.42775,-2.76888 -0.38584,-0.86913 -0.77907,-1.73469 -1.18524,-2.594534 -0.76049,-1.471922 -1.51907,-2.944955 -2.21561,-4.448823 -0.86437,-1.8727 -1.74721,-3.737531 -2.47236,-5.67037 -0.95802,-2.383922 -1.97501,-4.744392 -3.0264,-7.088534 -1.22369,-2.678716 -2.45031,-5.356381 -3.72802,-8.009877 -1.27668,-2.663232 -2.45083,-5.37225 -3.69674,-8.049754 -1.07223,-2.362584 -2.10649,-4.752137 -3.43148,-6.987905 -1.22375,-1.997277 -2.57832,-3.901186 -4.28677,-5.521265 -1.8573,-1.780291 -3.84479,-3.397855 -5.87896,-4.971071 -1.84724,-1.497491 -3.69427,-3.00106 -5.64171,-4.367635 -2.02549,-1.336569 -4.15568,-2.498802 -6.20551,-3.797496 -2.317,-1.448951 -4.61945,-2.940831 -7.06656,-4.163097 -1.20933,-0.540292 -1.38678,-0.64847 -2.66839,-1.097775 -2.02085,-0.708467 -4.09987,-1.240927 -6.15312,-1.843108 -3.68357,-1.041623 -7.40565,-1.966455 -11.17456,-2.644164 -3.85317,-0.666462 -7.7286,-1.191813 -11.59445,-1.778797 -4.38406,-0.536871 -8.790296,-0.890701 -13.208155,-0.968801 -3.518505,-0.04889 -7.038292,-0.03177 -10.556017,0.06283 -1.85573,0.07494 -3.757814,0.07557 -5.534335,0.684141 -0.993751,0.336243 -1.969304,0.722394 -2.967725,1.043744 -1.215141,0.297206 -2.460517,0.449461 -3.702561,0.584914 -1.519856,0.197602 -3.034128,1.004724 -4.569047,1.054085 -1.39714,-0.01003 -2.79496,1.013773 -4.18737,0.889984 -1.714436,-0.171794 -3.399795,-0.504227 -5.069739,-0.928518 -1.240219,-0.257572 -2.695862,-1.792299 -3.725157,-2.418854 -1.365243,-0.336376 -0.725144,0.859783 -0.954323,1.536115 z"
       sodipodi:nodetypes="ccccccccccccccccccccccccccccccccccccccccsscccccccccccccccccccccccccccsccccccccccccc" />
    <path
       style="fill:#000000;fill-opacity:1;stroke:none;stroke-width:0.529167;stroke-dasharray:none;stroke-opacity:1;paint-order:stroke fill markers"
       id="path2207"
       d="m 45.133656,48.529763 c -0.123121,-0.117525 -0.201311,-0.325567 -0.369363,-0.352578 -0.364982,-0.05867 -0.811096,0.589531 -0.971622,0.7333 -0.213918,0.191591 -0.49716,0.30779 -0.679429,0.529707 -2.621872,3.192166 2.063539,-1.635392 -1.47149,1.877208 -0.186129,0.469225 -0.372258,0.938451 -0.558388,1.407676 0.130644,0.585033 0.559607,1.179584 0.391936,1.7551 -0.174337,0.598387 -0.99626,0.801346 -1.295956,1.347827 -0.551923,1.006404 -0.131167,1.954316 -0.209346,2.990033 -0.03078,0.407704 -0.180954,0.797454 -0.271428,1.196184 0.07153,-0.315942 -0.375277,-0.417105 -0.44681,-0.101164 v 0 c 0.05675,-0.400653 0.136088,-0.79875 0.170257,-1.201957 0.04037,-0.476401 -0.148283,-0.999702 0.05307,-1.433343 0.256255,-0.551865 1.120876,-0.74567 1.236142,-1.34311 0.12075,-0.625882 -0.800487,-1.192204 -0.628582,-1.806014 1.333397,-4.761084 2.170613,2.296218 1.140214,-3.00837 0.361249,-0.309335 0.748279,-0.590881 1.083744,-0.928003 0.259223,-0.260503 0.39972,-0.636018 0.692989,-0.857496 0.246785,-0.186372 0.579877,-0.215161 0.869815,-0.322741 0.237688,-0.0176 0.52193,0.08958 0.713063,-0.0528 0.184449,-0.137403 0.153828,-0.433522 0.230743,-0.650285 0.151889,-0.101957 0.303781,-0.203914 0.455673,-0.305871 -0.372435,-0.09562 -0.507669,0.431077 -0.135234,0.5267 z" />
    <path
       style="fill:#000000;fill-opacity:1;stroke:none;stroke-width:0.529167;stroke-dasharray:none;stroke-opacity:1;paint-order:stroke fill markers"
       id="path2209"
       d="m 22.809897,80.216575 c -0.09668,0.110151 -0.193363,0.220305 -0.290045,0.330459 0.112328,0.258776 0.488768,0.538541 0.336983,0.77633 -0.217335,0.340477 -0.883958,0.129593 -1.123063,0.45515 -0.191662,0.260961 0.137242,0.649986 0.07766,0.968237 -0.357908,1.911644 -0.940671,-0.06912 0.163866,2.174669 -0.300901,0.943366 -1.62373,1.273656 -1.925586,2.200391 -0.147237,0.452038 0.04172,0.969222 0.223066,1.408687 0.232733,0.563991 0.873078,0.939466 0.992785,1.537729 0.11166,0.558043 -0.233844,1.113927 -0.350766,1.670894 0.21567,0.563896 0.43134,1.127794 0.64701,1.691693 -0.0303,0.56429 -0.0606,1.128583 -0.09089,1.692873 0.02676,0.229655 0.351544,0.191804 0.32478,-0.03785 v 0 c -0.30418,-0.529979 -0.608361,-1.059955 -0.912542,-1.589931 -2.267266,-6.488168 0.720541,3.567742 0.64263,-3.432019 -0.0074,-0.665531 -1.276158,-0.868574 -1.277992,-1.534142 -0.0017,-0.603821 1.538046,-0.750345 1.270208,-1.291518 -0.459896,-0.929233 -2.531507,-0.543526 -2.685832,-1.568786 -0.123031,-0.817362 1.544358,-0.589757 2.316537,-0.884635 0.09239,-0.357973 0.173639,-0.71901 0.277177,-1.073922 0.09637,-0.330354 0.247149,-0.644962 0.322241,-0.980792 0.06704,-0.299829 0.03424,-0.616355 0.101892,-0.916046 0.05811,-0.257447 0.253007,-0.480147 0.272675,-0.743339 0.01853,-0.247954 -0.220952,-0.486243 -0.162724,-0.727977 0.04005,-0.166254 0.274523,-0.203991 0.411784,-0.305988 -0.12716,0.309822 0.310995,0.489654 0.438154,0.179832 z" />
    <path
       style="fill:#000000;fill-opacity:1;stroke:none;stroke-width:0.529167;stroke-dasharray:none;stroke-opacity:1;paint-order:stroke fill markers"
       id="path2211"
       d="m 16.987688,134.45317 c 0.324677,0.25776 0.367504,1.79832 0.511362,1.9717 0.305657,0.36839 1.090224,0.30971 1.210155,0.77313 1.029641,3.97848 -2.750481,-0.39878 0.697799,2.92324 3.704867,4.31238 -1.251689,-2.23163 0.483088,3.49137 0.191032,0.63022 1.162311,0.64233 1.653965,1.08044 3.571917,3.18287 -1.207565,-0.62049 1.355449,2.67275 0.313631,0.40298 0.881739,0.51535 1.322609,0.77303 -0.249114,-0.55808 -1.038358,-0.20578 -0.789244,0.3523 v 0 c -0.163057,-0.38155 -0.345729,-0.7553 -0.489171,-1.14464 -0.165716,-0.44981 -0.203392,-0.95156 -0.437262,-1.37 -0.264004,-0.47235 -0.697929,-0.82752 -1.029825,-1.25491 -0.345509,-0.44491 -0.722641,-0.87174 -1.001685,-1.36109 -0.280991,-0.49276 -0.421729,-1.05411 -0.667171,-1.56551 -0.24679,-0.51421 -0.538708,-1.00552 -0.808062,-1.50828 -0.96409,-1.68686 -0.831348,-0.99601 -0.927464,-2.85576 -0.02078,-0.40211 -0.0387,-0.80594 -0.01438,-1.20785 0.02005,-0.3315 0.317644,-0.70046 0.147058,-0.9854 -0.151764,-0.25351 -1.542355,-0.50383 -1.820161,-0.56353 0.156261,0.42634 0.759203,0.20536 0.602943,-0.22099 z" />
    <path
       style="fill:#000000;fill-opacity:1;stroke:none;stroke-width:0.529167;stroke-dasharray:none;stroke-opacity:1;paint-order:stroke fill markers"
       id="path2213"
       d="m 70.704503,45.921871 c 0.226732,0.162245 0.403325,0.51951 0.680196,0.486738 0.258188,-0.03056 0.284541,-0.440126 0.469524,-0.622818 0.212397,-0.20977 0.436475,-0.427921 0.711623,-0.543716 1.222542,-0.514499 0.940687,0.08484 2.280614,-0.06627 0.418912,-0.04724 0.800346,-0.265189 1.20052,-0.397785 2.075786,0.424053 0.988674,0.324077 3.084536,0.271063 0.565526,-0.01431 1.13107,-0.02861 1.696702,-0.03794 0.609814,-0.01005 1.223936,-0.09214 1.82958,-0.02024 3.238003,0.384468 0.32652,0.928436 3.864155,-0.22842 0.535916,0.171899 1.071832,0.343797 1.607749,0.515696 0.343818,0.106492 0.494421,-0.37974 0.150603,-0.486232 v 0 c -0.589838,0.0029 -1.179679,0.0058 -1.769517,0.0087 -4.078634,1.139447 -0.08247,0.406527 -3.889931,0.04718 -0.596371,-0.05628 -1.188895,0.179221 -1.787917,0.181126 -0.587282,0.0019 -1.168767,-0.116776 -1.753647,-0.169862 -1.756257,-0.159399 -1.366409,-0.123045 -3.069842,-0.20537 -0.41036,0.102648 -0.9023,0.04179 -1.231085,0.307938 -0.396256,0.320762 -0.267059,1.312095 -0.77684,1.317445 -0.667004,0.007 -0.863478,-1.225521 -1.527069,-1.293265 -0.397947,-0.04062 -0.145635,0.925902 -0.51263,1.085043 -0.463844,0.201136 -0.871107,-0.819036 -1.423409,-0.523817 -0.265014,0.117441 -0.09893,0.492231 0.166085,0.374791 z" />
    <path
       style="fill:#000000;fill-opacity:1;stroke:none;stroke-width:0.529167;stroke-dasharray:none;stroke-opacity:1;paint-order:stroke fill markers"
       id="path2215"
       d="m 132.64284,57.508335 c 0.45877,-0.02945 0.70643,-0.129397 1.10734,0.226544 0.19299,0.171336 0.21207,0.514027 0.43832,0.638165 0.28668,0.1573 0.67014,0.0088 0.97161,0.13544 0.27916,0.117287 0.47156,0.379976 0.70734,0.569963 0.36427,0.106158 0.72854,0.21232 1.09281,0.318479 0.24093,0.275084 0.48185,0.550169 0.72278,0.825254 0.29679,0.22076 0.63597,0.393768 0.89037,0.662286 0.2441,0.257654 0.3163,0.65627 0.5819,0.891707 0.26102,0.231372 0.69874,0.206965 0.94082,0.458086 0.39344,0.40813 0.33137,1.234017 0.34917,1.720929 0.13567,0.193884 0.40986,0.0021 0.2742,-0.191854 v 0 c -0.0659,-0.255138 -0.16442,-0.504005 -0.19755,-0.765411 -0.0457,-0.360664 0.23917,-0.854278 -0.0376,-1.090001 -0.34665,-0.29523 -0.93061,0.04306 -1.36217,-0.102156 -2.26171,-0.761076 0.65844,-2.854192 -2.67727,-1.857639 -0.12085,-0.373788 -0.27392,-0.738651 -0.36255,-1.12136 -0.0916,-0.395674 0.22933,-1.185693 -0.17633,-1.205608 -0.76127,-0.03738 -1.24395,1.131792 -2.00541,1.098486 -0.39488,-0.01728 0.23081,-0.857197 0.011,-1.185719 -0.2321,-0.346954 -0.94812,0.264427 -1.25133,-0.04903 -0.0166,-0.01236 -0.0341,0.01109 -0.0175,0.02344 z" />
    <path
       style="fill:#000000;fill-opacity:1;stroke:none;stroke-width:0.529167;stroke-dasharray:none;stroke-opacity:1;paint-order:stroke fill markers"
       id="path2217"
       d="m 157.30296,111.66655 c 0.19329,0.12961 0.53288,0.16091 0.57987,0.38885 0.0453,0.21959 -0.25744,0.36717 -0.38616,0.55075 0.4477,0.25739 1.14909,0.29359 1.3431,0.77218 0.13237,0.32653 -0.5235,0.48299 -0.71416,0.77929 -0.1647,0.25594 -0.22274,0.56649 -0.33411,0.84973 -0.004,0.0387 0.0507,0.0443 0.0547,0.006 v 0 c 0.35751,-0.26656 0.9122,-0.38356 1.07254,-0.79968 0.11457,-0.29739 -0.37331,-0.53819 -0.43673,-0.85051 -0.0485,-0.23862 0.1378,-0.4783 0.11759,-0.72096 -0.0287,-0.34445 -0.32248,-0.62696 -0.35225,-0.97526 0,-0.66777 -0.94436,-0.66777 -0.94436,0 z" />
    <path
       style="fill:#000000;fill-opacity:1;stroke:none;stroke-width:0.529167;stroke-dasharray:none;stroke-opacity:1;paint-order:stroke fill markers"
       id="path2219"
       d="m 147.45161,140.35886 c -0.15111,0.0429 -0.31474,0.0547 -0.45333,0.12859 -0.16535,0.0882 -0.26693,0.27946 -0.44113,0.34858 -0.30309,0.12027 -0.67555,0.0401 -0.95631,0.20592 -0.24705,0.14592 -0.3152,0.4897 -0.53453,0.67469 -2.22581,1.87726 0.25525,-0.82012 -1.69314,1.43757 0.4346,2.18092 1.01677,1.85278 -1.05959,2.55586 -0.55573,0.18817 -1.2194,0.10081 -1.70792,0.42578 -0.3962,0.26355 -0.47164,0.82918 -0.75422,1.21204 -1.05552,1.43006 -0.72831,1.00579 -2.60264,1.27044 -0.64169,1.87612 0.0123,1.33826 -2.03679,1.51805 -0.1875,0.17789 0.0641,0.44307 0.25158,0.26518 v 0 c 1.6444,-0.66107 0.84783,-0.26477 2.38691,-1.19448 0.31873,-0.32167 0.74497,-0.56445 0.95619,-0.96501 0.2422,-0.45929 -0.0956,-1.25547 0.35279,-1.51724 0.62701,-0.36603 1.51902,0.34535 2.17773,0.04 0.44782,-0.20758 0.3095,-0.9641 0.62845,-1.3408 2.31288,-2.73163 0.31939,1.13867 1.7424,-2.02455 0.15335,-0.35483 0.11385,-0.89255 0.46005,-1.06449 0.59109,-0.29356 2.11592,0.57058 2.24264,-0.73014 0.0365,-0.37448 -0.38653,-0.70985 -0.32483,-1.081 0.0497,-0.29881 0.86823,-0.10548 0.64279,-0.64232 -0.33752,0.51116 0.38538,0.98849 0.7229,0.47732 z" />
    <path
       style="fill:#000000;fill-opacity:1;stroke:none;stroke-width:0.529167;stroke-dasharray:none;stroke-opacity:1;paint-order:stroke fill markers"
       id="path2221"
       d="m 71.382371,171.65501 c -0.05609,-0.18189 0.0058,-0.46869 -0.168265,-0.54568 -0.219162,-0.0969 -0.474287,0.24032 -0.700566,0.16142 -0.575749,-0.20075 -0.52727,-1.21655 -1.41106,-0.99706 -2.973322,0.73841 -0.559306,1.7559 -2.879148,0.31985 -2.168893,-0.21852 -3.278286,-1.48379 -5.575747,-1.35333 -0.831107,0.0472 -1.626444,0.35572 -2.439668,0.53358 0.01236,0.004 0.01847,-0.0131 0.0061,-0.0175 v 0 c 0.760682,-0.0282 1.521367,-0.0565 2.28205,-0.0847 0.688255,0.17421 1.355013,0.50552 2.064766,0.52262 3.398062,0.0819 1.249944,-1.44926 3.463994,0.87773 5.402355,-2.70601 -0.520423,-0.52388 2.603296,0.24898 0.3103,0.0768 1.51865,-1.20822 2.136939,-0.58277 0.21377,0.21625 0.0047,0.65287 0.193095,0.89156 0.09677,0.12261 0.310026,-0.0385 0.46504,-0.0577 -0.05871,-0.0289 -0.09954,0.0541 -0.04084,0.083 z" />
    <path
       style="fill:#000000;fill-opacity:1;stroke:none;stroke-width:0.529167;stroke-dasharray:none;stroke-opacity:1;paint-order:stroke fill markers"
       id="path2223"
       d="m 96.816684,68.554411 c 0.599186,-0.0077 0.38123,0.9203 0.802381,1.028915 0.471749,0.121663 0.97237,-0.413899 1.436931,-0.267158 0.365307,0.11539 0.447386,0.622011 0.671081,0.933019 0.150966,0.123401 0.325483,-0.0901 0.174516,-0.213501 v 0 c -0.369453,-0.127672 -0.72409,-0.311369 -1.10836,-0.383016 -0.390719,-0.07285 -0.909051,0.233868 -1.191475,-0.04578 -0.284747,-0.281956 0.100344,-0.836179 -0.06696,-1.200309 -0.07533,-0.163957 -0.354367,-0.06822 -0.531551,-0.102325 -0.17689,-0.131919 -0.36345,0.11824 -0.186563,0.250158 z" />
    <path
       style="fill:#000000;fill-opacity:1;stroke:none;stroke-width:0.529167;stroke-dasharray:none;stroke-opacity:1;paint-order:stroke fill markers"
       id="path2225"
       d="m 121.18341,102.68043 c 1.31325,1.18755 0.43376,-0.008 -2.7e-4,1.25586 -0.11494,0.33481 0.0487,0.70632 0.073,1.05947 -0.31996,0.31333 -0.7737,0.53269 -0.95986,0.93998 -0.18612,0.4072 0.21086,1.00243 -0.0825,1.34061 -0.40217,0.46356 -1.13198,0.47445 -1.69797,0.71168 -0.47904,1.7142 -0.11533,0.9134 -1.09134,2.40233 -0.26608,0.50286 0.44508,0.87916 0.71116,0.37629 v 0 c 0.85013,-1.66015 0.25186,-0.93678 1.86293,-2.11192 -0.33912,-1.2402 -0.86936,-1.74255 0.11502,-2.78253 0.35319,-0.37314 1.07417,-0.36941 1.29742,-0.83215 0.17157,-0.35562 -0.29531,-0.7406 -0.34998,-1.13163 -0.13622,-0.97436 0.2092,-0.8046 1.02134,-1.1594 0.0485,-0.63561 -0.85039,-0.7042 -0.89889,-0.0686 z" />
    <path
       style="fill:#000000;fill-opacity:1;stroke:none;stroke-width:0.529167;stroke-dasharray:none;stroke-opacity:1;paint-order:stroke fill markers"
       id="path2227"
       d="m 69.235298,132.18107 c -2.269382,1.00718 1.100222,-0.25718 -1.584195,-0.18113 -0.525167,0.0149 -0.946883,0.59998 -1.471139,0.56565 -0.513115,-0.0336 -0.835927,-0.7024 -1.347909,-0.75026 -0.701122,-0.0655 -1.378744,0.28729 -2.068116,0.43093 -0.749168,-0.0938 -1.498338,-0.18762 -2.247508,-0.28143 -3.640961,-0.90088 -1.815129,-0.26332 -5.449824,-1.99015 -0.06171,-0.0281 -0.101418,0.0592 -0.03971,0.0873 v 0 c 3.735623,1.56645 1.843871,1.09421 5.651455,1.50889 0.833419,-0.14227 1.654823,-0.43477 2.500262,-0.42681 1.104847,0.0104 2.086782,0.76269 3.137342,0.96664 0.424532,0.0824 0.870013,-0.0414 1.297099,0.0266 0.319542,0.0508 0.612806,0.44202 0.914558,0.32525 0.42436,-0.16421 0.599432,-0.68473 0.899147,-1.02711 -0.527288,-0.13538 -0.718754,0.61032 -0.191463,0.74571 z" />
    <path
       style="fill:#000000;fill-opacity:1;stroke:none;stroke-width:0.529167;stroke-dasharray:none;stroke-opacity:1;paint-order:stroke fill markers"
       id="path2229"
       d="m 67.371279,76.746006 c -1.126503,2.05663 1.38997,-2.211279 -1.537655,0.596358 -0.322239,0.309028 -0.06133,0.903436 -0.217831,1.321578 -0.940366,2.512531 -0.470636,-0.0093 -2.042483,2.305886 -0.342228,0.504063 -0.398156,1.151639 -0.597236,1.727457 -1.041101,0.552058 -2.61616,1.059045 -2.966569,2.448761 -0.184227,0.730633 0.705826,1.707213 0.186145,2.252829 -3.211328,3.371561 -3.108947,-2.646545 -2.545779,2.668788 0.182764,-0.310443 -0.256272,-0.568909 -0.439036,-0.258463 v 0 c -0.198231,-0.805495 -1.038101,-1.715408 -0.594699,-2.416487 0.461727,-0.730055 1.761392,-0.20057 2.515886,-0.621173 0.543126,-0.302774 0.820817,-0.936802 1.184116,-1.44145 2.682449,-3.726096 -0.805069,0.565158 2.160204,-2.971133 4.889095,-3.685924 -1.439452,1.531723 2.007793,-2.754749 0.817325,-1.016305 1.73672,-0.514422 2.672924,-1.202852 0.240824,-0.177088 0.279191,-0.528656 0.419299,-0.792713 0.08812,-0.166081 0.176929,-0.3318 0.265393,-0.497702 0.258048,-0.332674 -0.212424,-0.697608 -0.470472,-0.364935 z" />
    <path
       style="fill:#000000;fill-opacity:1;stroke:none;stroke-width:0.529167;stroke-dasharray:none;stroke-opacity:1;paint-order:stroke fill markers"
       id="path2231"
       d="m 79.807677,112.86145 c 0.0951,0.1638 0.515377,0.90886 0.600925,0.92525 0.441782,0.0846 0.878205,-0.2157 1.327089,-0.24463 0.475403,-0.0306 0.95173,0.0447 1.427594,0.0671 -0.07609,-0.0448 -0.139486,0.0628 -0.06339,0.10761 v 0 c -0.593892,0.14702 -1.187781,0.29404 -1.781673,0.44106 -0.264975,-0.17444 -0.478819,-0.49657 -0.794927,-0.5233 -1.37554,-0.11633 -1.865985,1.66848 -0.312449,-1.20999 -0.308946,-0.28508 -0.712118,0.15184 -0.40317,0.43692 z" />
    <path
       style="fill:#000000;fill-opacity:1;stroke:none;stroke-width:0.529167;stroke-dasharray:none;stroke-opacity:1;paint-order:stroke fill markers"
       id="path2233"
       d="m 106.26255,162.86891 c -0.0479,-0.46596 -0.43286,-1.5194 0.44215,-1.72933 0.47402,-0.11373 0.98186,0.2509 1.45594,0.13742 4.04164,-0.96749 -2.20409,-0.48205 2.03407,-1.9364 0.68492,-0.23504 1.44606,0.0795 2.1691,0.11926 1.79394,-3.44422 -0.43036,-0.33731 3.09275,-1.84306 0.5493,-0.23476 0.81618,-0.87246 1.22427,-1.30869 0.13142,-0.12183 -0.0409,-0.30768 -0.17229,-0.18586 v 0 c -0.49746,0.32831 -0.94844,0.74122 -1.49237,0.98492 -0.59783,0.26784 -1.53114,-0.0153 -1.89204,0.53139 -0.47526,0.71994 -0.10918,1.72187 -0.16377,2.58281 -0.79674,-0.13135 -1.58692,-0.47628 -2.39022,-0.39404 -0.3945,0.0404 -1.97648,1.31663 -2.36911,1.50302 -0.24102,0.11442 -1.6024,0.28936 -1.80446,0.75866 -0.13744,0.31922 0.0325,0.69435 0.0487,1.04152 0.185,-0.12921 0.002,-0.39083 -0.18273,-0.26162 z" />
    <path
       style="fill:#000000;fill-opacity:1;stroke:none;stroke-width:0.529167;stroke-dasharray:none;stroke-opacity:1;paint-order:stroke fill markers"
       id="path2235"
       d="m 179.43243,135.69864 c -1.84175,0.63666 -0.30061,-0.22504 -0.77744,1.25192 -0.13263,0.41079 -0.82367,0.61817 -0.76393,1.04569 0.0852,0.60965 0.98173,0.87078 1.11569,1.4716 0.10137,0.45464 -1.10343,2.50266 -1.24863,2.77037 0.52195,0.82166 0.11229,1.77281 0.31898,2.63208 0.10063,0.41836 0.4056,0.76321 0.54407,1.17061 0.12931,0.38044 0.0518,0.83125 0.25428,1.1783 0.22598,0.38725 0.64959,0.61818 0.97438,0.92727 -0.017,-0.0781 -0.12742,-0.054 -0.11042,0.0241 v 0 c -1.7526,-4.32514 1.19598,2.69771 -1.22489,-2.11178 -0.18679,-0.3711 -0.21488,-0.80292 -0.33976,-1.19916 -0.13154,-0.41739 -0.51818,-0.81226 -0.42919,-1.24075 0.11497,-0.55361 0.65008,-0.92532 0.97512,-1.38798 -2.1e-4,-0.46432 -0.04,-0.93031 -5.3e-4,-1.39295 0.0395,-0.46345 0.34576,-0.92307 0.2365,-1.37518 -0.0327,-0.1353 -1.62104,-2.05802 -1.0951,-2.65195 0.40341,-0.45556 1.42528,-0.0351 1.73849,-0.55683 0.21175,-0.35272 -0.59483,-0.5685 -0.89224,-0.85275 -0.21033,0.51245 0.51439,0.80989 0.72471,0.29745 z" />
    <path
       style="fill:#000000;fill-opacity:1;stroke:none;stroke-width:0.529167;stroke-dasharray:none;stroke-opacity:1;paint-order:stroke fill markers"
       id="path2237"
       d="m 161.33928,183.33633 c -0.27782,0.52073 -1.13085,0.23127 -1.41919,0.66731 -0.25839,0.39073 0.14859,1.07909 -0.20104,1.39085 -0.4373,0.38995 -1.16079,0.1769 -1.72682,0.32823 -2.09635,0.56048 -1.49066,0.26948 -2.48537,2.12309 -0.63058,0.51761 -2.42863,2.13267 -3.28003,2.22893 -1.03998,0.11758 -2.0959,-0.75817 -3.1036,-0.47547 -0.74967,0.2103 -1.01393,1.18187 -1.5209,1.77281 0.0632,-0.0417 0.004,-0.13107 -0.059,-0.0893 v 0 c 0.70787,-0.31232 1.41574,-0.62463 2.12361,-0.93695 0.59353,-0.40948 1.12197,-0.9349 1.78059,-1.22845 3.71067,-1.65384 0.88945,0.80166 3.45831,-1.86503 0.43097,-0.16897 2.76741,-0.99106 3.14225,-1.47874 0.31916,-0.41523 0.0925,-1.08453 0.37442,-1.52589 0.52942,-0.82883 1.9764,-0.83267 2.82385,-0.98345 -0.051,0.0657 0.042,0.13782 0.0929,0.0721 z" />
    <path
       style="fill:#000000;fill-opacity:1;stroke:none;stroke-width:0.529167;stroke-dasharray:none;stroke-opacity:1;paint-order:stroke fill markers"
       id="path2239"
       d="m 198.0213,82.993673 c 0.23522,-0.352837 0.88803,-0.675674 0.70566,-1.058513 -0.17113,-0.359243 -0.82637,0.189013 -1.19325,0.03494 -0.32401,-0.136073 -0.3835,-0.60892 -0.66723,-0.816272 -0.37629,-0.274999 -0.95831,-0.244758 -1.26493,-0.595764 -0.3517,-0.402612 -0.17851,-1.132436 -0.56622,-1.50049 -0.4609,-0.43753 -1.17828,-0.476549 -1.76742,-0.714824 -0.36062,-0.450057 -0.72125,-0.900115 -1.08187,-1.350174 0.0644,0.08629 0.18641,-0.0048 0.12202,-0.09106 v 0 c 0.70451,0.178382 1.40901,0.356762 2.11351,0.535144 0.47173,1.307967 0.48394,1.876284 1.51884,2.825882 0.18087,0.165968 1.8349,1.03999 2.00459,1.397053 0.13224,0.278267 -0.35009,0.735399 -0.10237,0.918583 0.28125,0.207983 0.68128,-0.159057 1.02191,-0.238586 -0.46251,-0.596265 -1.30575,0.05782 -0.84324,0.654087 z" />
    <path
       style="fill:#000000;fill-opacity:1;stroke:none;stroke-width:0.529167;stroke-dasharray:none;stroke-opacity:1;paint-order:stroke fill markers"
       id="path2241"
       d="m 104.1905,12.726887 c 0.44549,0.163086 0.57124,0.15817 0.93424,0.561393 0.18947,0.210466 0.2056,0.649575 0.48465,0.697759 0.41689,0.07198 0.81876,-0.584955 1.20232,-0.406477 2.35807,1.097237 -1.83746,1.552832 1.41774,0.91089 0.15392,0.311819 0.19074,0.717593 0.46177,0.935459 0.26131,0.21005 2.05264,0.378824 2.2552,0.418231 1.45952,0.283953 1.1255,0.225889 2.34,0.995499 0.0966,0.07636 0.20456,-0.06022 0.10799,-0.136582 v 0 c -0.41142,-0.147986 -0.83604,-0.263455 -1.23426,-0.443959 -0.37376,-0.169414 -0.68186,-0.480487 -1.07376,-0.602192 -0.40779,-0.126643 -0.87355,0.01921 -1.2747,-0.127126 -3.10721,-1.133523 1.55551,-0.276656 -1.74876,-0.76735 -0.13121,-0.316349 -0.0768,-0.818984 -0.39365,-0.949047 -1.92732,-0.791203 -0.42163,1.252106 -2.04233,0.142251 -0.24094,-0.164991 -0.17239,-0.685099 -0.45778,-0.746913 -1.28121,-0.277495 -0.89411,1.447451 -1.02713,-0.397511 0.0596,0.03427 0.10809,-0.05006 0.0485,-0.08432 z" />
    <path
       style="fill:#000000;fill-opacity:1;stroke:none;stroke-width:0.529167;stroke-dasharray:none;stroke-opacity:1;paint-order:stroke fill markers"
       id="path2247"
       d="m 58.380613,189.38481 c 0.252077,0.60497 0.599422,1.60123 1.150903,1.96345 0.622343,0.40877 1.521336,0.28937 2.102216,0.75519 0.1378,0.1105 2.121236,3.68444 2.154406,3.72615 0.481574,0.60551 1.135616,1.05099 1.703422,1.57649 0.884537,0.24301 1.769071,0.48602 2.653607,0.72903 0.629489,0.52565 1.129996,1.26505 1.888469,1.57697 0.963065,0.39605 2.140714,0.0383 3.088449,0.46975 0.856761,0.39004 1.325536,1.35227 2.097429,1.89111 2.642767,1.84485 2.671458,1.41471 5.875139,1.68174 -0.646848,-0.42767 -1.251662,0.48711 -0.604814,0.91478 v 0 c -3.410984,-1.81988 -1.652497,-0.9553 -5.280448,-2.58359 -1.160611,-0.61424 -3.493963,-2.28757 -4.714536,-2.87107 -0.803447,-0.38409 -1.863016,-0.31027 -2.505745,-0.92667 -0.597381,-0.57291 -0.587443,-1.54767 -0.881165,-2.3215 -0.946425,-0.17632 -2.015207,-0.0312 -2.839278,-0.52895 -0.630307,-0.38068 -0.724033,-1.28595 -1.154658,-1.88324 -0.39892,-0.55333 -0.877091,-1.04509 -1.326496,-1.55826 -0.392274,-0.44793 -0.765559,-0.9157 -1.198259,-1.32471 -0.570089,-0.53888 -1.274646,-0.92058 -1.851075,-1.4533 -0.117824,-0.25284 -0.47539,-0.0862 -0.357566,0.16663 z" />
    <path
       style="fill:#000000;fill-opacity:1;stroke:none;stroke-width:0.529167;stroke-dasharray:none;stroke-opacity:1;paint-order:stroke fill markers"
       id="path2249"
       d="m 109.9838,205.65287 c 0.51982,-0.38973 1.2078,-0.41611 1.75642,-0.73529 0.43535,-0.25329 0.82824,-0.58012 1.19242,-0.92807 0.43864,-0.41909 0.71821,-1.00226 1.20578,-1.36326 4.02571,-2.98073 -0.16457,1.382 3.16558,-2.3957 1.0224,-0.22879 3.10372,-0.52678 3.98843,-1.32216 0.42938,-0.38603 0.37041,-1.17819 0.83913,-1.51539 0.47135,-0.3391 1.22512,-0.004 1.7123,-0.32016 0.20012,-0.12978 0.90445,-1.95051 1.01237,-2.21706 1.88504,-1.28556 -0.72708,0.25682 2.18692,-0.34753 0.26118,-0.0542 0.35652,-0.39824 0.55476,-0.57671 0.19266,-0.17345 0.40989,-0.31749 0.61483,-0.47624 0.0849,-0.0826 -0.0319,-0.20267 -0.11678,-0.12009 v 0 c -0.47367,-0.0906 -1.06898,-0.60157 -1.42102,-0.27194 -0.3356,0.31424 0.25468,0.89376 0.26608,1.35338 0.0321,1.29473 -0.30848,0.95109 -1.41837,1.08754 -2.42872,1.98786 1.28894,-0.81357 -2.35084,0.87099 -5.10868,2.36438 3.56315,-0.61296 -1.79922,2.61451 -3.3954,2.04361 -1.9859,-2.35162 -2.6741,2.69159 -8.02545,0.95817 1.97628,-0.6938 -4.00539,1.55443 -0.80429,0.3023 -3.00262,-0.36819 -3.46615,1.12196 -0.19592,0.62983 0.64564,1.41872 0.26927,1.9604 -0.26511,0.38156 -0.87977,-0.29911 -1.31966,-0.44866 0.15312,-0.1363 -0.0396,-0.35284 -0.19276,-0.21654 z" />
    <path
       style="fill:#000000;fill-opacity:1;stroke:none;stroke-width:0.529167;stroke-dasharray:none;stroke-opacity:1;paint-order:stroke fill markers"
       id="path2251"
       d="m 13.825281,161.63 c 0.19283,0.003 0.430191,-0.11412 0.578492,0.009 0.16095,0.13381 0.01091,0.46198 0.162204,0.60661 0.196771,0.1881 0.514104,0.17974 0.766655,0.28131 0.301639,0.12132 0.624456,0.20719 0.89526,0.3871 0.300127,0.1994 0.5287,0.48971 0.79305,0.73457 0.395721,0.24806 0.791441,0.49612 1.187161,0.74419 0.190424,0.6638 0.06273,1.5242 0.571271,1.99141 0.59687,0.54837 1.578318,0.38805 2.334965,0.67863 0.802903,0.30835 1.541719,0.76413 2.328203,1.11223 0.678531,0.30032 4.152399,1.65182 4.834992,2.06265 0.64171,0.38622 1.161973,0.94533 1.742958,1.418 3.923245,1.82517 0.256186,-0.24339 3.079139,2.38716 0.423969,0.39508 1.09895,0.4891 1.461979,0.9408 0.36231,0.45082 0.330663,1.11654 0.601962,1.62732 0.834496,1.57114 1.070856,1.34737 2.700022,2.13265 0.38603,0.41594 0.77206,0.83187 1.158089,1.24781 -0.261601,-0.45202 -0.900855,-0.0821 -0.639254,0.36996 v 0 c -0.149093,-0.55429 -0.298185,-1.10858 -0.447278,-1.66288 -2.582979,-3.99538 0.96557,0.99803 -2.502861,-2.30914 -0.400867,-0.38223 -0.335078,-1.21041 -0.842637,-1.43217 -0.730808,-0.31931 -1.743183,0.48176 -2.392486,0.0187 -6.243879,-4.45313 5.897305,-0.21215 -2.678536,-2.73332 -2.126864,-1.95105 -1.146321,-1.34797 -3.946345,-2.61067 -0.814272,-0.36721 -1.800831,-0.45357 -2.465145,-1.05071 -0.663868,-0.59673 -0.489992,-1.97463 -1.30518,-2.33833 -5.249897,-2.34226 -1.847535,2.89479 -4.064582,-1.33961 -0.161846,-0.49572 -0.118083,-1.11715 -0.485538,-1.48716 -0.303473,-0.30559 -0.863576,-0.11172 -1.262776,-0.27333 -2.596942,-1.05133 0.772266,0.0142 -1.152483,-1.15048 -0.212593,-0.12864 -0.501797,-0.0162 -0.740604,-0.0848 -0.127832,-0.0368 -0.22051,-0.14881 -0.330764,-0.22321 0.03846,0.0425 0.09853,-0.0119 0.06007,-0.0544 z" />
    <path
       style="fill:#000000;fill-opacity:1;stroke:none;stroke-width:0.529167;stroke-dasharray:none;stroke-opacity:1;paint-order:stroke fill markers"
       id="path2253"
       d="m 33.70713,101.29657 c 0.225431,-0.19473 0.423151,-0.42716 0.676286,-0.5842 0.107344,-0.0666 1.340699,-0.53056 1.465604,-0.37644 0.279492,0.34484 -0.119669,0.99416 0.182803,1.31904 0.208939,0.22441 0.602012,-0.12731 0.907971,-0.14748 0.26952,-0.0178 0.539729,0.0228 0.809593,0.0342 0.975011,1.25547 1.781985,-1.604827 2.549559,-1.08997 0.660025,0.44272 -0.647726,1.57262 -0.447852,2.34183 0.09263,0.3565 0.728348,0.11314 1.094973,0.14861 1.650725,0.15968 1.204526,-0.39376 1.115753,1.4857 0.456068,-0.10731 0.907354,-0.40636 1.368203,-0.32193 0.235556,0.0432 0.219212,0.42599 0.337182,0.6344 0.556276,0.9827 0.04053,0.14672 0.895644,0.96267 0.192709,0.18389 0.341304,0.40907 0.51489,0.61111 0.209385,0.24371 0.42265,0.48406 0.633978,0.72609 0.356233,1.49478 0.388681,0.70208 -0.367834,2.35147 0.06345,0.35902 0.571172,0.26929 0.507725,-0.0897 v 0 c -1.042612,-1.27748 -0.791335,-0.58122 -0.919496,-2.02132 0.178152,-1.27851 0.236471,-0.61205 -0.131686,-1.70763 -0.07906,-0.23527 -0.0076,-0.58781 -0.223504,-0.71026 -0.302241,-0.17143 -0.747514,0.17608 -1.042384,-0.008 -1.636102,-1.01991 2.101604,-0.9736 -1.371203,-0.65263 -0.129294,-0.29408 -0.247158,-0.59346 -0.387885,-0.88224 -0.296786,-0.60904 -0.527127,-1.38818 -1.42517,-1.36477 -0.511789,0.0133 -0.944438,0.55367 -1.453253,0.497 -0.291118,-0.0324 -0.339971,-0.4771 -0.509955,-0.71565 -0.267253,-0.0256 -0.534509,-0.0512 -0.801762,-0.0768 -0.235722,-0.0763 -0.541401,-0.0446 -0.70717,-0.22877 -0.44739,-0.49692 -0.319122,-1.739464 -0.836234,-1.705282 -0.46885,0.03099 -0.693584,0.671012 -1.132041,0.839942 -0.15807,0.0609 -0.302448,-0.15266 -0.453671,-0.22899 -0.162195,0.0743 -0.324387,0.14852 -0.486582,0.22279 -0.521115,-0.25632 -0.883597,0.48065 -0.362482,0.73696 z" />
    <path
       style="fill:#000000;fill-opacity:1;stroke:none;stroke-width:0.529167;stroke-dasharray:none;stroke-opacity:1;paint-order:stroke fill markers"
       id="path2255"
       d="m 178.19984,163.39777 c -0.42049,-0.0542 -0.88021,-0.34788 -1.26147,-0.16245 -0.21697,0.10553 0.10705,0.47167 0.13235,0.71161 0.0283,0.2679 0.11103,0.55145 0.0279,0.80767 -0.0987,0.30419 -0.44957,0.48396 -0.54612,0.78886 -0.10627,0.33557 0.0135,0.70709 -0.0379,1.05531 -0.0553,0.37449 -0.18706,0.73364 -0.2806,1.10045 -0.20242,0.37581 -0.49138,0.71659 -0.60728,1.12741 -0.12339,0.43732 0.0436,0.927 -0.0945,1.3599 -0.14389,0.45103 -0.55044,0.78057 -0.72836,1.2193 -0.18198,0.44875 -0.13413,0.97385 -0.33897,1.41264 -1.63537,3.50312 -0.23233,-1.31635 -1.1969,2.51048 0.68013,-0.9804 -0.70636,-1.94226 -1.3865,-0.96186 v 0 c 0.47032,-0.20185 1.01395,-0.28253 1.41094,-0.60554 0.21685,-0.17645 1.34673,-2.14914 1.39352,-2.40408 0.0905,-0.49329 -0.37222,-1.05321 -0.14052,-1.498 0.26221,-0.50332 0.94302,-0.63173 1.41453,-0.94759 0.11771,-0.3989 0.23542,-0.7978 0.35313,-1.19669 0.36903,-0.31649 0.89068,-0.51413 1.10709,-0.94946 0.15737,-0.31655 -0.15195,-0.70362 -0.11077,-1.05472 0.0338,-0.28816 0.28541,-0.51898 0.32895,-0.80582 0.0396,-0.26107 -0.0715,-0.52378 -0.0872,-0.78738 -0.0629,-1.05725 0.11047,-0.17637 -0.11925,-1.10936 -0.27529,0.54299 0.49261,0.9323 0.7679,0.38932 z" />
    <g
       id="g4683">
      <path
         style="fill:#768f73;fill-opacity:1;stroke:none;stroke-width:0.177353;stroke-dasharray:none;stroke-opacity:1;paint-order:stroke fill markers"
         d="m 572.90189,145.2395 c -0.38651,-0.14149 -0.75563,-0.30115 -0.82026,-0.35479 -0.22769,-0.18897 -0.11892,-0.48742 0.37765,-1.03614 0.27234,-0.30094 0.46189,-0.54699 0.42121,-0.54677 -0.0407,1.7e-4 -0.31977,0.21969 -0.62022,0.48772 -0.30045,0.26802 -0.62385,0.48732 -0.71866,0.48732 -0.1643,0 -1.76101,-1.3066 -1.90966,-1.56269 -0.039,-0.0672 -0.10763,-0.12217 -0.15251,-0.12217 -0.0449,0 0.017,0.14524 0.13742,0.32275 0.27929,0.41155 0.27745,0.69569 -0.006,0.95857 -0.30066,0.27865 -0.6101,0.34544 -0.90616,0.19558 -0.42943,-0.21735 -0.87057,-0.24802 -1.49264,-0.10375 -0.32692,0.0758 -0.61154,0.12071 -0.63249,0.0998 -0.0209,-0.0209 -0.11199,-0.32538 -0.20231,-0.67652 -0.2538,-0.98671 -0.67609,-1.29553 -1.67293,-1.22343 -0.5646,0.0408 -1.13081,0.28554 -1.74391,0.75368 -0.46077,0.35182 -1.61538,0.83338 -1.87167,0.78062 -0.0906,-0.0186 -0.34546,-0.0571 -0.56643,-0.0854 l -0.40177,-0.0515 0.15823,-1.08377 c 0.1436,-0.98355 0.18221,-1.66738 0.1663,-2.94598 -0.007,-0.5749 0.18948,-1.63418 0.52545,-2.8307 0.14755,-0.52546 0.36938,-1.54008 0.49296,-2.2547 0.34159,-1.97529 0.32466,-1.931 0.76487,-2.00139 0.4868,-0.0778 0.90238,-0.34143 1.1371,-0.72122 0.10398,-0.16824 0.19578,-0.30915 0.20399,-0.31312 0.008,-0.004 0.50265,-0.0352 1.09874,-0.0695 1.17858,-0.0677 1.51693,-0.20115 1.62464,-0.64067 0.12477,-0.50914 -0.10805,-0.9601 -1.06491,-2.06267 -0.57691,-0.66476 -0.75857,-1.06961 -0.67643,-1.50747 l 0.0536,-0.28554 0.90334,0.0363 c 0.74046,0.0297 0.9554,0.008 1.19202,-0.11918 0.326,-0.17556 0.56405,-0.60205 0.56405,-1.01056 0,-0.25093 0.025,-0.27479 0.2882,-0.27474 0.15851,4e-5 0.66043,0.1021 1.11538,0.2268 0.92577,0.25376 0.95963,0.24496 1.21215,-0.31503 0.20005,-0.44364 0.25025,-0.44507 1.63486,-0.0465 1.51568,0.43626 4.48852,1.68417 4.90067,2.05716 0.0879,0.0795 0.15978,0.24928 0.15978,0.37722 0,0.29778 0.53607,1.41865 0.94473,1.97537 0.27513,0.3748 0.30768,0.47172 0.2542,0.75683 -0.0337,0.17984 -0.17325,0.45443 -0.31002,0.6102 -0.13677,0.15577 -0.32139,0.40633 -0.41027,0.55679 -0.11611,0.19656 -0.2499,0.28864 -0.4753,0.32714 -1.6329,0.27889 -2.36083,0.5659 -2.65905,1.04842 -0.10007,0.16192 -0.18194,0.40336 -0.18194,0.53655 0,0.30852 0.40135,0.6921 0.93902,0.89744 0.36511,0.13944 0.40012,0.17846 0.38357,0.42756 -0.0369,0.55581 0.0168,0.69351 0.44854,1.15005 0.28825,0.30478 0.70252,0.6024 1.19609,0.85929 0.87377,0.45478 0.94971,0.62417 0.45053,1.00492 -0.35265,0.26898 -0.5077,0.7029 -0.4056,1.13509 0.038,0.16091 0.23378,0.62965 0.43503,1.04163 0.38995,0.79826 0.44858,1.17736 0.23029,1.48901 -0.15386,0.21967 -0.62708,0.37574 -1.15019,0.37934 -0.46836,0.003 -1.0834,0.28993 -1.20784,0.56304 -0.0722,0.15856 -0.0738,0.36512 -0.005,0.75264 0.078,0.44288 0.0665,0.64988 -0.0674,1.21194 -0.18012,0.75601 -0.19329,0.7756 -0.61686,0.91721 -0.42764,0.14298 -0.66855,0.11371 -1.46544,-0.17803 z"
         id="path3869"
         transform="scale(0.26458333)" />
      <path
         style="fill:#768f73;fill-opacity:1;stroke:none;stroke-width:0.529167;stroke-dasharray:none;stroke-opacity:1;paint-order:stroke fill markers"
         id="path3796"
         d="m 148.7259,34.510786 c -0.0842,0.238975 -0.14905,0.483868 -0.20266,0.731317 -0.0374,0.197273 -0.0656,0.396004 -0.1023,0.593399 -0.0254,0.139258 -0.0775,0.271378 -0.11315,0.408009 -0.0225,0.121796 -0.0597,0.240099 -0.0825,0.361736 -0.0222,0.13344 -0.0372,0.267671 -0.0463,0.402595 -0.004,0.07754 -0.0113,0.155067 -0.0237,0.231703 -0.009,0.05542 0.0695,0.06797 0.0784,0.01254 v 0 c 0.0126,-0.07907 0.021,-0.158957 0.0246,-0.238951 0.009,-0.13185 0.0234,-0.263012 0.0451,-0.393422 0.0221,-0.119827 0.0595,-0.236188 0.0812,-0.356203 0.036,-0.138483 0.0892,-0.272259 0.11438,-0.41352 0.0365,-0.196631 0.0647,-0.394573 0.10184,-0.591108 0.0529,-0.244661 0.11714,-0.486749 0.20038,-0.723011 0.0178,-0.05324 -0.0575,-0.07835 -0.0753,-0.02511 z" />
      <path
         style="fill:#768f73;fill-opacity:1;stroke:none;stroke-width:0.529167;stroke-dasharray:none;stroke-opacity:1;paint-order:stroke fill markers"
         id="path3798"
         d="m 150.61766,33.00872 c 0.2758,0.05003 0.5455,0.125754 0.81241,0.210323 0.19629,0.06473 0.38609,0.146225 0.57603,0.227129 0.10726,0.05154 0.21602,0.0999 0.32566,0.146158 0.0795,0.03996 0.15553,0.08704 0.23118,0.133895 0.0838,0.05004 0.17068,0.09424 0.26009,0.133316 0.0326,0.01693 0.0164,0.0086 0.0486,0.02495 0.05,0.02543 0.086,-0.04531 0.036,-0.07075 v 0 c -0.0333,-0.01693 -0.0157,-0.0079 -0.0528,-0.02695 -0.086,-0.03748 -0.16942,-0.08006 -0.25007,-0.128053 -0.0791,-0.04899 -0.15862,-0.09836 -0.24212,-0.139549 -0.10957,-0.04618 -0.21818,-0.09464 -0.3254,-0.146047 -0.19227,-0.08189 -0.38443,-0.164325 -0.58316,-0.22977 -0.26846,-0.08503 -0.53971,-0.161385 -0.81712,-0.211659 -0.0545,-0.01363 -0.0737,0.06339 -0.0193,0.077 z" />
      <path
         style="fill:#000000;fill-opacity:1;stroke:none;stroke-width:0.529167;stroke-dasharray:none;stroke-opacity:1;paint-order:stroke fill markers"
         id="path2243"
         d="m 150.00975,32.697756 c 0.42723,1.677715 -1.0293,0.265909 -1.64314,1.112083 -0.12074,0.166431 -0.0268,0.410348 -0.0403,0.615521 -0.23897,0.540703 0.5257,0.878666 0.76468,0.337961 v 0 c 0.24403,-0.06115 0.6679,0.0598 0.73211,-0.183449 0.081,-0.306803 -0.40915,-0.518539 -0.46433,-0.831019 -0.0682,-0.386051 0.48016,-0.568982 0.71715,-0.572405 0.20588,-0.003 0.40281,0.08562 0.60422,0.128439 0.4293,-0.47407 -0.24113,-1.081201 -0.67044,-0.607131 z" />
      <path
         style="fill:#000000;fill-opacity:1;stroke:none;stroke-width:0.529167;stroke-dasharray:none;stroke-opacity:1;paint-order:stroke fill markers"
         id="path2245"
         d="m 152.75753,33.359915 c 0.15373,0.114689 0.40346,0.16116 0.46119,0.344062 0.0508,0.160882 -0.14965,0.303209 -0.20678,0.461949 -0.49829,1.384601 0.32,-0.408937 -0.57959,1.100743 -0.10961,0.183952 -0.35207,0.394314 -0.25977,0.587534 0.14477,0.303085 0.54673,0.390337 0.8201,0.585507 0.12718,0.287816 0.51894,0.783513 0.0427,1.083937 -0.23729,0.149707 -0.65826,-0.06276 -0.82593,0.162198 -0.13394,0.179705 0.44463,0.548737 0.23565,0.629745 -2.70847,1.049859 -0.0474,-1.09954 -1.14856,-0.155083 -0.0717,0.206547 0.004,0.619522 -0.2151,0.619644 -0.27723,1.53e-4 -0.3225,-0.468585 -0.55524,-0.619215 -0.37219,-0.24088 -0.63232,0.118919 -1.01064,-0.02545 -0.95047,-0.36276 0.60834,-0.670857 -1.01011,-0.09723 -1.01284,-0.151243 -0.27389,0.141703 -0.64411,-0.609012 -0.0596,-0.120846 -0.20432,-0.175718 -0.30647,-0.263578 0.19055,0.348369 0.68322,0.07888 0.49266,-0.269484 v 0 c 0.0823,0.07766 0.25802,0.120312 0.24705,0.232966 -0.30149,3.096453 -0.49214,-1.171699 -0.29714,1.56713 0.52014,-0.417589 1.20715,-1.390063 1.73984,-0.988603 0.14998,0.113036 0.0762,0.491289 0.26386,0.497819 1.49892,0.05215 0.26779,-0.801378 0.82326,-0.31601 0.18853,0.164729 0.38151,0.324286 0.57226,0.486428 0.64433,0.189797 0.63824,0.409739 0.77815,-0.282175 0.0276,-0.136496 -0.0847,-0.318244 0.0129,-0.417579 0.1516,-0.154284 0.49542,-0.03507 0.61128,-0.217717 0.18381,-0.289764 -0.5705,-0.756942 0.043,-1.028536 -0.0906,-0.191895 -0.13222,-0.415867 -0.27184,-0.575681 -0.20797,-0.238053 -0.87535,-0.299831 -0.74438,-0.587534 0.19199,-0.421774 0.98092,-0.203893 1.26965,-0.566369 0.0263,-0.033 -1.04616,-1.079373 -0.25183,-1.340385 0,-0.06089 -0.0861,-0.06089 -0.0861,0 z" />
    </g>
    <g
       id="g4676">
      <path
         style="fill:#768f73;fill-opacity:1;stroke:none;stroke-width:0.709413;stroke-dasharray:none;stroke-opacity:1;paint-order:stroke fill markers"
         d="m 573.67049,362.42129 0.0672,-1.5075 -1.69972,0.0587 c -1.60687,0.0555 -1.71087,0.003 -1.90384,-0.96193 -0.11227,-0.56135 -0.58444,-1.26982 -1.04926,-1.57438 -0.46482,-0.30457 -0.84513,-0.77682 -0.84513,-1.04946 0,-0.27263 -0.48351,-0.60189 -1.07448,-0.73169 -1.01786,-0.22356 -1.06191,-0.30448 -0.83592,-1.53569 0.13121,-0.71483 0.37316,-1.35218 0.53768,-1.41634 0.16451,-0.0642 0.6471,-0.39844 1.07242,-0.74284 1.1148,-0.90271 0.65097,-1.8008 -0.93004,-1.8008 -1.01613,0 -1.2526,-0.13393 -1.2526,-0.70942 0,-0.39017 -0.15962,-0.70941 -0.35471,-0.70941 -0.19509,0 -0.35471,-0.3113 -0.35471,-0.69179 0,-0.38048 -0.24869,-0.83096 -0.55264,-1.00106 -0.43951,-0.24596 -0.50422,-0.67425 -0.31613,-2.09217 0.19189,-1.44654 0.42359,-1.89341 1.22811,-2.36865 0.54537,-0.32216 1.3261,-0.58575 1.73495,-0.58575 0.94027,0 0.9405,-0.50041 8.3e-4,-1.82005 -0.40839,-0.57353 -0.66045,-1.25668 -0.56013,-1.51811 0.10442,-0.27211 -0.1847,-0.64259 -0.67629,-0.86657 -1.42687,-0.65013 -1.15238,-2.16081 0.72283,-3.97812 1.47674,-1.43115 1.59694,-1.68916 1.81422,-3.89426 l 0.2327,-2.36156 2.17623,-1.24223 c 1.19692,-0.68323 2.86778,-1.33175 3.71301,-1.44115 0.84524,-0.10941 1.63751,-0.29963 1.76059,-0.42271 0.12309,-0.12309 0.22962,-0.8947 0.23674,-1.71468 l 0.0129,-1.49089 h 1.65497 c 1.90576,0 2.51647,-0.39206 1.62551,-1.04355 -0.962,-0.70343 -0.74184,-2.11342 0.57636,-3.6912 1.56749,-1.87617 7.14271,-7.14791 7.55939,-7.14791 0.1785,0 0.48702,-0.16247 0.68559,-0.36104 0.19856,-0.19856 1.90357,-0.43567 3.78889,-0.52689 3.42389,-0.16568 3.42932,-0.1646 4.6758,0.92983 1.41779,1.24484 1.49839,1.57238 0.6272,2.54893 -0.59548,0.6675 -0.59187,0.68741 0.0887,0.48956 1.69109,-0.49165 4.27942,-0.36027 5.2348,0.26572 0.71049,0.46553 1.30898,0.57149 2.24067,0.39671 1.08888,-0.20428 1.39814,-0.10156 2.1558,0.71597 0.79386,0.85659 1.06066,0.9336 2.60193,0.75106 1.31169,-0.15535 1.76404,-0.0818 1.91493,0.31145 0.10866,0.28316 0.60109,0.6987 1.09429,0.92342 0.4932,0.22471 0.89672,0.56134 0.89672,0.74807 0,0.18673 0.62722,0.96672 1.39381,1.73331 1.2249,1.22491 1.36973,1.54224 1.19506,2.61857 -0.12962,0.79877 -0.0576,1.22476 0.20713,1.22476 0.2806,0 0.24018,0.39656 -0.13094,1.28479 -0.67425,1.6137 -0.67845,1.8757 -0.016,0.99992 0.29334,-0.38785 0.5257,-0.4949 0.53206,-0.24515 0.006,0.24386 0.33051,0.44338 0.72069,0.44338 1.01468,0 0.90717,1.18882 -0.2084,2.30439 -1.14253,1.14253 -0.71227,1.85321 1.31858,2.17795 1.51664,0.24252 1.94754,1.31462 0.66335,1.65045 -0.83981,0.21961 -0.94234,1.39058 -0.17735,2.02546 0.73139,0.60701 0.66648,1.32192 -0.1602,1.76435 -0.83499,0.44687 -3.56423,4.18016 -3.56423,4.87546 0,0.27187 0.46931,0.92426 1.04291,1.44976 l 1.0429,0.95544 -0.70313,2.16625 c -0.6282,1.9354 -0.92834,2.3294 -2.81644,3.69723 -1.16231,0.84204 -2.1133,1.71143 -2.1133,1.93197 0,0.22055 0.55866,0.94247 1.24147,1.60427 1.52016,1.4734 1.54825,1.77354 0.16596,1.77354 -1.48493,0 -3.53567,0.91351 -3.53567,1.57499 0,0.77421 -1.9985,2.58865 -3.41569,3.10112 -0.75434,0.27277 -1.19549,0.66778 -1.19549,1.07045 0,0.35098 -0.16305,0.63815 -0.36232,0.63815 -0.19927,0 -0.5381,0.38583 -0.75296,0.8574 -0.33231,0.72933 -0.56959,0.82836 -1.58858,0.663 -0.70504,-0.11441 -1.19792,-0.0455 -1.19792,0.16751 0,0.22172 -1.54566,0.38084 -3.99044,0.41078 -6.44605,0.079 -18.71286,0.71853 -21.01636,1.09575 -3.06654,0.50217 -2.98015,0.53652 -2.90481,-1.15488 z"
         id="path3871"
         transform="scale(0.26458333)" />
      <path
         style="fill:#768f73;fill-opacity:1;stroke:none;stroke-width:0.529167;stroke-dasharray:none;stroke-opacity:1;paint-order:stroke fill markers"
         id="path3792"
         d="m 152.64265,96.303961 c 0.0473,-0.01042 0.0942,-0.02302 0.14191,-0.0313 0.18573,-0.03225 0.3401,-0.04553 0.53094,-0.06247 0.36492,-0.0324 0.73062,-0.05306 1.09624,-0.07565 0.67063,-0.04038 1.34237,-0.05614 2.01402,-0.06618 0.34704,-0.0048 0.69412,-0.0047 1.04119,-0.0044 0.2154,2.57e-4 0.4308,5.29e-4 0.6462,7.94e-4 0.15279,9.8e-5 0.30559,1.11e-4 0.45838,1.16e-4 0.13316,0 0.26631,-2e-6 0.39946,-5e-6 0.0148,0 0.0297,0 0.0445,0 0.0561,-3e-6 0.0561,-0.07938 0,-0.07937 v 0 c -0.0148,0 -0.0297,0 -0.0445,0 -0.13315,3e-6 -0.2663,5e-6 -0.39946,5e-6 -0.15277,-5e-6 -0.30554,-1.8e-5 -0.45832,-1.16e-4 -0.2154,-1.67e-4 -0.4308,-5.29e-4 -0.6462,-7.94e-4 -0.34748,-2.65e-4 -0.69498,-5.29e-4 -1.04243,0.0044 -0.6729,0.01005 -1.34587,0.02588 -2.01773,0.06633 -0.36656,0.02265 -0.73321,0.04333 -1.09907,0.07587 -0.18892,0.0168 -0.35545,0.03121 -0.54052,0.064 -0.0513,0.0091 -0.10165,0.02297 -0.15248,0.03445 -0.0525,0.01971 -0.0247,0.09403 0.0279,0.07432 z" />
      <path
         style="fill:#768f73;fill-opacity:1;stroke:none;stroke-width:0.529167;stroke-dasharray:none;stroke-opacity:1;paint-order:stroke fill markers"
         id="path3794"
         d="m 152.96782,84.794343 c 0.2727,-0.468228 0.62231,-0.888537 0.99768,-1.277641 0.0919,-0.09527 0.18797,-0.186455 0.28195,-0.279681 0.37552,-0.360367 0.76661,-0.698841 1.11831,-1.083072 0.0959,-0.102801 0.17739,-0.216159 0.2476,-0.337528 0.0281,-0.04861 -0.0407,-0.08828 -0.0687,-0.03967 v 0 c -0.0671,0.116533 -0.14548,0.224996 -0.2374,0.323612 -0.34993,0.382426 -0.74213,0.721518 -1.11567,1.080312 -0.0948,0.09405 -0.19164,0.186029 -0.28432,0.282141 -0.38004,0.394123 -0.73383,0.819976 -1.00956,1.294389 -0.0262,0.0496 0.0439,0.08674 0.0702,0.03714 z" />
      <path
         style="fill:#000000;fill-opacity:1;stroke:none;stroke-width:0.529167;stroke-dasharray:none;stroke-opacity:1;paint-order:stroke fill markers"
         id="path2257"
         d="m 153.54928,85.105675 c -2.06127,-1.038166 -0.0505,-0.366093 -1.00541,0.153289 -0.25876,0.14074 -0.62855,-0.138297 -0.88364,0.009 -0.21243,0.122661 -0.0853,0.550212 -0.29758,0.673055 -0.29129,0.168529 -0.78509,-0.172283 -1.00631,0.08132 -0.21565,0.247216 0.0531,0.65396 0.0797,0.98094 -0.0317,0.233603 -0.0541,0.468657 -0.0951,0.700813 -0.0333,0.188851 -0.0237,0.399803 -0.12767,0.560974 -0.0649,0.100621 -0.9157,0.637318 -0.89856,0.8245 0.10511,1.148125 1.44541,0.250688 -0.32166,1.010989 0.21136,0.173273 0.66763,0.248573 0.63409,0.519822 -0.0351,0.284173 -0.61839,0.164346 -0.75012,0.418581 -0.0805,0.155443 0.32219,0.244734 0.31577,0.419687 -0.007,0.185354 -0.40265,0.257879 -0.34716,0.434862 0.69626,0.393842 0.55924,0.109193 0.63517,0.703405 0.0535,-0.11585 -0.76087,0.616574 -0.50579,0.804302 0.2195,0.161551 0.56404,0.03474 0.79925,0.172418 0.20235,0.118433 -0.095,0.671105 -0.0698,0.734589 0.0571,0.143711 0.25635,0.173014 0.38453,0.259519 -0.1532,0.237294 -0.56457,0.449657 -0.45961,0.711883 0.0945,0.236014 0.51053,0.0016 0.76149,0.04229 0.17339,0.02804 0.41679,0.008 0.50142,0.161962 0.0918,0.166925 -0.17487,0.385521 -0.10332,0.56207 0.0563,0.139025 0.30535,0.08046 0.40802,0.18982 0.1062,0.113112 0.11675,0.287515 0.17512,0.431271 1.06439,-0.287158 0.5665,-0.214617 1.48477,-0.271865 -0.61165,-0.51118 -1.33457,0.353822 -0.72292,0.865002 v 0 c -0.51263,-0.429289 -0.33157,-0.155863 -0.51391,-0.838914 0.0237,-0.101886 0.44228,-0.915543 -0.10183,-0.948074 -0.28783,-0.0172 -0.59561,0.288076 -0.85112,0.154459 -0.16285,-0.08516 0.16554,-0.362125 0.11575,-0.539017 -0.0703,-0.249851 -0.63236,-0.205738 -0.45893,-0.629073 -0.22342,-0.04438 -0.44953,-0.07685 -0.67025,-0.133141 -0.23212,-0.0592 -0.69037,0.02669 -0.68641,-0.212831 0.01,-0.585949 1.48399,-0.433949 1.43351,-1.017799 -0.0232,-0.269066 -0.52852,-0.111398 -0.79278,-0.167098 0.0113,-0.117478 0.0226,-0.234955 0.0339,-0.352433 -0.22292,-0.09851 -0.52945,-0.09555 -0.66875,-0.295526 -0.0859,-0.123381 0.126,-0.273799 0.1726,-0.416759 0.0433,-0.132937 0.0702,-0.270896 0.0963,-0.40826 0.0265,-0.139266 -0.0496,-0.332544 0.0613,-0.420841 0.91752,-0.730506 1.24405,0.04394 0.64407,-0.82061 -0.28311,-0.327456 -0.6823,-0.583999 -0.5352,-1.099553 0.0531,-0.186156 0.31382,-0.270177 0.35553,-0.459216 0.0488,-0.221065 -0.15618,-0.450003 -0.10619,-0.670798 0.0923,-0.40739 0.69275,-0.577154 0.69266,-1.044276 0.17721,-0.10428 1.10453,-0.66112 1.29713,-0.729462 0.25554,-0.09068 0.61584,0.03925 0.79707,-0.162438 0.18109,-0.201541 -0.0899,-0.595093 0.076,-0.809276 0.689,-0.889275 0.94212,1.163204 0.40024,-0.894392 -0.538,0.441687 0.0866,1.202526 0.62463,0.760838 z" />
      <path
         style="fill:#000000;fill-opacity:1;stroke:none;stroke-width:0.529167;stroke-dasharray:none;stroke-opacity:1;paint-order:stroke fill markers"
         id="path2259"
         d="m 155.64498,80.728422 c -0.0744,0.442561 -0.41917,0.923991 -0.22315,1.327687 0.11378,0.23432 0.43867,-0.293753 0.68699,-0.372427 0.2532,-0.08022 0.52795,-0.05927 0.79102,-0.09585 0.71116,-0.09888 1.33742,-0.306038 2.05556,-0.03803 0.30941,0.115473 0.54053,0.379603 0.8108,0.569408 0.68623,0.09567 0.69256,1.161968 1.28418,1.354666 0.38086,0.124055 0.83194,-0.263287 1.19754,-0.09962 0.26074,0.116727 0.13433,0.587608 0.33861,0.787305 0.93811,0.917014 0.97228,-0.600668 0.52948,1.233855 0.50729,0.155268 1.0501,0.113578 1.10018,0.807792 0.0169,0.234489 -0.2779,0.449979 -0.20716,0.674187 0.0805,0.255066 0.63856,0.279456 0.59103,0.542655 -0.0608,0.336878 -0.86564,0.301766 -0.80431,0.638551 0.0751,0.412395 0.69823,0.464016 1.04734,0.696024 -0.19001,0.213656 -0.38002,0.427315 -0.57002,0.640971 0.063,0.278302 0.32117,0.58206 0.18893,0.834906 -0.17313,0.331036 -0.69366,0.327684 -0.94264,0.606198 -0.1799,0.201239 -0.17694,0.510304 -0.27889,0.760237 -0.44991,1.102993 -0.28591,0.32742 -0.40965,1.510163 -0.0302,1.652756 0.2605,0.06357 -1.26991,0.801044 -0.18074,0.08709 0.0529,0.416613 -0.0254,0.601343 -0.0608,0.143422 -0.27221,0.170815 -0.35709,0.301416 -0.39262,0.604054 0.34121,0.352644 -0.61783,0.468979 0.56395,1.160822 0.4903,0.565264 -0.3264,0.510696 -0.11918,-0.008 -0.23532,0.06255 -0.33399,0.129889 -0.58036,0.396097 0.16967,0.448183 -0.96328,-0.02178 -0.18995,0.136274 0.003,0.404892 0.19272,0.268618 v 0 c 0.0564,-0.141351 0.0314,-0.359836 0.16934,-0.424053 0.16273,-0.07573 0.35762,0.151339 0.52929,0.09894 0.10799,-0.03296 0.0675,-0.224843 0.14677,-0.3053 0.38839,-0.394412 0.27111,0.251256 0.27714,-0.49144 0.25775,-0.08481 0.56584,-0.158271 0.7793,-0.343003 0.111,-0.09607 0.13202,-0.294595 0.26826,-0.349305 0.26187,-0.105167 0.56868,-0.0226 0.84111,-0.09621 1.31994,-0.356706 0.66506,-0.43276 -0.14041,-1.513364 0.22212,-0.17024 0.4449,-0.339619 0.66635,-0.510717 0.43338,-0.334827 1.12887,-0.63151 0.94142,-1.374463 -0.0904,-0.358388 -0.82572,-0.606782 -0.62409,-0.916561 2.14588,-3.296817 1.32599,1.173051 1.65043,-1.20432 0.0977,-0.218591 0.31113,-0.417015 0.29312,-0.655767 -0.0192,-0.25441 -0.17897,-0.517171 -0.39218,-0.657297 -0.36502,-0.239897 -1.24423,0.01987 -1.24229,-0.416917 0.002,-0.514429 1.31859,-0.398079 1.24817,-0.907671 -0.43384,-3.13948 -2.41635,2.363086 -1.0259,-0.95966 -0.64786,-0.628827 -0.38574,-0.25291 -0.75226,-1.150787 -0.19677,-0.195395 -0.57975,-0.128513 -0.75935,-0.339799 -0.21912,-0.257786 -0.0241,-0.839525 -0.34186,-0.955701 -0.72316,-0.264396 -1.57906,0.924875 -2.3086,0.07872 -2.78272,0.171299 0.24612,0.340236 -1.6443,-0.938443 -0.34895,-0.236032 -1.46808,0.284403 -1.68002,0.02265 -0.20947,-0.25871 0.2269,-0.875382 -0.0837,-0.99512 -0.29775,-0.114781 -0.42109,0.479574 -0.63163,0.719363 0.60293,0.234214 0.93416,-0.618453 0.33123,-0.852668 z" />
    </g>
    <g
       id="g4669">
      <path
         style="fill:#768f73;fill-opacity:1;stroke:none;stroke-width:0.709413;stroke-dasharray:none;stroke-opacity:1;paint-order:stroke fill markers"
         d="m 364.44574,537.71049 c -0.28295,-0.45782 -5.84917,-3.6102 -7.18625,-4.06987 -1.23898,-0.42594 -1.30156,-0.53248 -1.8645,-3.17406 -0.32038,-1.50333 -0.80127,-2.86854 -1.06866,-3.03379 -0.40595,-0.25089 -0.41047,-0.55238 -0.0274,-1.82724 0.2523,-0.83973 0.54028,-1.93263 0.63994,-2.42868 0.11179,-0.55637 0.5776,-1.07735 1.21587,-1.35988 1.26662,-0.56066 1.29991,-1.1622 0.14789,-2.67258 -1.32959,-1.74318 -1.17439,-2.59596 0.62073,-3.41079 0.82913,-0.37636 1.92264,-0.68779 2.43002,-0.69207 0.50738,-0.004 1.38528,-0.15413 1.95088,-0.33299 0.56561,-0.17886 2.57934,-0.41366 4.47497,-0.52178 l 3.44659,-0.19659 -0.0769,1.30754 c -0.0767,1.30499 -0.0724,1.30915 2.22871,2.13594 3.61529,1.29897 3.68733,1.50368 1.30547,3.70962 -1.11134,1.02925 -2.01932,2.10205 -2.01774,2.38401 0.002,0.28196 0.42665,0.95499 0.94462,1.49563 l 0.94175,0.98299 -0.96762,1.46218 c -0.95253,1.43937 -0.96855,1.72912 -0.15753,2.85018 0.32564,0.45013 0.21852,0.84328 -0.52981,1.94454 -1.12453,1.65491 -1.15945,2.09709 -0.22855,2.89415 0.39018,0.33408 0.70941,0.96853 0.70941,1.40989 0,0.75565 -0.11554,0.79368 -1.98065,0.6519 -1.6222,-0.12332 -1.94501,-0.0577 -1.78372,0.36265 0.15581,0.40601 -0.13748,0.50057 -1.40401,0.45267 -0.88053,-0.0333 -1.67411,-0.17891 -1.76351,-0.32357 z m 7.52307,-12.98145 c -0.13006,-0.13005 -0.23647,-0.4014 -0.23647,-0.603 0,-0.22226 0.16521,-0.20131 0.41973,0.0532 0.23086,0.23085 0.33727,0.50221 0.23648,0.603 -0.1008,0.1008 -0.28968,0.0769 -0.41974,-0.0532 z m -0.23647,-1.67098 c 0,-0.0736 0.27933,-0.35299 0.62073,-0.62073 0.56259,-0.44121 0.57513,-0.42867 0.13393,0.13392 -0.46338,0.59085 -0.75466,0.77875 -0.75466,0.48681 z"
         id="path3873"
         transform="scale(0.26458333)" />
      <path
         style="fill:#768f73;fill-opacity:1;stroke:none;stroke-width:0.529167;stroke-dasharray:none;stroke-opacity:1;paint-order:stroke fill markers"
         id="path3788"
         d="m 96.998974,142.76482 c -0.189897,-0.17235 -0.387617,-0.33673 -0.597688,-0.48413 -0.07866,-0.0552 -0.159661,-0.10696 -0.239491,-0.16045 -0.433265,-0.26673 -0.865431,-0.53736 -1.316355,-0.77367 -0.130146,-0.0721 -0.265496,-0.12929 -0.409985,-0.16412 -0.06467,-0.0144 -0.130654,-0.0195 -0.195754,-0.0313 -0.05522,-0.0101 -0.06942,0.068 -0.01421,0.0781 v 0 c 0.06367,0.0116 0.128112,0.0168 0.191432,0.0304 0.13821,0.033 0.267221,0.0884 0.391676,0.15725 0.448471,0.23486 0.878059,0.50428 1.30902,0.76931 0.0788,0.0528 0.158761,0.10383 0.236406,0.15828 0.206914,0.14511 0.401616,0.30696 0.588817,0.47648 0.03969,0.0397 0.09581,-0.0164 0.05613,-0.0561 z" />
      <path
         style="fill:#768f73;fill-opacity:1;stroke:none;stroke-width:0.529167;stroke-dasharray:none;stroke-opacity:1;paint-order:stroke fill markers"
         id="path3790"
         d="m 95.604279,136.0715 c 0.460626,-0.0193 0.921588,-0.0306 1.382043,-0.0541 0.195982,-0.008 0.390448,-0.0336 0.585607,-0.0513 0.08176,-0.008 0.163904,-0.009 0.245954,-0.009 0.05935,-2.1e-4 0.118706,5e-5 0.178059,2e-4 0.03996,0.007 0.07961,0.0149 0.12001,0.0192 0.05582,0.006 0.06408,-0.0731 0.0083,-0.0789 v 0 c -0.04309,-0.004 -0.0851,-0.0144 -0.128066,-0.0196 -0.0596,-1.5e-4 -0.119205,-5.3e-4 -0.178811,-1.9e-4 -0.08425,5.3e-4 -0.168611,0.002 -0.252563,0.01 -0.194122,0.0176 -0.387554,0.0435 -0.582488,0.0511 -0.460989,0.0235 -0.922496,0.0348 -1.383655,0.0542 -0.05599,0.004 -0.05033,0.0832 0.0057,0.0792 z" />
      <path
         style="fill:#000000;fill-opacity:1;stroke:none;stroke-width:0.529167;stroke-dasharray:none;stroke-opacity:1;paint-order:stroke fill markers"
         id="path2265"
         d="m 94.824046,135.57853 c 0.272648,0.18746 0.963353,0.26518 0.817946,0.5624 -0.550367,0.10687 -1.452263,0.0691 -1.768872,0.73324 -0.11018,0.23114 0.05614,1.27869 0.02842,1.48879 -0.0323,0.24483 -0.161102,0.46688 -0.241654,0.70031 -0.429734,2.02572 -0.01336,-0.77089 0.335933,1.3204 0.201578,1.20693 -1.316805,0.18941 0.645089,1.03918 -0.04531,-0.0808 -0.159637,-0.0168 -0.114329,0.0641 v 0 c -1.124982,-1.26004 -0.05437,0.14454 -0.558692,-1.10433 -0.925769,-2.29254 0.0318,1.04821 -0.603017,-1.37129 0.10704,-0.23063 0.152585,-0.5015 0.321117,-0.69188 0.219313,-0.24773 0.755735,-0.25326 0.805204,-0.5804 0.0048,-0.0319 -1.102665,-1.12018 -0.427702,-1.45973 0.419582,-0.21107 1.06997,0.15573 1.397365,-0.18103 0.205002,-0.21087 -0.468474,-0.35567 -0.702712,-0.5335 -0.0097,0.0466 0.05618,0.0604 0.06591,0.0138 z" />
      <path
         style="fill:#000000;fill-opacity:1;stroke:none;stroke-width:0.529167;stroke-dasharray:none;stroke-opacity:1;paint-order:stroke fill markers"
         id="path2267"
         d="m 98.999605,135.7735 c -0.43969,0.18036 -1.071113,0.13565 -1.319067,0.54109 -0.375208,0.6135 1.575136,0.46552 1.557822,1.24651 -0.0094,0.42272 -0.792385,0.45077 -0.946473,0.84452 -0.103979,0.26569 0.201763,0.53377 0.302646,0.80066 -0.169704,0.27478 -0.339407,0.54955 -0.509111,0.82433 0.823542,0.49944 -0.300688,0.94293 -0.135578,1.3717 0.114387,0.29705 0.744307,0.26635 0.755184,0.58447 0.06315,1.84698 -0.918329,-0.53785 -1.094298,0.35958 -0.04007,0.20434 0.15851,0.38512 0.237763,0.57769 -0.50722,0.57048 -0.146415,0.39311 -0.871331,-0.21894 -0.114716,-0.0969 -0.253545,-0.16087 -0.38032,-0.2413 0.102245,0.0443 0.164859,-0.10033 0.06261,-0.1446 v 0 c 0.08129,0.20648 0.08014,0.46966 0.243862,0.61945 0.06959,0.0637 1.013504,0.17407 1.102714,0.18575 -1.389597,-1.88499 -0.734666,-0.54854 0.580874,-0.67729 0.156771,-0.0154 0.04286,-0.31245 0.07662,-0.46631 0.04038,-0.18403 0.154926,-0.35799 0.14555,-0.54616 -0.024,-0.4816 -0.461071,-0.89663 -0.280835,-1.41905 0.04448,-0.2707 0.202589,-0.54663 0.133451,-0.8121 -0.08083,-0.31036 -0.617723,-0.47554 -0.550474,-0.78913 0.06053,-0.28224 1.554105,-0.86958 0.826535,-1.57789 -0.317696,-0.30928 -0.965869,-0.16281 -1.222386,-0.52446 -0.134665,-0.18986 0.346004,-0.31145 0.519007,-0.46718 0.05044,0.54109 0.815668,0.46976 0.765228,-0.0713 z" />
    </g>
    <g
       id="g4662">
      <path
         style="fill:#768f73;fill-opacity:1;stroke:none;stroke-width:0.709413;stroke-dasharray:none;stroke-opacity:1;paint-order:stroke fill markers"
         d="m 340.87288,672.53544 c 0,-0.31724 -0.48519,-0.36659 -1.81121,-0.18422 l -1.81121,0.2491 0.24169,-1.43054 c 0.20683,-1.22421 0.13552,-1.48737 -0.49438,-1.82448 -0.9439,-0.50516 -1.02707,-2.37559 -0.11534,-2.59366 0.71745,-0.1716 0.58884,-0.23179 -2.16926,-1.01512 l -1.72589,-0.49017 -0.66145,-2.60462 c -0.3638,-1.43255 -0.6466,-2.94766 -0.62844,-3.36693 0.0181,-0.41927 -0.0797,-1.25585 -0.21742,-1.85906 -0.22377,-0.98003 -0.10533,-1.21049 1.11286,-2.16539 0.7498,-0.58774 1.5628,-0.99871 1.80666,-0.91325 0.61568,0.21576 0.56046,-0.59049 -0.0567,-0.8273 -0.86574,-0.33222 -0.98082,-1.82122 -0.25079,-3.24483 1.17417,-2.28972 1.74806,-2.67611 7.79526,-5.24844 0.85056,-0.36181 2.01591,-1.09636 2.58968,-1.63234 1.33716,-1.24909 2.04449,-1.44686 3.09858,-0.86636 l 0.85001,0.46811 -1.47075,1.59558 c -1.69067,1.83416 -1.79152,2.27206 -0.64372,2.79504 0.62821,0.28623 1.15027,0.24176 2.17156,-0.18496 0.73949,-0.30898 1.56287,-0.56178 1.82974,-0.56178 0.26686,0 0.96988,1.06894 1.56227,2.37541 0.84723,1.86853 1.03861,2.7023 0.89689,3.90734 -0.15818,1.34495 -0.0294,1.7294 1.05471,3.14971 1.70829,2.23798 1.66912,3.61925 -0.18395,6.48631 -0.78035,1.20736 -1.41883,2.39084 -1.41883,2.62996 0,0.23913 -0.31923,0.63414 -0.70941,0.87781 -0.39018,0.24367 -0.70941,0.79026 -0.70941,1.21465 0,1.17553 -3.13357,3.99558 -5.185,4.66623 -2.60372,0.85119 -4.74678,1.12127 -4.74678,0.5982 z"
         id="path3875"
         transform="scale(0.26458333)" />
      <path
         style="fill:#768f73;fill-opacity:1;stroke:none;stroke-width:0.529167;stroke-dasharray:none;stroke-opacity:1;paint-order:stroke fill markers"
         id="path2995"
         d="m 89.959594,178.18728 c 0.583187,-0.0366 1.169223,-0.14019 1.708724,-0.37202 0.118875,-0.0511 0.231508,-0.11562 0.347261,-0.17343 0.09352,-0.0621 0.191301,-0.11819 0.280551,-0.18628 0.223035,-0.17016 0.425323,-0.39448 0.54634,-0.64959 0.01704,-0.0359 0.02925,-0.074 0.04387,-0.11101 0.03614,-0.10615 0.03318,-0.23194 0.103042,-0.32503 0.04323,-0.0576 0.0741,-0.0713 0.134017,-0.113 0.10496,-0.0641 0.218699,-0.11094 0.326723,-0.16932 0.04936,-0.0267 0.01159,-0.0965 -0.03778,-0.0698 v 0 c -0.110758,0.06 -0.227846,0.10747 -0.334886,0.1744 -0.0737,0.0532 -0.105204,0.0662 -0.157668,0.13957 -0.06983,0.0977 -0.0745,0.22274 -0.107336,0.3342 -0.01328,0.0341 -0.02426,0.0692 -0.03982,0.10228 -0.114585,0.24373 -0.308133,0.45858 -0.520467,0.62122 -0.08653,0.0663 -0.181393,0.12092 -0.272089,0.18138 -0.113091,0.0566 -0.223116,0.1199 -0.339276,0.16997 -0.530688,0.2287 -1.107392,0.33038 -1.681202,0.36709 -0.05613,0 -0.05613,0.0794 0,0.0794 z" />
      <path
         style="fill:#768f73;fill-opacity:1;stroke:none;stroke-width:0.529167;stroke-dasharray:none;stroke-opacity:1;paint-order:stroke fill markers"
         id="path3786"
         d="m 88.108765,172.6362 c 0.06971,-0.24507 0.170918,-0.48384 0.298892,-0.70443 0.0314,-0.0541 0.06741,-0.10545 0.10111,-0.15818 0.182288,-0.28342 0.432385,-0.47365 0.725144,-0.63011 0.206603,-0.11528 0.426778,-0.19925 0.649097,-0.27779 0.154427,-0.0499 0.307139,-0.10183 0.451485,-0.17646 0.127061,-0.0671 0.255257,-0.13184 0.382942,-0.19774 0.09753,-0.0551 0.198382,-0.10405 0.294614,-0.16132 0.08532,-0.0571 0.16153,-0.12345 0.226271,-0.20307 0.04039,-0.0507 0.0775,-0.10366 0.112789,-0.15801 0.03054,-0.0471 -0.03606,-0.0903 -0.0666,-0.0432 v 0 c -0.03373,0.0521 -0.06929,0.1027 -0.107918,0.1513 -0.05842,0.0727 -0.128185,0.13227 -0.205243,0.18482 -0.09464,0.0567 -0.194392,0.10437 -0.290322,0.15894 -0.127711,0.0659 -0.255947,0.1307 -0.383045,0.19779 -0.14098,0.0732 -0.290605,0.12302 -0.441415,0.1721 -0.226113,0.0799 -0.449969,0.16551 -0.66013,0.28266 -0.311878,0.16734 -0.557911,0.3565 -0.754581,0.65739 -0.03483,0.0547 -0.072,0.10791 -0.104489,0.164 -0.131845,0.22756 -0.236054,0.474 -0.306697,0.7271 -0.01003,0.0552 0.06806,0.0694 0.07809,0.0142 z" />
      <path
         style="fill:#000000;fill-opacity:1;stroke:none;stroke-width:0.529167;stroke-dasharray:none;stroke-opacity:1;paint-order:stroke fill markers"
         id="path2261"
         d="m 88.19431,172.19231 c -1.15334,0.55758 0.120261,-0.23914 0.09282,0.80256 -0.0071,0.26812 -0.443007,0.3247 -0.585467,0.55194 -0.452678,0.72209 -0.111517,0.80594 0.124838,1.52456 0.08127,0.24708 0.121812,0.50574 0.182716,0.75861 -0.256304,0.44679 -0.806085,1.01763 -0.382259,1.61331 0.350901,0.49319 0.972867,0.34631 1.410853,0.64148 1.42851,0.9627 -0.866722,-0.0475 0.751539,0.59714 0.706009,-0.56751 0.369723,-0.57722 0.914521,-0.42694 0.0019,-8e-4 7.94e-4,-0.003 -0.0011,-0.003 v 0 c -0.555736,0.40844 -0.349475,0.44004 -0.534175,-0.3264 -0.127855,-1.6e-4 -0.256794,-0.0171 -0.383564,-5.3e-4 -0.246922,0.0324 -0.583914,0.34667 -0.732541,0.14684 -0.161174,-0.21669 0.311766,-0.49459 0.274905,-0.76213 -0.02495,-0.18102 -0.35678,-0.17487 -0.427239,-0.34347 -0.552064,-1.32099 1.779196,0.0276 -1.391132,-1.10721 -0.654669,-3.05214 0.139047,1.50452 0.244505,-1.5707 0.0099,-0.28739 -0.519113,-0.5394 -0.364533,-0.78189 1.073489,-1.68394 1.80439,0.65698 0.378886,-1.08334 -0.0699,-0.0853 0.0053,-0.22055 0.008,-0.33083 -0.07045,0.29586 0.347956,0.39549 0.41841,0.0996 z" />
      <path
         style="fill:#000000;fill-opacity:1;stroke:none;stroke-width:0.529167;stroke-dasharray:none;stroke-opacity:1;paint-order:stroke fill markers"
         id="path2263"
         d="m 91.123226,170.02606 c 0.406559,-0.11013 0.746334,-0.37346 1.067438,0.06 0.112043,0.15125 0.07047,0.37996 0.173845,0.53727 0.119512,0.18185 0.346437,0.27255 0.474146,0.44875 0.136454,0.18827 0.201083,0.41934 0.305589,0.62704 0.109725,0.21809 0.224705,0.43349 0.337058,0.65023 -0.441098,0.88485 0.630578,1.30045 0.538104,2.14882 -0.05098,0.46764 -0.51753,1.00611 -0.773065,1.35603 0.0096,0.61445 0.878536,0.60091 0.868963,-0.0136 v 0 c -0.01175,-0.22179 -0.08489,-0.44888 -0.03527,-0.66538 0.107485,-0.46898 0.726348,-0.93085 0.239242,-1.48696 -0.237191,-0.2708 -0.881459,-0.14646 -0.958186,-0.49817 -0.08654,-0.39671 0.413922,-0.69868 0.620882,-1.04803 -0.193903,-0.18956 -0.411927,-0.35724 -0.581713,-0.56868 -0.148765,-0.18526 -0.133543,-0.56279 -0.36607,-0.6116 -0.493021,-0.10349 -1.155501,0.59307 -1.495059,0.22094 -0.293463,-0.32161 0.600429,-0.68799 0.677971,-1.1164 0.0011,-0.005 -0.665443,-0.3222 -0.742194,-0.35881 -0.225194,-0.24867 -0.576871,0.0698 -0.351679,0.31848 z" />
    </g>
  </g>
  <g
     inkscape:groupmode="layer"
     id="layer2"
     inkscape:label="Markers"
     style="display:inline"
     sodipodi:insensitive="true">
    <g
       id="g1785"
       inkscape:label="River Markers"
       style="display:none"
       sodipodi:insensitive="true">
      <rect
         style="display:none;fill:#80b3ff;stroke:#000000;stroke-width:0;stroke-linecap:round;paint-order:stroke fill markers"
         id="rect1640-7"
         width="291.04166"
         height="8.4666643"
         x="-42.333332"
         y="114.82917"
         inkscape:label="L-R River Marker"
         sodipodi:insensitive="true" />
      <rect
         style="display:none;fill:#80b3ff;stroke:#000000;stroke-width:0;stroke-linecap:round;paint-order:stroke fill markers"
         id="rect1640-7-1"
         width="291.04166"
         height="8.4666643"
         x="9.1840715"
         y="-34.065075"
         inkscape:label="TL-BR River Marker"
         sodipodi:insensitive="true"
         transform="rotate(60)" />
      <rect
         style="display:none;fill:#80b3ff;stroke:#000000;stroke-width:0;stroke-linecap:round;paint-order:stroke fill markers"
         id="rect1640-7-8"
         width="291.04166"
         height="8.4666643"
         x="-197.03824"
         y="144.66092"
         inkscape:label="BL-TR River Marker"
         sodipodi:insensitive="true"
         transform="rotate(-60)" />
      <rect
         style="display:inline;fill:#80b3ff;fill-opacity:1;stroke-width:0;paint-order:stroke fill markers"
         id="rect20853"
         width="8.4045773"
         height="8.4045773"
         x="-4.1891494"
         y="114.86176"
         inkscape:label="L Marker"
         sodipodi:insensitive="true" />
      <rect
         style="display:inline;fill:#80b3ff;fill-opacity:1;stroke-width:0;paint-order:stroke fill markers"
         id="rect20855"
         width="5.7989492"
         height="5.7989492"
         x="1.1801877"
         y="211.76744"
         transform="matrix(-0.96592583,0.25881905,0.25881905,0.96592583,0,0)"
         inkscape:label="BL Marker"
         sodipodi:insensitive="true" />
      <rect
         style="display:inline;fill:#80b3ff;fill-opacity:1;stroke-width:0;paint-order:stroke fill markers"
         id="rect20857"
         width="6.1054602"
         height="6.1054602"
         x="200.33043"
         y="158.12204"
         transform="rotate(15)"
         inkscape:label="BR Marker"
         sodipodi:insensitive="true" />
      <rect
         style="display:inline;fill:#80b3ff;fill-opacity:1;stroke-width:0;paint-order:stroke fill markers"
         id="rect20859"
         width="8.4984264"
         height="8.4984264"
         x="202.0654"
         y="114.79823"
         inkscape:label="R Marker"
         sodipodi:insensitive="true" />
      <rect
         style="display:inline;fill:#80b3ff;fill-opacity:1;stroke-width:0;paint-order:stroke fill markers"
         id="rect20861"
         width="5.875577"
         height="5.875577"
         x="-144.7541"
         y="65.838341"
         transform="matrix(-0.96592583,0.25881905,0.25881905,0.96592583,0,0)"
         inkscape:label="TR Marker"
         sodipodi:insensitive="true" />
      <rect
         style="display:inline;fill:#80b3ff;fill-opacity:1;stroke-width:0;paint-order:stroke fill markers"
         id="rect20863"
         width="6.0288324"
         height="6.0288324"
         x="54.585835"
         y="12.421707"
         transform="rotate(15)"
         inkscape:label="TL Marker"
         sodipodi:insensitive="true" />
    </g>
    <g
       id="g1713"
       inkscape:label="Road Markers"
       style="display:inline"
       sodipodi:insensitive="true">
      <rect
         style="display:none;fill:#e9ddaf;stroke:#000000;stroke-width:0;stroke-linecap:round;paint-order:stroke fill markers"
         id="rect1640"
         width="291.04166"
         height="2.1166666"
         x="-42.333332"
         y="118.00417"
         inkscape:label="L-R Road Marker"
         sodipodi:insensitive="true" />
      <rect
         style="display:none;fill:#e9ddaf;stroke:#000000;stroke-width:0;stroke-linecap:round;paint-order:stroke fill markers"
         id="rect1640-2"
         width="291.04166"
         height="2.1166666"
         x="-197.03824"
         y="147.83591"
         inkscape:label="BL-TR Road Marker"
         transform="rotate(-60)"
         sodipodi:insensitive="true" />
      <rect
         style="display:none;fill:#e9ddaf;fill-opacity:1;stroke:#000000;stroke-width:0;stroke-linecap:round;paint-order:stroke fill markers"
         id="rect1640-5"
         width="291.04166"
         height="2.1166666"
         x="9.1840754"
         y="-30.890074"
         inkscape:label="TL-BR Road Marker"
         transform="rotate(60)"
         sodipodi:insensitive="true" />
      <rect
         style="display:none;fill:#e9ddaf;fill-opacity:1;stroke-width:0;paint-order:stroke fill markers"
         id="rect20783"
         width="2.1166666"
         height="2.1166666"
         x="-1.0451944"
         y="118.00571"
         inkscape:label="L Marker"
         sodipodi:insensitive="true" />
      <rect
         style="display:none;fill:#e9ddaf;fill-opacity:1;stroke-width:0;paint-order:stroke fill markers"
         id="rect20781"
         width="1.507797"
         height="1.507797"
         x="3.3257639"
         y="213.91301"
         transform="matrix(-0.96592583,0.25881905,0.25881905,0.96592583,0,0)"
         inkscape:label="BL Marker"
         sodipodi:insensitive="true" />
      <rect
         style="display:none;fill:#e9ddaf;fill-opacity:1;stroke-width:0;paint-order:stroke fill markers"
         id="rect20777"
         width="1.507797"
         height="1.507797"
         x="202.62926"
         y="160.42087"
         transform="rotate(15)"
         inkscape:label="BR Marker"
         sodipodi:insensitive="true" />
      <rect
         style="fill:#e9ddaf;fill-opacity:1;stroke-width:0;paint-order:stroke fill markers"
         id="rect20794"
         width="2.1166666"
         height="2.1166666"
         x="205.25629"
         y="117.98911"
         inkscape:label="R Marker"
         sodipodi:insensitive="true" />
      <rect
         style="display:none;fill:#e9ddaf;fill-opacity:1;stroke-width:0;paint-order:stroke fill markers"
         id="rect20779"
         width="1.507797"
         height="1.507797"
         x="-142.57022"
         y="68.022232"
         transform="matrix(-0.96592583,0.25881905,0.25881905,0.96592583,0,0)"
         inkscape:label="TR Marker"
         sodipodi:insensitive="true" />
      <rect
         style="display:inline;fill:#e9ddaf;fill-opacity:1;stroke-width:0;paint-order:stroke fill markers"
         id="rect20765"
         width="1.507797"
         height="1.507797"
         x="56.846352"
         y="14.682225"
         transform="rotate(15)"
         inkscape:label="TL Marker"
         sodipodi:insensitive="true" />
    </g>
  </g>
</svg>
